<svg width="24" height="20" viewBox="0 0 24 20" fill="none" xmlns="http://www.w3.org/2000/svg">
<rect width="23.7835" height="19.9996" fill="black" fill-opacity="0"/>
<rect width="23.7835" height="19.9996" fill="black" fill-opacity="0"/>
<path d="M15.4745 5.04666H1.44835C0.650488 5.04666 0 4.24916 0 3.27098V1.77568C0 0.797497 0.650488 0 1.44835 0H15.4745C16.2774 0 16.9228 0.797497 16.9228 1.77568V3.27098C16.9228 4.24916 16.2774 5.04666 15.4745 5.04666Z" fill="#20B171"/>
<path d="M22.3351 12.5232H1.44835C0.650488 12.5232 0 11.732 0 10.7475V9.25224C0 8.27406 0.650488 7.47656 1.44835 7.47656H22.3351C23.133 7.47656 23.7835 8.27406 23.7835 9.25224V10.7475C23.7835 11.732 23.1381 12.5232 22.3351 12.5232Z" fill="#20B171"/>
<path d="M22.3351 19.9998H1.44835C0.650488 19.9998 0 19.2085 0 18.2241V16.7288C0 15.7506 0.650488 14.9531 1.44835 14.9531H22.3351C23.133 14.9531 23.7835 15.7506 23.7835 16.7288V18.2241C23.7835 19.2085 23.1381 19.9998 22.3351 19.9998Z" fill="#20B171"/>
</svg>
