<svg width="18" height="29" viewBox="0 0 18 29" fill="none" xmlns="http://www.w3.org/2000/svg">
<rect width="18" height="28.3786" fill="black" fill-opacity="0"/>
<rect width="18" height="28.3786" fill="black" fill-opacity="0"/>
<path d="M17.9997 25.8871C17.9533 25.8929 17.9388 25.8523 17.9388 25.8234C17.9155 25.4093 17.666 25.0965 17.4686 24.7635C16.7227 23.5097 15.9768 22.2588 15.231 21.0049C14.2152 19.2993 13.1994 17.5967 12.1836 15.8911C11.9398 15.4799 11.6873 15.0745 11.4493 14.6575C11.3971 14.5649 11.3681 14.4751 11.3681 14.3709C11.3681 12.3439 11.3681 10.3169 11.3681 8.28988C11.3681 8.09297 11.3913 8.0698 11.5974 8.06691C11.7628 8.06401 11.9253 8.0727 12.0878 8.03795C12.6654 7.91054 13.0746 7.36615 13.0166 6.79569C12.9556 6.1876 12.4738 5.73297 11.8673 5.7156C11.6496 5.70981 11.4319 5.7156 11.2143 5.7156C9.26396 5.7156 7.31655 5.7156 5.36625 5.7156C4.77419 5.7156 4.30403 6.09493 4.18794 6.6567C4.03992 7.37484 4.57684 8.04664 5.31401 8.06691C5.41558 8.0698 5.51716 8.06401 5.61874 8.0698C5.70581 8.0756 5.74934 8.11903 5.75515 8.2059C5.75805 8.26382 5.75805 8.32173 5.75805 8.37964C5.75805 10.3053 5.75515 12.2309 5.76095 14.1566C5.76095 14.3882 5.71742 14.5938 5.60713 14.8052C5.29659 15.3988 4.99186 15.9982 4.68422 16.5948C4.12118 17.6951 3.55234 18.7926 2.98931 19.8901C2.64104 20.5677 2.29277 21.2482 1.9416 21.9229C1.35535 23.0493 0.780703 24.1815 0.19445 25.3079C0.133503 25.4267 0.113187 25.5541 0.0870673 25.6815C0.0725561 25.7452 0.0928718 25.8321 0 25.8581C0.00870673 25.8523 0.0232179 25.8494 0.0232179 25.8465C0.0319247 25.4904 0.208961 25.1979 0.365683 24.8938C2.13605 21.4653 3.90061 18.0368 5.66518 14.6112C5.70581 14.5301 5.72322 14.4519 5.72322 14.3651C5.72612 12.3294 5.72903 10.2937 5.73773 8.25513C5.73773 8.13641 5.71452 8.09587 5.58972 8.10745C5.22984 8.13351 4.89028 8.08139 4.59135 7.84973C4.19084 7.53699 4.02251 6.98971 4.18794 6.50033C4.35046 6.01965 4.81192 5.67795 5.31691 5.67795C7.5023 5.67506 9.68769 5.67506 11.876 5.67795C12.4854 5.67795 13.0108 6.17601 13.063 6.78411C13.1181 7.398 12.6857 7.96556 12.0878 8.08139C11.8934 8.11903 11.7018 8.10455 11.5103 8.10455C11.4261 8.10455 11.3942 8.11903 11.3942 8.21459C11.4029 10.2879 11.4058 12.3641 11.4087 14.4404C11.4087 14.5156 11.4406 14.5678 11.4755 14.6257C13.5825 18.1671 15.6924 21.7057 17.8024 25.2442C17.9068 25.4209 17.9388 25.6091 17.9678 25.806C17.9736 25.8321 17.9504 25.8726 17.9997 25.8871Z" fill="#E74512"/>
<path d="M17.9998 25.89C17.9504 25.8755 17.9736 25.835 17.9707 25.806C17.9417 25.612 17.9098 25.4238 17.8053 25.2442C15.6925 21.7057 13.5855 18.1671 11.4784 14.6257C11.4436 14.5678 11.4117 14.5156 11.4117 14.4404C11.4088 12.3641 11.4059 10.2908 11.3972 8.21459C11.3972 8.11903 11.4262 8.10455 11.5133 8.10455C11.7048 8.10455 11.8992 8.11903 12.0908 8.08139C12.6887 7.96556 13.1211 7.39511 13.0659 6.78411C13.0137 6.17312 12.4884 5.67795 11.8789 5.67795C9.69354 5.67506 7.50816 5.67506 5.31987 5.67795C4.81778 5.67795 4.35342 6.02254 4.19089 6.50033C4.02547 6.98971 4.1938 7.537 4.5943 7.84973C4.89033 8.08139 5.2328 8.13351 5.59268 8.10745C5.71747 8.09876 5.74069 8.13641 5.74069 8.25513C5.73198 10.2908 5.72908 12.3265 5.72618 14.3651C5.72618 14.4548 5.70877 14.533 5.66813 14.6112C3.90067 18.0397 2.13611 21.4682 0.371542 24.8938C0.214821 25.1979 0.037784 25.4904 0.0290773 25.8465C0.0290773 25.8523 0.0145661 25.8552 0.00585938 25.8581V25.916C0.0290773 26.0029 0.0290773 26.0898 0.00585938 26.1766V26.2056C0.037784 26.3127 0.0174683 26.4257 0.0435885 26.5299C0.281572 27.4652 0.824292 28.1139 1.77623 28.3803H16.2294C16.3107 28.3484 16.3977 28.3484 16.479 28.3166C17.0275 28.0907 17.4309 27.7085 17.7211 27.1959C17.8953 26.889 17.9736 26.556 17.9998 26.2085V26.1795C17.9765 26.0927 17.9765 26.0058 17.9998 25.9189V25.89ZM17.0072 26.6776C16.836 27.0685 16.537 27.3407 16.1423 27.5058C16.0349 27.5492 15.9247 27.5724 15.8057 27.5724C13.5361 27.5695 11.2695 27.5695 8.99991 27.5695V27.5492C6.77389 27.5492 4.55077 27.5434 2.32475 27.555C1.85459 27.5579 1.50632 27.3552 1.2248 27.0193C0.89975 26.6342 0.786563 26.1795 0.876532 25.6815C0.891043 25.6062 0.920066 25.5367 0.954893 25.4672C2.80072 21.8591 4.64364 18.2511 6.48947 14.6431C6.533 14.5591 6.55042 14.4751 6.55042 14.3795C6.55332 12.0688 6.55622 9.758 6.56493 7.44433C6.56493 7.3285 6.54461 7.29086 6.41982 7.29376C6.07735 7.30244 5.73198 7.29665 5.38952 7.29665C5.12832 7.29665 4.93967 7.12581 4.93677 6.89415C4.93387 6.6596 5.12251 6.48585 5.38371 6.48585C7.52267 6.48585 9.65872 6.48585 11.7977 6.48585C12.0589 6.48585 12.2475 6.6567 12.2475 6.89125C12.2475 7.12581 12.0589 7.29665 11.7977 7.29665C11.4436 7.29665 11.0924 7.30244 10.7384 7.29376C10.6397 7.29086 10.6223 7.32271 10.6223 7.41538C10.631 9.74642 10.6397 12.0775 10.6455 14.4085C10.6455 14.4867 10.6716 14.5475 10.7093 14.6112C12.7844 18.1758 14.8566 21.7433 16.9404 25.2992C17.2162 25.7655 17.2104 26.2143 17.0072 26.6776Z" fill="#E74512"/>
<path d="M10.3951 0C10.6244 0.0723926 10.8479 0.147681 11.0278 0.318527C11.4167 0.686282 11.5357 1.24226 11.3151 1.72005C11.1004 2.18915 10.5838 2.48741 10.0817 2.4295C9.55058 2.36869 9.11815 1.97777 9.00786 1.46233C8.87146 0.82238 9.29809 0.170847 9.93948 0.0318527C9.9656 0.0260613 9.99753 0.0347484 10.0149 0.0028957C10.1426 0 10.2703 0 10.3951 0Z" fill="#E74512"/>
<path d="M0.00585938 25.918C0.0522953 26.0048 0.0522953 26.0917 0.00585938 26.1786C0.00585938 26.0917 0.00585938 26.0048 0.00585938 25.918Z" fill="#E74512"/>
<path d="M17.9997 26.1786C17.9532 26.0917 17.9532 26.0048 17.9997 25.918C17.9997 26.0048 17.9997 26.0917 17.9997 26.1786Z" fill="#E74512"/>
<path d="M7.76395 3.65355C7.76395 4.11107 7.40698 4.46435 6.94842 4.46146C6.50438 4.45856 6.1416 4.0966 6.1416 3.65355C6.1416 3.20762 6.51599 2.83696 6.96294 2.83986C7.40408 2.84276 7.76395 3.20762 7.76395 3.65355Z" fill="#E74512"/>
<path d="M11.014 4.45634C11.0169 4.90807 10.6657 5.26714 10.2188 5.27293C9.76023 5.27582 9.39745 4.92544 9.38874 4.47082C9.38293 4.02488 9.75732 3.64844 10.2043 3.64844C10.6483 3.64844 11.0111 4.0104 11.014 4.45634Z" fill="#E74512"/>
<path d="M8.97375 26.8038C6.79416 26.8038 4.61168 26.7951 2.43209 26.8125C1.95032 26.8154 1.48596 26.216 1.75297 25.6948C3.06768 23.1234 4.36789 20.5404 5.68841 17.9719C5.92349 17.5144 6.36173 17.2741 6.85801 17.1785C7.4907 17.054 8.0044 17.332 8.46876 17.7229C8.68642 17.9053 8.88087 18.1167 9.11886 18.276C9.93149 18.8146 10.8109 18.7393 11.5219 18.0675C11.5596 18.0298 11.6032 17.998 11.6351 17.9545C11.7019 17.859 11.7338 17.9024 11.7773 17.9777C12.558 19.3416 13.3387 20.7055 14.1194 22.0693C14.8131 23.2797 15.5067 24.4873 16.1974 25.6977C16.4673 26.1697 16.0958 26.8096 15.5473 26.8096C13.3532 26.8038 11.1649 26.8038 8.97375 26.8038Z" fill="#E74512"/>
</svg>
