<svg width="209" height="209" viewBox="0 0 209 209" fill="none" xmlns="http://www.w3.org/2000/svg">
<rect width="209" height="209" fill="black" fill-opacity="0"/>
<rect width="50.3377" height="50" fill="black" fill-opacity="0" transform="translate(9 141)"/>
<rect width="50.3377" height="50" fill="black" fill-opacity="0" transform="translate(9 141)"/>
<rect width="50.3138" height="50" rx="8" transform="matrix(1 0 0.000478411 -1 9 191)" fill="white"/>
<rect width="50.3377" height="50" fill="black" fill-opacity="0" transform="translate(79 104)"/>
<rect width="50.3377" height="50" fill="black" fill-opacity="0" transform="translate(79 104)"/>
<rect width="50.3138" height="50" rx="25" transform="matrix(1 0 0.000478411 -1 79 154)" fill="white"/>
<rect width="50.3377" height="50" fill="black" fill-opacity="0" transform="translate(149 141)"/>
<rect width="50.3377" height="50" fill="black" fill-opacity="0" transform="translate(149 141)"/>
<rect width="50.3138" height="50" rx="8" transform="matrix(1 0 0.000478411 -1 149 191)" fill="white"/>
<rect width="57.1129" height="101.182" fill="black" fill-opacity="0" transform="translate(75 18)"/>
<rect width="57.1129" height="57.0805" fill="black" fill-opacity="0" transform="translate(75 18)"/>
<rect width="57.0858" height="57.0805" rx="8" transform="matrix(1 0 0.000475472 -1 75 75.0805)" fill="white"/>
<path d="M103.894 50.8062V119.182" stroke="white" stroke-width="8"/>
<path d="M42 150L103.5 126.5L170.5 150" stroke="white" stroke-width="5"/>
</svg>
