<svg width="22" height="22" viewBox="0 0 22 22" fill="none" xmlns="http://www.w3.org/2000/svg">
<path d="M21.9868 19.529C21.9474 14.7842 22 10.0394 21.9605 5.30776C21.8289 4.50601 21.2763 3.99341 20.6184 3.7174C18.7368 2.92879 16.8289 2.24533 14.9342 1.48301C14.0789 1.12813 13.1842 0.852119 12.3289 0.484102C11.8421 0.260662 11.3158 -0.15993 10.7105 0.0635098C7.57895 1.25957 4.46053 2.48191 1.34211 3.7174C0.605263 4.0197 0.0921053 4.58487 0 5.42606C0.0131579 10.3286 0 15.2442 0.0131579 20.1468C0.184211 21.1325 0.881579 21.8291 1.85526 21.9869C2.68421 21.9869 3.51316 21.9869 4.34211 21.9869C9.56579 21.9869 14.8026 21.9737 20.0263 22C21.0789 21.8817 21.8158 21.1588 22 20.0416V20.0285C22 19.8708 22 19.6999 21.9868 19.529ZM15.9737 13.2859C15.9737 13.6145 15.6447 13.575 15.4079 13.575C14.6184 13.5882 13.8289 13.575 13.0526 13.5882C12.8421 13.5882 12.6184 13.5356 12.4211 13.6539C12.4211 13.6407 12.3947 13.6276 12.3553 13.6145C12.3289 13.6145 12.3026 13.6013 12.2763 13.6013C12.2632 14.7842 12.25 15.9671 12.25 17.1501C12.1974 17.1895 12.1447 17.2289 12.0789 17.2683C11.3553 17.3998 10.6316 17.3998 9.9079 17.2683C9.85526 17.2289 9.80263 17.1895 9.73684 17.1501C9.72368 15.9671 9.71053 14.7842 9.71053 13.6013C9.68421 13.6013 9.65789 13.6145 9.63158 13.6145C9.63158 13.6407 9.61842 13.667 9.61842 13.6933C8.98684 13.483 8.32895 13.6407 7.69737 13.6013C7.36842 13.5882 7.03947 13.575 6.71053 13.6013C6.19737 13.6407 5.92105 13.483 6 12.9047C6.07895 12.2738 5.89474 11.6166 6.10526 10.9989C6.61842 10.8017 7.14474 10.9332 7.67105 10.92C8.30263 10.8937 8.92105 10.92 9.55263 10.9069C9.81579 10.7623 9.68421 10.5257 9.69737 10.3286C9.71053 9.50054 9.69737 8.68564 9.71053 7.8576C9.71053 7.68674 9.64474 7.48958 9.77632 7.33186C10.6053 7.17414 11.4211 7.17414 12.2368 7.33186C12.4474 8.30448 12.2632 9.29024 12.3289 10.2629C12.3421 10.4863 12.1974 10.7492 12.4737 10.9069C13.4211 10.92 14.3816 10.9069 15.3289 10.92C15.5263 10.92 15.7368 10.8412 15.9079 10.9858C16.1184 11.7349 15.9605 12.5104 15.9737 13.2859Z" fill="#DAEA19"/>
</svg>
