<svg width="13" height="19" viewBox="0 0 13 19" fill="none" xmlns="http://www.w3.org/2000/svg">
<path d="M4.57093 17.8968C4.63353 17.8166 4.73524 17.7684 4.8213 17.7123C6.19048 16.7654 7.71614 16.1556 9.26527 15.618C10.1259 15.3211 11.0022 15.0643 11.8393 14.7032C12.0193 14.623 12.1992 14.5347 12.0271 14.2619C10.9161 12.5206 10.2667 10.5948 9.899 8.56473C9.63299 7.10433 9.53128 5.62789 9.78947 4.15144C10.0477 2.69104 10.6501 1.42322 11.8237 0.49242C11.6907 0.372058 11.5577 0.331937 11.4247 0.283792C10.5797 -0.0291505 9.71123 -0.0131022 8.84278 0.0591153C7.21541 0.187502 6.09659 1.20657 5.8697 2.83548C5.51763 5.37111 6.12789 7.69812 7.42665 9.85662C7.75526 10.4023 7.59878 11.1325 7.02764 11.4294C6.77727 11.5658 6.50343 11.6701 6.23742 11.7664C5.11078 12.1756 3.97632 12.5287 2.88098 13.0342C1.73086 13.5718 0.823293 14.3261 0.408627 15.6019C0.150439 16.3963 0.0565519 17.2068 0.0017847 18.0413C-0.0138631 18.298 0.0721997 18.3542 0.306916 18.3542C1.2849 18.3382 2.26289 18.3301 3.24087 18.3542C3.74943 18.3542 4.22668 18.3542 4.57093 17.8968Z" fill="white"/>
</svg>
