<svg width="27" height="30" viewBox="0 0 27 30" fill="none" xmlns="http://www.w3.org/2000/svg">
<rect width="26.8085" height="30" fill="black" fill-opacity="0"/>
<rect width="26.8085" height="30" fill="black" fill-opacity="0"/>
<path d="M11.9949 0.00306452C10.249 0.108106 8.21966 1.54868 7.011 4.17472C6.29475 5.73535 6.32459 7.371 6.56334 9.02165C6.8767 11.2425 7.59295 13.2833 9.08513 14.979C10.4878 16.5547 12.2038 17.395 14.3376 16.8698C16.0536 16.4496 17.2175 15.2641 18.1427 13.8236C19.3215 11.9628 19.7841 9.87699 19.9482 7.73114C20.2616 3.30438 16.8892 -0.116983 11.9949 0.00306452ZM16.6803 14.2437C14.5913 16.5547 11.5771 16.4946 9.56262 14.1087C8.21966 12.518 7.57803 10.6423 7.36912 8.46643C7.71232 8.61649 7.93615 8.70653 8.20474 8.82658C8.23458 7.86619 8.05552 6.96584 8.18982 6.06548C8.23458 5.75035 8.27935 5.42022 8.3838 5.1201C8.59271 4.56488 8.89114 4.32478 9.57755 4.59489C11.2786 5.28517 13.0394 5.6153 14.8897 5.22514C15.3224 5.13511 15.785 5.03007 16.1431 4.77496C16.7251 4.33979 17.0086 4.53487 17.2772 5.1201C17.7398 6.1255 18.3068 7.10089 18.2471 8.28636C18.6351 8.19633 18.6798 7.71613 19.0977 7.65611C18.9186 10.1171 18.3516 12.383 16.6803 14.2437Z" fill="white"/>
<path d="M26.7078 26.3388C26.4542 27.9294 25.5439 28.9348 24.0518 29.445C23.3653 29.6701 22.664 29.8352 21.9478 29.8502C21.9179 29.8952 21.903 29.9402 21.9329 29.9853C21.903 29.9402 21.8881 29.9102 21.903 29.8802C21.903 29.8652 21.903 29.8652 21.9179 29.8502C21.9179 29.8352 21.9329 29.8052 21.9627 29.7902C22.2761 29.5951 22.6342 29.6101 22.9774 29.5501C25.7678 29.0549 26.7974 27.3592 26.678 24.7032C26.4989 20.7866 23.6489 17.4703 19.8587 16.5999C19.2768 16.4649 18.9187 16.5399 18.6053 17.1401C17.8144 18.5957 16.4864 19.5711 15.2777 20.6365C14.8898 20.9817 14.457 21.2818 14.0541 21.6269C13.6363 21.9721 13.2484 21.9721 12.8455 21.6269C11.1295 20.1714 9.21948 18.8808 8.10035 16.825C7.89144 16.4499 7.57808 16.5249 7.2498 16.5699C3.81779 17.2002 0.93788 20.1263 0.35593 23.6077C0.206712 24.4781 0.161946 25.3334 0.311164 26.2188C0.564835 27.8244 1.46014 28.8148 2.96725 29.325C3.60888 29.5501 4.29529 29.5501 4.922 29.8052C4.93692 29.8202 4.95185 29.8502 4.96677 29.8652C4.96677 29.8802 4.98169 29.8802 4.98169 29.8952C4.98169 29.9252 4.98169 29.9703 4.95185 30.0003C4.98169 29.9552 4.96677 29.9102 4.93692 29.8652C4.42958 29.7902 3.8924 29.7602 3.39998 29.6251C0.893115 28.9949 -0.240942 27.1941 0.042572 24.403C0.445461 20.3964 3.10154 17.3352 6.96629 16.4049C7.57808 16.2548 8.01081 16.1948 8.38386 16.9751C9.04042 18.3106 10.264 19.211 11.3682 20.1864C11.9054 20.6666 12.4874 21.1017 13.0395 21.5669C13.2782 21.762 13.4722 21.852 13.7557 21.6119C15.2777 20.3664 16.8296 19.1509 18.0681 17.6053C18.1726 17.4703 18.277 17.3202 18.3665 17.1852C18.9933 16.2098 18.9933 16.2098 20.1572 16.4949C24.4994 17.5303 27.3942 21.912 26.7078 26.3388Z" fill="white"/>
<path d="M20.1721 16.4793C19.0082 16.1942 19.0082 16.1942 18.3815 17.1695C18.292 17.3196 18.1875 17.4547 18.0831 17.5897C16.8296 19.1353 15.2927 20.3508 13.7707 21.5963C13.4871 21.8214 13.2932 21.7464 13.0544 21.5513C12.5023 21.0861 11.9353 20.6509 11.3832 20.1707C10.279 19.1953 9.05537 18.295 8.39881 16.9595C8.01085 16.1791 7.59303 16.2392 6.98124 16.3892C3.10157 17.3346 0.445491 20.3958 0.042602 24.4024C-0.240912 27.1935 0.893145 28.9942 3.37016 29.6245C3.87751 29.7596 4.39977 29.7896 4.90711 29.8646C4.92203 29.8796 4.93695 29.8796 4.95188 29.8946C5.1757 29.9996 5.44429 29.8346 5.66812 29.9996H21.0376C21.3062 29.8196 21.6195 29.9996 21.903 29.8946C21.918 29.8946 21.9329 29.8796 21.9478 29.8646C22.679 29.8496 23.3654 29.6845 24.0518 29.4594C25.544 28.9492 26.4542 27.9288 26.7079 26.3532C27.3943 21.9114 24.4994 17.5297 20.1721 16.4793ZM20.4706 25.4378C20.5452 25.888 20.381 26.0231 19.9035 26.0381C19.3663 26.0531 19.3216 25.783 19.3813 25.4078C19.4708 24.8226 19.2619 24.5825 18.665 24.6875C18.2174 24.7626 18.0085 24.6425 18.0085 24.1023C18.0234 23.6071 18.1875 23.4871 18.6053 23.5621C19.2022 23.6671 19.4857 23.4721 19.3663 22.8268C19.2917 22.4216 19.3663 22.1965 19.8886 22.1965C20.3661 22.2115 20.5153 22.3616 20.4407 22.7968C20.3363 23.427 20.575 23.6671 21.2017 23.5621C21.6195 23.4871 21.903 23.5921 21.7687 24.1023C21.8881 24.5825 21.6792 24.7626 21.2166 24.6875C20.6496 24.5825 20.3661 24.7926 20.4706 25.4378Z" fill="white"/>
<path d="M11.9949 0.00306452C10.249 0.108106 8.21966 1.54868 7.011 4.17472C6.29475 5.73535 6.32459 7.371 6.56334 9.02165C6.8767 11.2425 7.59295 13.2833 9.08513 14.979C10.4878 16.5547 12.2038 17.395 14.3376 16.8698C16.0536 16.4496 17.2175 15.2641 18.1427 13.8236C19.3215 11.9628 19.7841 9.87699 19.9482 7.73114C20.2616 3.30438 16.8892 -0.116983 11.9949 0.00306452ZM16.6803 14.2437C14.5913 16.5547 11.5771 16.4946 9.56262 14.1087C8.21966 12.518 7.57803 10.6423 7.36912 8.46643C7.71232 8.61649 7.93615 8.70653 8.20474 8.82658C8.23458 7.86619 8.05552 6.96584 8.18982 6.06548C8.23458 5.75035 8.27935 5.42022 8.3838 5.1201C8.59271 4.56488 8.89114 4.32478 9.57755 4.59489C11.2786 5.28517 13.0394 5.6153 14.8897 5.22514C15.3224 5.13511 15.785 5.03007 16.1431 4.77496C16.7251 4.33979 17.0086 4.53487 17.2772 5.1201C17.7398 6.1255 18.3068 7.10089 18.2471 8.28636C18.6351 8.19633 18.6798 7.71613 19.0977 7.65611C18.9186 10.1171 18.3516 12.383 16.6803 14.2437Z" fill="white"/>
</svg>
