<svg width="22" height="24" viewBox="0 0 22 24" fill="none" xmlns="http://www.w3.org/2000/svg">
<rect width="22" height="23.9956" fill="black" fill-opacity="0"/>
<path d="M16.434 13.2012C16.6611 13.2615 16.7974 13.4425 16.9337 13.6234C17.2821 14.1059 17.4184 14.6789 17.4941 15.2669C17.5093 15.4026 17.5547 15.5534 17.5093 15.674C17.4638 15.7947 17.2821 15.7796 17.1609 15.8399C16.4188 16.2169 16.0402 17.016 16.2219 17.8001C16.4037 18.5841 17.1155 19.1571 17.9333 19.1722C18.7966 19.1873 19.5387 18.554 19.7053 17.6342C19.8416 16.8502 19.3115 16.0058 18.5088 15.7494C18.3574 15.7042 18.3422 15.6288 18.3271 15.4931C18.2968 14.9201 18.1908 14.3622 17.9788 13.8194C18.0393 13.7893 18.0999 13.8194 18.1605 13.8496C20.1445 14.9503 21.4015 16.6089 21.8559 18.8405C22.0376 19.6849 22.0528 20.5443 21.871 21.4038C21.6287 22.5648 20.9017 23.2735 19.781 23.6203C19.0995 23.8314 18.3877 23.9068 17.6759 23.952C16.1765 24.0274 14.6771 23.9822 13.1929 23.9822C10.6788 23.9822 8.14962 23.9822 5.63554 23.9822C5.19634 23.9822 4.75713 23.9671 4.31792 23.952C4.25734 23.952 4.18162 23.952 4.12104 23.9369C3.89386 23.9068 3.65154 23.9671 3.40922 23.8615C3.3335 23.8314 3.25777 23.8917 3.19719 23.8314C2.90943 23.8465 2.62168 23.7861 2.36421 23.6504C2.31878 23.6354 2.27334 23.6504 2.24305 23.6052C2.19762 23.5751 2.12189 23.6052 2.07646 23.5449L2.06131 23.5298H2.04617C1.94015 23.5147 1.83414 23.4846 1.75841 23.3941C1.69783 23.364 1.63725 23.3338 1.59182 23.3036C1.36464 23.2283 1.1829 23.0925 1.04659 22.9116C1.00116 22.8965 0.970869 22.8513 0.940579 22.8061C0.910289 22.7759 0.895144 22.7608 0.864854 22.7307C0.804273 22.6854 0.743693 22.6251 0.728548 22.5497C0.713403 22.5196 0.698258 22.5045 0.683113 22.4743C0.577098 22.3839 0.501373 22.2482 0.471082 22.1125C0.471082 22.0974 0.471082 22.0823 0.455937 22.0823C0.395357 22.0672 0.410502 22.0069 0.395357 21.9617C0.395357 21.9466 0.395357 21.9466 0.380212 21.9315C0.365067 21.9315 0.349922 21.9164 0.349922 21.9014C0.228762 21.5847 0.0924563 21.2681 0.122746 20.9062C0.122746 20.876 0.122746 20.861 0.122746 20.8308C0.00158598 20.7705 0.00158598 20.6348 0.00158598 20.5292C-0.0135591 19.6245 0.0773112 18.75 0.380212 17.8905C0.486227 17.589 0.622533 17.3025 0.743693 17.016C0.773983 16.9557 0.804273 16.8954 0.864854 16.8652C0.879999 16.8652 0.879999 16.8502 0.879999 16.8502C0.970869 16.5787 1.10717 16.3526 1.30406 16.1415C1.36464 16.0661 1.41008 16.0058 1.47066 15.9304C1.50095 15.8399 1.54638 15.7645 1.63725 15.7042C1.69783 15.6439 1.71298 15.5534 1.7887 15.5233C1.81899 15.463 1.84928 15.4177 1.90986 15.4026C1.9553 15.3423 2.00073 15.2971 2.04617 15.2368C2.16733 15.086 2.27334 14.9201 2.47023 14.8447C2.51566 14.8146 2.54595 14.7694 2.59139 14.7392C2.83371 14.5281 3.04574 14.2868 3.36379 14.1813C3.40922 14.1511 3.45466 14.121 3.50009 14.0908C3.62125 13.9551 3.7727 13.8948 3.9393 13.8496C3.96959 13.8345 3.99988 13.8345 4.01502 13.8647C4.03017 13.8948 4.03017 13.9099 3.99988 13.925C3.9393 14.2567 3.84843 14.5884 3.80299 14.9201C3.80299 14.9654 3.78785 15.0106 3.75756 15.0558C3.72727 15.1614 3.72727 15.282 3.75756 15.3876C3.78785 15.478 3.78785 15.5685 3.71212 15.6439C3.66669 15.6891 3.6364 15.7344 3.59096 15.7796C3.57582 15.8399 3.51524 15.8701 3.4698 15.9002C3.43951 15.9304 3.39408 15.9605 3.39408 16.0058C3.36379 16.051 3.37893 16.1264 3.30321 16.1415C3.24263 16.1415 3.21234 16.1716 3.1669 16.2169C3.06089 16.3073 2.97001 16.428 2.81856 16.4732H2.80342V16.4883C2.63682 16.6843 2.48537 16.8803 2.30363 17.0612C2.27334 17.1065 2.22791 17.1366 2.21276 17.1819C2.16733 17.3477 2.07646 17.4834 1.97044 17.6041H1.9553V17.6191C1.89472 17.8302 1.80385 18.0263 1.81899 18.2524C1.81899 18.3127 1.80385 18.358 1.74327 18.3881C1.68269 18.5088 1.63725 18.6445 1.62211 18.7802C1.62211 19.0214 1.54638 19.2627 1.51609 19.5039C1.45551 20.0166 1.47066 20.5292 1.56153 21.0419C1.57667 21.1475 1.66754 21.2228 1.68269 21.3133C1.68269 21.3736 1.71298 21.3887 1.75841 21.4189C1.7887 21.4339 1.81899 21.449 1.83414 21.4792C1.86443 21.4943 1.87957 21.5093 1.90986 21.5244C2.00073 21.5546 2.10675 21.5546 2.16733 21.645C2.28849 21.645 2.40965 21.6752 2.51566 21.7355C2.59139 21.7807 2.68226 21.7807 2.75798 21.7657C2.98516 21.7657 3.19719 21.7807 3.42437 21.7506C3.43951 21.7355 3.4698 21.7204 3.48495 21.7053C3.53038 21.63 3.60611 21.5696 3.6364 21.4792C3.75756 21.2078 3.6364 20.9364 3.34864 20.861C3.18205 20.8007 3.00031 20.8308 2.83371 20.8157C2.74284 20.8157 2.66711 20.8308 2.57624 20.8007C2.51566 20.8007 2.47023 20.8007 2.40965 20.8007C2.36421 20.7705 2.36421 20.7403 2.36421 20.6951C2.36421 20.6649 2.36421 20.6499 2.36421 20.6197C2.24305 20.2729 2.24305 19.9261 2.36421 19.5642C2.36421 19.5341 2.36421 19.5039 2.37936 19.4738C2.36421 19.323 2.3945 19.1722 2.47023 19.0214C2.47023 18.9913 2.48537 18.9762 2.48537 18.946C2.47023 18.9159 2.48537 18.8857 2.50052 18.8706C2.50052 18.8254 2.50052 18.7802 2.51566 18.7349C2.57624 18.6897 2.5611 18.5992 2.62168 18.554C2.71255 18.4635 2.80342 18.3429 2.90943 18.2675C2.92458 18.2524 2.92458 18.2524 2.92458 18.2373C2.93972 18.162 2.93972 18.0866 3.0306 18.0564C3.04574 18.0564 3.04574 18.0413 3.04574 18.0263C3.12147 17.785 3.28806 17.589 3.48495 17.4231C3.51524 17.393 3.54553 17.3628 3.59096 17.3327C3.68183 17.197 3.80299 17.1065 3.96959 17.0914H3.98473L3.99988 17.0763C4.10589 17.016 4.21191 17.0009 4.31792 17.0914C4.33307 17.1216 4.36336 17.1065 4.39365 17.1216C4.7117 17.1969 4.86315 17.4533 5.04489 17.6945C5.09032 17.7548 5.13576 17.8152 5.1509 17.9056C5.13576 17.9509 5.18119 17.981 5.19634 17.9961C5.36293 18.177 5.48409 18.4032 5.63554 18.5992C5.68098 18.6595 5.69612 18.75 5.69612 18.8405C5.7567 18.9159 5.7567 19.0214 5.77185 19.1119C5.77185 19.1873 5.78699 19.2476 5.81728 19.323C5.96873 19.5944 5.93844 19.8809 5.9233 20.1674C5.9233 20.2578 5.89301 20.3483 5.9233 20.4539C5.95359 20.5443 5.9233 20.6197 5.90815 20.7102C5.89301 20.8459 5.80214 20.9062 5.66583 20.8911C5.36293 20.861 5.06003 20.861 4.75713 20.9213C4.69655 20.9364 4.66626 20.9816 4.65111 21.0268C4.63597 21.0721 4.62082 21.1324 4.60568 21.1776C4.51481 21.5244 4.7117 21.7958 5.07518 21.8109C5.27206 21.8109 5.48409 21.8109 5.68098 21.826C5.69612 21.826 5.72641 21.826 5.74156 21.8109C5.93844 21.6601 6.18076 21.6149 6.3928 21.4943C6.40794 21.4792 6.42309 21.4641 6.43823 21.449C6.54425 21.3133 6.58968 21.1324 6.6957 20.9816C6.71084 20.9514 6.71084 20.9062 6.72599 20.876C6.68055 20.7856 6.6957 20.68 6.71084 20.5896C6.80171 20.0015 6.68055 19.4285 6.57454 18.8706C6.54425 18.7199 6.46852 18.5841 6.46852 18.4183C6.42309 18.3881 6.43823 18.3429 6.42309 18.2977C6.3928 18.2223 6.40794 18.1469 6.42309 18.0866C6.42309 18.0564 6.42309 18.0413 6.42309 18.0112C6.34736 17.785 6.21105 17.589 6.13533 17.3477C6.01417 17.2573 5.96873 17.1517 5.90815 17.016C5.90815 17.0009 5.90815 17.0009 5.89301 16.9859C5.78699 16.9406 5.74156 16.8351 5.66583 16.7597C5.49924 16.5787 5.30235 16.443 5.13576 16.2621C4.98431 16.2169 4.848 16.1566 4.75713 16.0058C4.74199 15.9756 4.7117 15.9304 4.68141 15.9153C4.46937 15.7796 4.45423 15.5685 4.46937 15.3423C4.49966 14.9804 4.57539 14.6336 4.69655 14.2868C4.69655 14.2718 4.72684 14.2567 4.72684 14.2416C4.72684 14.2265 4.72684 14.2115 4.74199 14.2115C4.75713 14.0456 4.83286 13.8948 4.95402 13.7742C5.0146 13.6837 5.07518 13.6083 5.13576 13.5179C5.16605 13.4575 5.21148 13.4123 5.27206 13.3822C5.28721 13.3671 5.30235 13.352 5.3175 13.3369C5.39322 13.2615 5.51438 13.2615 5.60525 13.2314C5.7567 13.1861 5.9233 13.1711 6.08989 13.1258C6.18076 13.1107 6.28678 13.1107 6.37765 13.0806C6.49881 13.0806 6.61997 13.0504 6.68055 13.2012C6.80171 13.6837 7.11976 14.0456 7.42266 14.4226C7.63469 14.6789 7.86187 14.9051 8.08904 15.1312C8.17991 15.2217 8.27078 15.3122 8.36165 15.4026C8.99774 15.9907 9.64898 16.5637 10.3457 17.0914C10.5274 17.2271 10.7091 17.3779 10.8909 17.5136C10.9817 17.589 11.0575 17.589 11.1635 17.5136C11.9207 16.9255 12.6628 16.3224 13.3747 15.674C13.8744 15.2217 14.3439 14.7543 14.768 14.2567C15.0406 13.925 15.2678 13.5782 15.389 13.1711C15.5555 13.0203 15.7373 13.1107 15.9039 13.1711C15.919 13.1711 15.9493 13.1711 15.9645 13.1861C16.1159 13.0957 16.2825 13.1107 16.434 13.2012Z" fill="#17CDC6"/>
<path d="M14.9204 1.47817C15.4353 1.94559 15.8896 2.45825 16.238 3.07646C16.9346 4.2978 17.177 5.60961 16.9801 7.01189C16.7075 8.88159 15.9805 10.5553 14.8598 12.0782C14.7689 12.1988 14.6629 12.3194 14.572 12.4551C14.5569 12.5004 14.5266 12.5155 14.4811 12.5305C14.2994 12.5607 14.1177 12.6059 13.9208 12.5456C13.7239 12.4853 13.5422 12.6813 13.527 12.9376C13.5119 13.1035 13.5422 13.2844 13.5119 13.4503C13.4967 13.4955 13.4664 13.5408 13.421 13.5709C12.7243 14.0987 11.9519 14.4153 11.0735 14.4455C10.3768 14.4605 9.7256 14.2796 9.13495 13.9177C8.99864 13.8423 8.86234 13.782 8.74118 13.6916C8.69574 13.6463 8.62002 13.6162 8.62002 13.5408C8.77147 13.3598 8.77147 13.3448 8.57458 13.2543C8.42313 13.1789 8.36255 12.998 8.43828 12.8623C8.514 12.7265 8.65031 12.6964 8.83205 12.7869C8.84719 12.8019 8.86234 12.817 8.87748 12.8321C8.95321 12.9527 8.93806 13.1035 8.93806 13.2392C8.93806 13.2995 8.92292 13.3749 8.95321 13.4352C9.02893 13.4955 9.07437 13.4654 9.08951 13.3749C9.10466 13.2241 9.10466 13.0583 9.08951 12.9075C9.05922 12.6964 8.86234 12.5456 8.65031 12.5607C8.43827 12.5758 8.27168 12.7265 8.25653 12.9376C8.24139 13.0281 8.27168 13.1035 8.22624 13.1789C8.05965 13.2543 8.02936 13.0884 7.93849 13.0432C7.9082 12.998 7.86276 12.9678 7.86276 12.9075C7.86276 12.8321 7.95363 12.7416 7.86276 12.6662C7.77189 12.5607 7.65073 12.5607 7.52957 12.5456C7.49928 12.5305 7.46899 12.5155 7.4387 12.5004C7.36298 12.425 7.31754 12.3496 7.27211 12.2591C7.25696 12.229 7.24182 12.2139 7.22667 12.1837C6.9995 11.9726 6.8329 11.7314 6.69659 11.46C6.65116 11.4449 6.6663 11.3846 6.65116 11.3544C6.45427 11.1735 6.3634 10.9322 6.24224 10.691C6.21195 10.6307 6.18166 10.5704 6.16652 10.51C6.10594 10.4045 6.0605 10.2989 5.99992 10.1934C5.9242 10.118 5.87876 10.0125 5.86362 9.89184C5.78789 9.86168 5.81818 9.77121 5.78789 9.7109C5.65159 9.51488 5.59101 9.28871 5.53043 9.06253C5.53043 9.04745 5.53043 9.04745 5.53043 9.03238C5.36383 8.74589 5.28811 8.42924 5.24267 8.1126C5.22753 8.05229 5.21238 7.9769 5.19724 7.91658C5.07607 7.70549 5.06093 7.46424 5.06093 7.22298C5.06093 7.20791 5.06093 7.17775 5.06093 7.16267C4.95491 6.92142 4.95491 6.66509 4.97006 6.40876C4.9852 6.10719 4.95491 5.80563 4.97006 5.51914C5.00035 5.23265 5.04578 4.93109 5.12151 4.6446C5.13665 4.58429 5.1518 4.52398 5.21238 4.49382C5.22753 4.43351 5.19724 4.35812 5.25782 4.31288C5.25782 4.10178 5.34869 3.93592 5.4547 3.77006C5.46985 3.77006 5.46985 3.75498 5.46985 3.73991C5.48499 3.69467 5.46985 3.64944 5.53043 3.61928C5.53043 3.6042 5.53043 3.6042 5.54557 3.58912C5.60615 3.34787 5.74246 3.13678 5.86362 2.92568C6.01507 2.66935 6.19681 2.4281 6.39369 2.20192C6.42398 2.17177 6.45427 2.15669 6.48456 2.14161C6.60572 1.93052 6.78746 1.77973 6.98435 1.62895C6.9995 1.61387 7.01464 1.59879 7.02979 1.58372C7.1358 1.43293 7.27211 1.34246 7.4387 1.26707C7.46899 1.23692 7.49928 1.20676 7.54472 1.19168C7.62044 1.11629 7.69617 1.05598 7.80218 1.02582C7.81733 1.01074 7.84762 0.995664 7.86276 0.965507C7.99907 0.844881 8.15052 0.76949 8.33226 0.709177C8.36255 0.694098 8.37769 0.67902 8.40798 0.663942C8.55944 0.558394 8.72603 0.483003 8.92292 0.452846C8.95321 0.437768 8.99864 0.42269 9.02893 0.407611C9.07437 0.33222 9.15009 0.347298 9.21067 0.347298C9.45299 0.211594 9.69531 0.151281 9.96792 0.166359C9.99821 0.166359 10.0134 0.166359 10.0437 0.151281C10.1042 0.121125 10.1648 0.136203 10.2254 0.121125C10.2557 0.121125 10.2708 0.121125 10.3011 0.121125C10.5434 -0.0145798 10.816 0.000498454 11.0887 0.000498454C11.1644 0.000498454 11.2401 0.000498456 11.2855 0.0457332C11.3461 0.0457332 11.4067 0.0457332 11.4521 0.0608115C11.543 0.106046 11.6339 0.0608115 11.7096 0.090968C11.7399 0.090968 11.755 0.090968 11.7853 0.090968C11.8459 0.121125 11.9065 0.090968 11.9671 0.121125C11.9822 0.121125 12.0125 0.121125 12.0277 0.136203C12.4063 0.151281 12.7546 0.226672 13.0878 0.42269C13.1029 0.437768 13.1484 0.437768 13.1635 0.452846C13.1787 0.467924 13.1787 0.467924 13.1938 0.467924C13.3453 0.483003 13.4967 0.528238 13.6027 0.648864C13.6179 0.694098 13.6482 0.67902 13.6785 0.67902C13.8602 0.739333 14.0268 0.784568 14.148 0.93535C14.1782 0.980585 14.2237 0.980585 14.254 0.995663C14.4963 1.10121 14.7083 1.23692 14.8749 1.44801C14.9052 1.47817 14.9052 1.47817 14.9204 1.47817Z" fill="#17CDC6"/>
</svg>
