<svg width="30" height="48" viewBox="0 0 30 48" fill="none" xmlns="http://www.w3.org/2000/svg">
<rect width="30.0004" height="47.2971" fill="black" fill-opacity="0"/>
<rect width="30.0004" height="47.2971" fill="black" fill-opacity="0"/>
<path d="M29.9999 43.1469C29.9225 43.1565 29.8983 43.089 29.8983 43.0407C29.8596 42.3505 29.4436 41.8293 29.1147 41.2743C27.8716 39.1845 26.6284 37.0996 25.3853 35.0098C23.6923 32.1672 21.9993 29.3293 20.3063 26.4867C19.9 25.8014 19.4791 25.1257 19.0825 24.4307C18.9954 24.2763 18.9471 24.1267 18.9471 23.9529C18.9471 20.5746 18.9471 17.1962 18.9471 13.8178C18.9471 13.4896 18.9858 13.451 19.3292 13.4462C19.6049 13.4414 19.8758 13.4559 20.1467 13.3979C21.1093 13.1856 21.7913 12.2783 21.6945 11.3275C21.593 10.314 20.79 9.55626 19.779 9.5273C19.4163 9.51765 19.0535 9.5273 18.6907 9.5273C15.4401 9.5273 12.1944 9.5273 8.94386 9.5273C7.95709 9.5273 7.17347 10.1595 6.97999 11.0958C6.73329 12.2927 7.62816 13.4124 8.85679 13.4462C9.02609 13.451 9.19539 13.4414 9.36469 13.451C9.50981 13.4607 9.58236 13.5331 9.59204 13.6779C9.59688 13.7744 9.59688 13.8709 9.59688 13.9674C9.59688 17.1769 9.59204 20.3863 9.60171 23.5958C9.60171 23.9819 9.52916 24.3245 9.34534 24.6769C8.82777 25.6662 8.31987 26.6653 7.80714 27.6595C6.86873 29.4934 5.92065 31.3226 4.98225 33.1517C4.40179 34.2811 3.82134 35.4152 3.23604 36.5397C2.25894 38.4172 1.30119 40.3042 0.324088 42.1816C0.222508 42.3795 0.188648 42.5919 0.145114 42.8042C0.120928 42.9104 0.154788 43.0552 0 43.0986C0.0145114 43.089 0.0386971 43.0841 0.0386971 43.0793C0.0532085 42.4857 0.348274 41.9982 0.609479 41.4915C3.56013 35.7772 6.50111 30.0629 9.44209 24.3535C9.50981 24.2184 9.53883 24.0881 9.53883 23.9433C9.54367 20.5504 9.5485 17.1576 9.56301 13.7599C9.56301 13.562 9.52432 13.4945 9.31632 13.5138C8.71652 13.5572 8.15057 13.4703 7.65235 13.0842C6.98482 12.563 6.70427 11.6508 6.97999 10.8352C7.25087 10.0341 8.01997 9.46456 8.86163 9.46456C12.504 9.45973 16.1464 9.45973 19.7936 9.46456C20.8094 9.46456 21.6849 10.2947 21.7719 11.3082C21.8638 12.3313 21.1431 13.2773 20.1467 13.4703C19.8226 13.5331 19.5033 13.5089 19.1841 13.5089C19.0438 13.5089 18.9906 13.5331 18.9906 13.6923C19.0051 17.1479 19.0099 20.6083 19.0148 24.0688C19.0148 24.1942 19.068 24.2811 19.126 24.3776C22.6378 30.2801 26.1544 36.1778 29.671 42.0754C29.8451 42.3698 29.8983 42.6835 29.9467 43.0117C29.9564 43.0552 29.9177 43.1227 29.9999 43.1469Z" fill="white"/>
<path d="M30 43.1478C29.9178 43.1237 29.9565 43.0561 29.9516 43.0078C29.9033 42.6845 29.85 42.3708 29.6759 42.0715C26.1545 36.1739 22.6427 30.2762 19.131 24.3737C19.0729 24.2772 19.0197 24.1903 19.0197 24.0648C19.0149 20.6044 19.01 17.1488 18.9955 13.6884C18.9955 13.5292 19.0439 13.505 19.189 13.505C19.5083 13.505 19.8323 13.5292 20.1516 13.4664C21.148 13.2734 21.8688 12.3226 21.7769 11.3043C21.6898 10.2859 20.8143 9.46065 19.7985 9.46065C16.1561 9.45582 12.5138 9.45582 8.86656 9.46065C8.02973 9.46065 7.25579 10.035 6.98491 10.8313C6.7092 11.6469 6.98975 12.5591 7.65728 13.0803C8.15066 13.4664 8.72145 13.5533 9.32125 13.5099C9.52925 13.4954 9.56794 13.5581 9.56794 13.756C9.55343 17.1488 9.5486 20.5417 9.54376 23.9394C9.54376 24.089 9.51474 24.2193 9.44702 24.3496C6.5012 30.0639 3.56022 35.7781 0.619245 41.4876C0.358039 41.9943 0.0629741 42.4818 0.0484627 43.0754C0.0484627 43.085 0.024277 43.0899 0.00976562 43.0947V43.1912C0.0484627 43.336 0.0484627 43.4808 0.00976562 43.6256V43.6739C0.0629741 43.8524 0.0291142 44.0406 0.0726484 44.2144C0.469293 45.7733 1.37384 46.8543 2.96042 47.2984H27.0493C27.1848 47.2453 27.3299 47.2453 27.4653 47.1922C28.3796 46.8157 29.0519 46.1787 29.5356 45.3244C29.8259 44.8128 29.9565 44.2578 30 43.6787V43.6304C29.9613 43.4856 29.9613 43.3408 30 43.1961V43.1478ZM28.3457 44.4605C28.0603 45.1121 27.5621 45.5657 26.9042 45.8408C26.7253 45.9132 26.5414 45.9518 26.3431 45.9518C22.5605 45.947 18.7827 45.947 15 45.947V45.9132C11.29 45.9132 7.58472 45.9036 3.87464 45.9229C3.09102 45.9277 2.51056 45.5899 2.04136 45.03C1.4996 44.3881 1.31095 43.6304 1.46091 42.8003C1.48509 42.6748 1.53346 42.559 1.59151 42.4432C4.66793 36.4297 7.73951 30.4162 10.8159 24.4027C10.8885 24.2627 10.9175 24.1228 10.9175 23.9635C10.9223 20.1122 10.9272 16.2608 10.9417 12.4047C10.9417 12.2116 10.9078 12.1489 10.6998 12.1537C10.1291 12.1682 9.55343 12.1585 8.98265 12.1585C8.54731 12.1585 8.23289 11.8738 8.22806 11.4877C8.22322 11.0967 8.53763 10.8072 8.97298 10.8072C12.5379 10.8072 16.0981 10.8072 19.663 10.8072C20.0984 10.8072 20.4128 11.0919 20.4128 11.4828C20.4128 11.8738 20.0984 12.1585 19.663 12.1585C19.0729 12.1585 18.4876 12.1682 17.8975 12.1537C17.733 12.1489 17.704 12.202 17.704 12.3564C17.7185 16.2415 17.733 20.1266 17.7427 24.0118C17.7427 24.1421 17.7862 24.2434 17.8491 24.3496C21.3077 30.2907 24.7614 36.2366 28.2344 42.1632C28.694 42.9403 28.6843 43.6883 28.3457 44.4605Z" fill="white"/>
<path d="M17.3262 0C17.7084 0.120656 18.0808 0.246138 18.3807 0.530886C19.0289 1.14382 19.2272 2.07046 18.8596 2.86679C18.5017 3.64864 17.6406 4.14574 16.8038 4.04921C15.9186 3.94786 15.1979 3.29632 15.0141 2.43725C14.7867 1.37065 15.4978 0.284748 16.5668 0.0530886C16.6103 0.0434361 16.6635 0.0579149 16.6926 0.00482624C16.9054 0 17.1182 0 17.3262 0Z" fill="white"/>
<path d="M0.00976562 43.1953C0.0871598 43.3401 0.0871598 43.4849 0.00976562 43.6297C0.00976562 43.4849 0.00976562 43.3401 0.00976562 43.1953Z" fill="white"/>
<path d="M30.0004 43.6297C29.923 43.4849 29.923 43.3401 30.0004 43.1953C30.0004 43.3401 30.0004 43.4849 30.0004 43.6297Z" fill="white"/>
<path d="M12.9393 6.08667C12.9393 6.84922 12.3443 7.43802 11.5801 7.43319C10.84 7.42836 10.2354 6.82508 10.2354 6.08667C10.2354 5.34343 10.8593 4.72567 11.6043 4.7305C12.3395 4.73532 12.9393 5.34343 12.9393 6.08667Z" fill="white"/>
<path d="M18.3564 7.42855C18.3612 8.18144 17.7759 8.7799 17.031 8.78955C16.2667 8.79438 15.6621 8.2104 15.6476 7.45268C15.6379 6.70944 16.2619 6.08203 17.0068 6.08203C17.7469 6.08203 18.3515 6.68531 18.3564 7.42855Z" fill="white"/>
<path d="M14.9571 44.6706C11.3244 44.6706 7.68684 44.6562 4.05416 44.6851C3.25119 44.6899 2.47725 43.6909 2.92227 42.8222C5.11349 38.5365 7.28052 34.2315 9.48142 29.9506C9.87323 29.1881 10.6036 28.7875 11.4308 28.6282C12.4853 28.4207 13.3415 28.884 14.1154 29.5356C14.4782 29.8396 14.8023 30.1919 15.1989 30.4574C16.5533 31.3551 18.019 31.2296 19.2041 30.1099C19.2669 30.0471 19.3395 29.9941 19.3927 29.9217C19.504 29.7624 19.5572 29.8348 19.6297 29.9603C20.9309 32.2334 22.2321 34.5066 23.5333 36.7797C24.6894 38.7971 25.8454 40.8097 26.9967 42.827C27.4465 43.6137 26.8274 44.6803 25.9132 44.6803C22.2563 44.6706 18.6091 44.6706 14.9571 44.6706Z" fill="white"/>
</svg>
