<svg width="21" height="24" viewBox="0 0 21 24" fill="none" xmlns="http://www.w3.org/2000/svg">
<rect width="21" height="23.0002" fill="black" fill-opacity="0"/>
<rect width="21" height="23.0002" fill="black" fill-opacity="0"/>
<path d="M9.39639 0.00234947C8.02881 0.0828815 6.43914 1.18732 5.49235 3.20062C4.93129 4.3971 4.95467 5.6511 5.14169 6.9166C5.38716 8.61928 5.94822 10.1839 7.11709 11.4839C8.21583 12.6919 9.56004 13.3362 11.2315 12.9335C12.5757 12.6114 13.4875 11.7025 14.2122 10.5981C15.1356 9.1715 15.4979 7.57236 15.6265 5.92721C15.872 2.53336 13.2303 -0.0896872 9.39639 0.00234947ZM13.0667 10.9202C11.4302 12.6919 9.06911 12.6459 7.49113 10.8167C6.43914 9.59717 5.93653 8.1591 5.77288 6.49093C6.04173 6.60598 6.21706 6.675 6.42745 6.76704C6.45083 6.03075 6.31057 5.34047 6.41577 4.6502C6.45083 4.4086 6.4859 4.1555 6.56772 3.92541C6.73136 3.49974 6.96514 3.31567 7.50282 3.52275C8.83533 4.05196 10.2146 4.30506 11.664 4.00594C12.003 3.93692 12.3653 3.85638 12.6459 3.66081C13.1017 3.32717 13.3238 3.47673 13.5342 3.92541C13.8966 4.69622 14.3407 5.44402 14.294 6.35288C14.5979 6.28385 14.633 5.9157 14.9602 5.86968C14.82 7.75644 14.3758 9.49363 13.0667 10.9202Z" fill="#24B574"/>
<path d="M20.9211 20.1946C20.7224 21.4141 20.0094 22.1849 18.8405 22.5761C18.3029 22.7487 17.7535 22.8752 17.1924 22.8867C17.169 22.9212 17.1574 22.9557 17.1807 22.9903C17.1574 22.9557 17.1457 22.9327 17.1574 22.9097C17.1574 22.8982 17.1574 22.8982 17.169 22.8867C17.169 22.8752 17.1807 22.8522 17.2041 22.8407C17.4496 22.6911 17.7301 22.7026 17.9989 22.6566C20.1847 22.277 20.9913 20.977 20.8978 18.9407C20.7575 15.938 18.5249 13.3954 15.556 12.7282C15.1001 12.6246 14.8196 12.6822 14.5741 13.1423C13.9546 14.2583 12.9143 15.0061 11.9676 15.8229C11.6636 16.0875 11.3247 16.3176 11.0091 16.5822C10.6818 16.8468 10.3779 16.8468 10.0623 16.5822C8.71808 15.4663 7.22193 14.4769 6.34527 12.9007C6.18163 12.6131 5.93616 12.6707 5.67901 12.7052C2.9906 13.1884 0.734673 15.4318 0.278812 18.1008C0.161924 18.7681 0.126858 19.4238 0.243745 20.1026C0.442454 21.3336 1.14378 22.0929 2.32434 22.4841C2.82696 22.6566 3.36464 22.6566 3.85557 22.8522C3.86726 22.8637 3.87894 22.8867 3.89063 22.8982C3.89063 22.9097 3.90232 22.9097 3.90232 22.9212C3.90232 22.9442 3.90232 22.9788 3.87895 23.0018C3.90232 22.9673 3.89063 22.9327 3.86726 22.8982C3.46984 22.8407 3.04904 22.8177 2.66332 22.7142C0.699606 22.231 -0.188738 20.8504 0.0333481 18.7106C0.348944 15.6388 2.42954 13.2919 5.45693 12.5786C5.93616 12.4636 6.27514 12.4176 6.56736 13.0158C7.08166 14.0397 8.04014 14.73 8.9051 15.4778C9.3259 15.8459 9.78176 16.1796 10.2142 16.5362C10.4013 16.6858 10.5532 16.7548 10.7753 16.5707C11.9676 15.6158 13.1832 14.684 14.1533 13.499C14.2352 13.3954 14.317 13.2804 14.3871 13.1769C14.8781 12.4291 14.8781 12.4291 15.7898 12.6476C19.1912 13.4415 21.4588 16.8008 20.9211 20.1946Z" fill="#24B574"/>
<path d="M15.8015 12.6359C14.8898 12.4173 14.8898 12.4173 14.3988 13.1651C14.3287 13.2802 14.2469 13.3837 14.1651 13.4873C13.1832 14.6722 11.9793 15.6041 10.787 16.559C10.5649 16.7316 10.413 16.674 10.226 16.5245C9.79347 16.1678 9.3493 15.8342 8.91682 15.4661C8.05185 14.7183 7.09337 14.028 6.57907 13.0041C6.27516 12.4058 5.94788 12.4519 5.46864 12.5669C2.42956 13.2917 0.348968 15.6386 0.0333716 18.7103C-0.188715 20.8502 0.69963 22.2307 2.63996 22.7139C3.03738 22.8175 3.44649 22.8405 3.8439 22.898C3.85559 22.9095 3.86728 22.9095 3.87897 22.921C4.0543 23.0016 4.2647 22.875 4.44003 23.0016H16.4794C16.6898 22.8635 16.9353 23.0016 17.1574 22.921C17.1691 22.921 17.1808 22.9095 17.1924 22.898C17.7652 22.8865 18.3029 22.76 18.8406 22.5874C20.0094 22.1962 20.7225 21.4139 20.9212 20.2059C21.4588 16.8006 19.1912 13.4412 15.8015 12.6359ZM16.0353 19.5042C16.0937 19.8493 15.9651 19.9528 15.5911 19.9643C15.1703 19.9758 15.1352 19.7688 15.182 19.4812C15.2521 19.0325 15.0885 18.8484 14.6209 18.9289C14.2703 18.9865 14.1066 18.8944 14.1066 18.4803C14.1183 18.1006 14.2469 18.0086 14.5742 18.0661C15.0417 18.1466 15.2638 17.9971 15.1703 17.5024C15.1119 17.1917 15.1703 17.0192 15.5794 17.0192C15.9534 17.0307 16.0703 17.1457 16.0119 17.4794C15.9301 17.9625 16.1171 18.1466 16.608 18.0661C16.9353 18.0086 17.1574 18.0891 17.0522 18.4803C17.1457 18.8484 16.9821 18.9865 16.6197 18.9289C16.1755 18.8484 15.9534 19.0095 16.0353 19.5042Z" fill="#24B574"/>
<path d="M9.39639 0.00234947C8.02881 0.0828815 6.43914 1.18732 5.49235 3.20062C4.93129 4.3971 4.95467 5.6511 5.14169 6.9166C5.38716 8.61928 5.94822 10.1839 7.11709 11.4839C8.21583 12.6919 9.56004 13.3362 11.2315 12.9335C12.5757 12.6114 13.4875 11.7025 14.2122 10.5981C15.1356 9.1715 15.4979 7.57236 15.6265 5.92721C15.872 2.53336 13.2303 -0.0896872 9.39639 0.00234947ZM13.0667 10.9202C11.4302 12.6919 9.06911 12.6459 7.49113 10.8167C6.43914 9.59717 5.93653 8.1591 5.77288 6.49093C6.04173 6.60598 6.21706 6.675 6.42745 6.76704C6.45083 6.03075 6.31057 5.34047 6.41577 4.6502C6.45083 4.4086 6.4859 4.1555 6.56772 3.92541C6.73136 3.49974 6.96514 3.31567 7.50282 3.52275C8.83533 4.05196 10.2146 4.30506 11.664 4.00594C12.003 3.93692 12.3653 3.85638 12.6459 3.66081C13.1017 3.32717 13.3238 3.47673 13.5342 3.92541C13.8966 4.69622 14.3407 5.44402 14.294 6.35288C14.5979 6.28385 14.633 5.9157 14.9602 5.86968C14.82 7.75644 14.3758 9.49363 13.0667 10.9202Z" fill="#24B574"/>
</svg>
