<svg width="30" height="30" viewBox="0 0 30 30" fill="none" xmlns="http://www.w3.org/2000/svg">
<rect width="30" height="30" fill="black" fill-opacity="0"/>
<path d="M29.9896 7.715C29.9896 7.6854 29.9896 7.6558 29.9956 7.62619C30.0015 7.58475 30.0015 7.53739 29.9956 7.49594C29.9896 7.47226 29.9896 7.44858 29.9896 7.42489C29.9896 7.37753 29.9837 7.33017 29.9778 7.2828C29.9778 7.27096 29.9719 7.26504 29.9719 7.2532C29.9719 7.24728 29.9719 7.24728 29.9719 7.24136C29.9305 7.05782 29.9482 6.86836 29.9246 6.68482C29.9186 6.66114 29.9127 6.63746 29.9068 6.6197C29.9009 6.59602 29.895 6.57825 29.895 6.55457C29.8891 6.51313 29.8832 6.4776 29.8772 6.43616C29.8772 6.43024 29.8772 6.42432 29.8713 6.4184C29.8713 6.40656 29.8713 6.40064 29.8654 6.3888C29.8358 6.1875 29.7767 5.99212 29.7293 5.79674C29.7175 5.76122 29.7057 5.72569 29.6938 5.69017C29.6879 5.66057 29.6761 5.63096 29.6702 5.60136C29.6583 5.554 29.6465 5.50663 29.6288 5.45927C29.6228 5.44743 29.6169 5.42966 29.6169 5.41782C29.5518 5.22837 29.4927 5.03891 29.4217 4.84945C29.4158 4.83169 29.4039 4.81393 29.398 4.79616C29.3862 4.77248 29.3744 4.7488 29.3625 4.72512C29.3448 4.68959 29.327 4.64815 29.3093 4.61263C29.3034 4.60079 29.3034 4.59487 29.2974 4.58302C29.2915 4.57118 29.2915 4.56526 29.2856 4.55934C29.2146 4.39357 29.1436 4.22187 29.0549 4.06794C29.043 4.05017 29.0253 4.02649 29.0135 4.00873L28.978 3.95544C28.9543 3.91992 28.9306 3.87848 28.907 3.84295C28.901 3.83111 28.8892 3.81927 28.8833 3.80151L28.8774 3.79559C28.7768 3.64166 28.694 3.4818 28.5816 3.33971C28.5697 3.32194 28.552 3.30418 28.5402 3.28642C28.5283 3.26866 28.5106 3.2509 28.4987 3.22722C28.4751 3.19169 28.4573 3.16209 28.4337 3.12657C28.4218 3.1088 28.4159 3.09696 28.4041 3.0792C28.2798 2.92527 28.1615 2.77133 28.0373 2.62332L27.9781 2.56411C27.9485 2.53451 27.9249 2.51083 27.8953 2.48122C27.8775 2.46346 27.8657 2.45162 27.8479 2.43386C27.8479 2.42794 27.842 2.42794 27.8361 2.42202C27.7 2.29177 27.5699 2.15559 27.4397 2.02534L27.4338 2.01942C27.4161 2.00166 27.4042 1.98982 27.3865 1.97206C27.3628 1.94837 27.3332 1.91877 27.3037 1.89509C27.2859 1.87733 27.2682 1.86549 27.2504 1.84772C27.2445 1.8418 27.2386 1.83588 27.2327 1.83588C27.0788 1.72339 26.9368 1.59906 26.7889 1.48657C26.7889 1.48657 26.7889 1.48657 26.783 1.48657C26.7653 1.47473 26.7475 1.46289 26.7298 1.45105C26.7002 1.43328 26.6706 1.4096 26.641 1.39184C26.6292 1.38592 26.6174 1.37408 26.6055 1.36816C26.5996 1.36224 26.5937 1.35632 26.5878 1.35632C26.4162 1.24975 26.2446 1.1491 26.0731 1.04845C26.0671 1.04845 26.0671 1.04253 26.0612 1.04253C26.0435 1.03069 26.0198 1.01885 26.0021 1.007C25.9666 0.983322 25.9311 0.96556 25.9015 0.941878C25.8778 0.930037 25.8601 0.918196 25.8364 0.906355C25.8246 0.900434 25.8068 0.888593 25.795 0.882673C25.6175 0.787943 25.4282 0.728738 25.2507 0.639929C25.2448 0.634009 25.2389 0.634009 25.233 0.628088C25.227 0.622168 25.2152 0.622168 25.2093 0.616247C25.1679 0.598485 25.1265 0.580724 25.085 0.568883C25.0614 0.557042 25.0318 0.551121 25.0081 0.53928C24.9904 0.533359 24.9726 0.521518 24.9549 0.515598C24.7537 0.450471 24.5585 0.379425 24.3514 0.320219C24.3455 0.320219 24.3396 0.314298 24.3337 0.314298C24.3278 0.314298 24.3159 0.308378 24.31 0.302457C24.2745 0.290616 24.239 0.278775 24.1976 0.272854C24.1562 0.266934 24.1207 0.255093 24.0793 0.249172C24.0319 0.237331 23.9846 0.231411 23.9373 0.207728C23.7835 0.172205 23.6356 0.12484 23.4758 0.12484C23.4522 0.12484 23.4285 0.11892 23.4048 0.112999C23.3871 0.112999 23.3693 0.107079 23.3516 0.107079C23.2983 0.0952376 23.251 0.089317 23.2037 0.0774759C23.18 0.0715554 23.1563 0.0715554 23.1327 0.0656348C23.1031 0.0597142 23.0735 0.0597142 23.0439 0.0597142C22.7954 0.0419525 22.5529 -0.00541196 22.3103 0.000508603C22.2866 0.000508603 22.263 0.000508603 22.2452 0.000508603C22.2393 0.000508603 22.2334 0.000508603 22.2275 0.000508603C22.192 0.000508603 22.1624 0.000508603 22.1269 0.000508603C22.0855 0.000508603 22.05 0.00642917 22.0086 0.00642917C21.9849 0.00642917 21.9672 0.00642917 21.9435 0.00642917C21.6299 0.0537937 21.3164 0.0656348 21.0028 0.12484C20.991 0.12484 20.9732 0.130761 20.9614 0.130761C20.9496 0.130761 20.9377 0.136682 20.9318 0.136682C20.8667 0.148523 20.8017 0.166284 20.7307 0.184046C20.7011 0.189967 20.6715 0.195887 20.636 0.201808C20.6183 0.201808 20.6064 0.207728 20.5887 0.207728C20.1627 0.308378 19.7486 0.43863 19.3463 0.604406C19.3285 0.610327 19.3108 0.616247 19.2989 0.622168C19.293 0.622168 19.2871 0.628088 19.2812 0.628088C19.1688 0.681373 19.0623 0.734658 18.9499 0.793864C18.8966 0.823467 18.8434 0.847149 18.7901 0.876752C18.7546 0.894514 18.7191 0.912275 18.6836 0.924116C17.95 1.30303 17.311 1.8122 16.7313 2.39242C12.1165 7.01045 7.50185 11.6285 2.88123 16.2406C2.08253 17.0399 1.31342 17.851 0.769117 18.8516C0.751368 18.8812 0.739536 18.9108 0.721787 18.9463C0.698122 18.9937 0.680373 19.041 0.656708 19.0884C0.603461 19.2068 0.556131 19.3252 0.502884 19.4436C0.496968 19.4614 0.485135 19.4792 0.479219 19.4969C0.473303 19.5088 0.467386 19.5206 0.46147 19.5324C0.354977 19.7989 0.266233 20.0653 0.183405 20.3376C0.0591629 20.7462 0.0769117 21.1665 0 21.581V23.2979C0.0591628 23.9196 0.130158 24.5353 0.384558 25.1215C0.390475 25.1392 0.402307 25.1629 0.408224 25.1807C0.41414 25.1984 0.425972 25.2162 0.431889 25.2339C0.449638 25.2695 0.467386 25.305 0.485135 25.3405C0.491052 25.3583 0.496968 25.3701 0.5088 25.382C0.5088 25.3879 0.514717 25.3879 0.514717 25.3938C0.591628 25.5892 0.674456 25.7727 0.769117 25.9622C0.775033 25.974 0.780949 25.9799 0.786866 25.9918C0.792782 26.0095 0.804615 26.0214 0.810531 26.0332C0.82828 26.0687 0.851945 26.1043 0.87561 26.1398C0.881526 26.1516 0.887443 26.1635 0.899275 26.1753C0.899275 26.1753 0.899275 26.1812 0.905191 26.1812C1.00577 26.347 1.0886 26.5246 1.20101 26.6845C1.20692 26.6963 1.21284 26.7022 1.21875 26.7082C1.23059 26.7259 1.24834 26.7437 1.26017 26.7615C1.28383 26.7911 1.3075 26.8207 1.33116 26.8503C1.343 26.8621 1.35483 26.8799 1.36075 26.8917C1.46132 27.0575 1.58556 27.2055 1.72164 27.3535C1.72756 27.3594 1.72756 27.3653 1.73347 27.3713C1.7453 27.389 1.76305 27.4068 1.77489 27.4246C1.79263 27.4542 1.8163 27.4778 1.83405 27.5074C1.83996 27.5193 1.8518 27.5252 1.85771 27.537C1.85771 27.537 1.86363 27.543 1.86363 27.5489C1.99379 27.6851 2.12986 27.8153 2.26002 27.9515C2.27185 27.9633 2.28369 27.9752 2.29552 27.987C2.30735 27.9988 2.3251 28.0166 2.33693 28.0285C2.3606 28.0521 2.39018 28.0817 2.41976 28.1054C2.42568 28.1113 2.43751 28.1232 2.44934 28.1291C2.45526 28.135 2.45526 28.135 2.46117 28.1409C2.62091 28.2534 2.7629 28.3837 2.92264 28.5021C2.92856 28.508 2.94039 28.5139 2.95223 28.5199C2.96406 28.5317 2.98181 28.5435 2.99364 28.5554C3.02914 28.5791 3.06464 28.6027 3.09422 28.6323C3.11197 28.6442 3.12971 28.662 3.14746 28.6738C3.15338 28.6797 3.1593 28.6856 3.16521 28.6916C3.3072 28.81 3.47878 28.8869 3.62668 28.9935C3.6326 28.9994 3.63852 28.9994 3.64443 29.0053C3.66218 29.0172 3.67993 29.0231 3.69768 29.0349C3.73909 29.0586 3.78051 29.0882 3.816 29.1119C3.83375 29.1238 3.8515 29.1356 3.86925 29.1474C3.88108 29.1534 3.887 29.1593 3.89883 29.1652C4.0704 29.254 4.24198 29.3428 4.41946 29.4198C4.41946 29.4198 4.41946 29.4198 4.42538 29.4198C4.44313 29.4257 4.46088 29.4316 4.47863 29.4375C4.52004 29.4553 4.55554 29.4731 4.59104 29.4908C4.60879 29.4968 4.62653 29.5086 4.64428 29.5145C4.66203 29.5264 4.67978 29.5323 4.69753 29.5441C5.33057 29.8342 6.00503 29.9408 6.6854 30H8.34196C8.95134 29.9408 9.56663 29.8994 10.1405 29.6625C10.1405 29.6625 10.1464 29.6625 10.1464 29.6566C10.1819 29.6448 10.2115 29.627 10.247 29.6152C10.318 29.5856 10.389 29.556 10.46 29.5264C10.5073 29.5086 10.5487 29.4849 10.5961 29.4671C10.6316 29.4553 10.6671 29.4375 10.7085 29.4198C11.6314 29.029 12.4124 28.4311 13.1164 27.7324C17.8258 23.0315 22.5233 18.3187 27.2327 13.6178C28.0609 12.7889 28.8005 11.9068 29.2856 10.8233C29.2974 10.7937 29.3093 10.7641 29.3211 10.7345C29.3389 10.6871 29.3566 10.6457 29.3744 10.5983C29.4158 10.4977 29.4572 10.397 29.4927 10.2964C29.5045 10.2727 29.5104 10.2431 29.5223 10.2194C29.5223 10.2135 29.5223 10.2135 29.5282 10.2076C29.6583 9.84641 29.7412 9.46749 29.824 9.08857C29.824 9.07081 29.8299 9.05305 29.8299 9.03529C29.8358 9.00568 29.8358 8.97608 29.8417 8.9524C29.8536 8.88727 29.8654 8.82215 29.8772 8.75702C29.8832 8.73926 29.8832 8.72742 29.8891 8.70966C29.8891 8.70374 29.8891 8.69782 29.8891 8.69189C29.9068 8.39587 29.966 8.09984 29.966 7.80381C29.9896 7.76829 29.9896 7.73868 29.9896 7.715ZM18.1867 19.8344C18.1512 19.864 18.1157 19.9054 18.0802 19.941C15.9326 22.0901 13.7909 24.2334 11.6492 26.3825C11.3593 26.6726 11.0575 26.9568 10.6907 27.1522C10.46 27.3417 10.1938 27.4778 9.91569 27.5785C9.50155 27.7916 9.06966 27.9337 8.60819 27.9752C8.60819 27.9692 8.60819 27.9633 8.60819 27.9515C8.51945 27.9929 8.41887 28.0048 8.31238 27.9929C8.29463 28.0048 8.27688 28.0166 8.25322 28.0225C7.96332 28.1054 7.66159 28.0936 7.36577 28.0758C7.2652 28.0817 7.1587 28.0936 7.06404 28.0344C6.79781 28.0403 6.54341 28.0107 6.29493 27.91C6.2121 27.91 6.12335 27.9219 6.05828 27.8508C5.82162 27.8272 5.60864 27.7383 5.39565 27.6318C5.28916 27.6022 5.18267 27.5726 5.09984 27.4956C4.92827 27.4482 4.78036 27.3535 4.63837 27.2469C4.54371 27.2114 4.45496 27.1641 4.38988 27.0812C4.21239 26.9924 4.05857 26.8739 3.9225 26.7259C3.83967 26.6845 3.78051 26.6253 3.72726 26.5542C3.56752 26.4417 3.43736 26.2996 3.32495 26.1398C3.24804 26.0924 3.19479 26.0332 3.1593 25.9503C3.01139 25.7905 2.87531 25.6188 2.78657 25.4234C2.72149 25.376 2.69191 25.3168 2.67416 25.2399C2.544 25.0623 2.44343 24.8669 2.37835 24.6478C2.34285 24.5708 2.30735 24.488 2.27185 24.411C2.18903 24.1978 2.10028 23.9906 2.08253 23.7597C2.04703 23.6828 2.00562 23.6117 2.02337 23.5229C1.96421 23.3394 1.93463 23.1499 1.94646 22.9545C1.88138 22.7947 1.89913 22.6289 1.90504 22.4572C1.88138 22.1138 1.92279 21.7823 1.9997 21.4507C2.00562 21.3323 1.99379 21.208 2.0707 21.1014C2.15944 20.5685 2.3606 20.0712 2.64458 19.6153C2.83982 19.2009 3.11788 18.8397 3.43736 18.52C5.65005 16.2998 7.86866 14.0855 10.0813 11.8594C10.2648 11.6759 10.3357 11.7706 10.4304 11.9186C10.5842 12.037 10.7203 12.1732 10.8386 12.3271C10.8978 12.3863 10.9629 12.4515 11.022 12.5107C11.1759 12.6291 11.3119 12.7652 11.4303 12.9192C11.5072 12.9665 11.5723 13.0257 11.6137 13.1027C11.7675 13.2211 11.9036 13.3573 12.0219 13.5112C12.0988 13.5586 12.1639 13.6178 12.2053 13.6948C12.3591 13.8132 12.4952 13.9494 12.6135 14.1033C12.6904 14.1507 12.7555 14.2099 12.7969 14.2868C12.9507 14.4052 13.0868 14.5414 13.2051 14.6953C13.2643 14.7546 13.3294 14.8197 13.3886 14.8789C13.5424 14.9973 13.6784 15.1335 13.7968 15.2874C13.8737 15.3348 13.9388 15.394 13.9802 15.4709C14.134 15.5894 14.2701 15.7255 14.3884 15.8795C14.4476 15.9387 14.5126 16.0038 14.5718 16.063C14.7256 16.1814 14.8617 16.3176 14.98 16.4715C15.0569 16.5189 15.122 16.5781 15.1634 16.6551C15.3173 16.7735 15.4533 16.9096 15.5717 17.0636C15.6486 17.1109 15.7137 17.1701 15.7551 17.2471C15.9089 17.3655 16.045 17.5017 16.1633 17.6556C16.2225 17.7148 16.2875 17.78 16.3467 17.8392C16.5005 17.9576 16.6366 18.0937 16.7549 18.2477L16.9383 18.4312C17.0744 18.5674 17.2105 18.7036 17.3465 18.8397C17.3525 18.8575 17.3525 18.8812 17.3525 18.8989C17.3939 18.9285 17.4294 18.9641 17.459 18.9996C17.4649 19.0055 17.4708 19.0114 17.4767 19.0174C17.4945 19.0174 17.5122 19.0233 17.5359 19.0292C17.6897 19.1476 17.8258 19.2838 17.9441 19.4377C18.021 19.4851 18.0861 19.5443 18.1275 19.6213C18.2399 19.6745 18.3109 19.7337 18.1867 19.8344ZM26.0317 5.30533C25.9547 5.49479 25.7654 5.68425 25.5761 5.76714C25.4164 5.83818 25.2211 5.68425 25.0495 5.60136C24.9608 5.60728 24.8839 5.5836 24.8129 5.53623C24.594 5.49479 24.381 5.45335 24.1621 5.4119C24.0438 5.39414 23.9255 5.37638 23.8071 5.35862C23.5113 5.35862 23.2155 5.35862 22.9197 5.35862C22.8014 5.37638 22.683 5.39414 22.5647 5.4119C22.1861 5.47111 21.8133 5.57768 21.4465 5.67833C21.269 5.74938 21.0916 5.82634 20.9081 5.89739C20.0799 6.31775 19.4232 6.94533 18.7783 7.59659C17.3939 8.99976 15.9917 10.3793 14.6073 11.7824C14.418 11.9719 14.2997 12.0193 14.1636 11.7587C14.0867 11.7173 14.0275 11.6581 13.9861 11.5811C13.8323 11.4627 13.6903 11.3206 13.572 11.1667C13.495 11.1252 13.4359 11.066 13.3945 10.9891C13.2406 10.8707 13.0987 10.7286 12.9803 10.5746C12.9034 10.5332 12.8443 10.474 12.8028 10.397C12.8206 10.2904 12.9093 10.2312 12.9744 10.1661C14.702 8.43731 16.4236 6.71443 18.1512 4.9797C18.2399 4.89089 18.3701 4.83761 18.4056 4.70736C18.7073 4.42909 19.0504 4.22187 19.4232 4.06794C19.8077 3.8548 20.21 3.70678 20.6478 3.64165C20.8017 3.57061 20.9732 3.55877 21.1389 3.54101C21.2276 3.53508 21.3164 3.52916 21.411 3.52324H22.0145C21.9908 3.50548 21.9435 3.49956 21.8784 3.50548C21.7364 3.5114 21.6004 3.49364 21.4584 3.5114C21.766 3.44628 22.0737 3.4522 22.3754 3.5114C22.3991 3.51732 22.4227 3.52324 22.4464 3.52324C22.6653 3.50548 22.8724 3.55877 23.0794 3.60021C23.2037 3.62981 23.3338 3.62981 23.4403 3.70086C23.6474 3.71862 23.8367 3.80151 24.0201 3.89032C24.1089 3.90808 24.1917 3.93768 24.2627 3.99689C24.4579 4.05609 24.6354 4.15082 24.8011 4.27516C24.8898 4.29884 24.9608 4.3462 25.0259 4.41133C25.2034 4.50014 25.3631 4.62447 25.5051 4.76656C25.5879 4.80209 25.6471 4.86129 25.7003 4.93826C25.8542 5.03891 26.0849 5.16916 26.0317 5.30533Z" fill="white"/>
</svg>
