<svg width="30" height="30" viewBox="0 0 30 30" fill="none" xmlns="http://www.w3.org/2000/svg">
<rect width="30" height="30" fill="black" fill-opacity="0"/>
<path d="M29.9821 26.6305C29.9282 20.1603 30 13.6901 29.9462 7.23786C29.7667 6.14456 29.0132 5.44557 28.116 5.06918C25.5502 3.99381 22.9486 3.06181 20.3648 2.02228C19.1986 1.53836 17.9785 1.16198 16.8122 0.660139C16.1483 0.355448 15.4306 -0.218086 14.6053 0.0866043C10.3349 1.71759 6.08254 3.38443 1.83014 5.06918C0.825359 5.48141 0.125598 6.2521 0 7.39917C0.0179426 14.0844 0 20.7876 0.0179426 27.4729C0.251196 28.8171 1.20215 29.767 2.5299 29.9821C3.66029 29.9821 4.79067 29.9821 5.92105 29.9821C13.0443 29.9821 20.1854 29.9642 27.3086 30C28.744 29.8387 29.7488 28.8529 30 27.3295V27.3116C30 27.0965 30 26.8635 29.9821 26.6305ZM21.7823 18.1171C21.7823 18.5652 21.3337 18.5114 21.0108 18.5114C19.9342 18.5293 18.8577 18.5114 17.799 18.5293C17.512 18.5293 17.2069 18.4576 16.9378 18.6189C16.9378 18.601 16.9019 18.5831 16.8481 18.5652C16.8122 18.5652 16.7763 18.5472 16.7404 18.5472C16.7225 20.1603 16.7045 21.7734 16.7045 23.3864C16.6328 23.4402 16.561 23.494 16.4713 23.5477C15.4845 23.727 14.4976 23.727 13.5108 23.5477C13.439 23.494 13.3672 23.4402 13.2775 23.3864C13.2596 21.7734 13.2416 20.1603 13.2416 18.5472C13.2057 18.5472 13.1699 18.5652 13.134 18.5652C13.134 18.601 13.116 18.6369 13.116 18.6727C12.2548 18.3859 11.3577 18.601 10.4964 18.5472C10.0478 18.5293 9.59928 18.5114 9.15072 18.5472C8.45096 18.601 8.07416 18.3859 8.18182 17.5973C8.28947 16.737 8.03828 15.8409 8.32536 14.9985C9.02512 14.7297 9.74282 14.9089 10.4605 14.891C11.3218 14.8551 12.1651 14.891 13.0263 14.873C13.3852 14.6759 13.2057 14.3533 13.2237 14.0844C13.2416 12.9553 13.2237 11.8441 13.2416 10.7149C13.2416 10.4819 13.1519 10.2131 13.3313 9.99799C14.4617 9.78292 15.5742 9.78292 16.6866 9.99799C16.9737 11.3243 16.7225 12.6685 16.8122 13.9948C16.8301 14.2995 16.6328 14.658 17.0096 14.873C18.3014 14.891 19.6112 14.873 20.9031 14.891C21.1722 14.891 21.4593 14.7834 21.6926 14.9806C21.9797 16.0022 21.7644 17.0596 21.7823 18.1171Z" fill="white"/>
</svg>
