<svg width="22" height="22" viewBox="0 0 22 22" fill="none" xmlns="http://www.w3.org/2000/svg">
<path d="M14.2752 19.9858C14.2523 18.8268 14.7106 17.7844 15.5255 16.9366C16.3528 16.0759 17.1678 15.2281 17.9951 14.3674C20.1056 12.1203 20.8863 9.5341 19.9951 6.52725C19.874 6.13898 19.9342 5.99917 20.2953 5.7778C21.3657 5.10133 21.8882 4.12066 21.6613 2.83974C21.462 1.6843 20.7411 0.917232 19.6138 0.624468C18.3599 0.309 17.2841 0.708325 16.5995 1.78042C16.2573 2.31647 15.9905 2.20832 15.5592 2.06562C13.302 1.35413 11.1778 1.63555 9.21341 2.98499C7.9079 3.88033 6.93739 5.1471 5.85076 6.27755C4.75229 7.44605 3.52037 8.23912 1.88475 8.37226C0.991606 8.45293 0.56839 9.35603 1.02497 10.1409C2.39622 12.5712 4.00357 14.833 5.91663 16.6225C8.03673 18.6851 10.2723 20.2161 12.7287 21.4404C12.996 21.5737 13.2272 21.796 13.5107 21.4753C13.855 21.04 14.2768 20.7041 14.2752 19.9858ZM18.3669 3.85001C17.9934 3.44153 17.2064 3.15464 17.9226 2.40957C18.3918 1.92142 19.3872 1.91434 19.8507 2.40926C20.3522 2.91603 20.3326 3.83636 19.8129 4.3255C19.3551 4.75042 19.2029 4.70302 18.3669 3.85001Z" fill="white"/>
</svg>
