<svg width="18" height="18" viewBox="0 0 18 18" fill="none" xmlns="http://www.w3.org/2000/svg">
<rect width="18" height="18" fill="black" fill-opacity="0"/>
<path d="M17.9938 4.629C17.9938 4.61124 17.9938 4.59348 17.9973 4.57572C18.0009 4.55085 18.0009 4.52243 17.9973 4.49756C17.9938 4.48336 17.9938 4.46915 17.9938 4.45494C17.9938 4.42652 17.9902 4.3981 17.9867 4.36968C17.9867 4.36258 17.9831 4.35902 17.9831 4.35192C17.9831 4.34837 17.9831 4.34837 17.9831 4.34481C17.9583 4.23469 17.9689 4.12102 17.9547 4.01089C17.9512 3.99669 17.9476 3.98248 17.9441 3.97182C17.9405 3.95761 17.937 3.94695 17.937 3.93274C17.9334 3.90788 17.9299 3.88656 17.9263 3.8617C17.9263 3.85814 17.9263 3.85459 17.9228 3.85104C17.9228 3.84393 17.9228 3.84038 17.9192 3.83328C17.9015 3.7125 17.866 3.59527 17.8376 3.47804C17.8305 3.45673 17.8234 3.43542 17.8163 3.4141C17.8127 3.39634 17.8056 3.37858 17.8021 3.36082C17.795 3.3324 17.7879 3.30398 17.7773 3.27556C17.7737 3.26846 17.7702 3.2578 17.7702 3.25069C17.7311 3.13702 17.6956 3.02334 17.653 2.90967C17.6495 2.89901 17.6424 2.88836 17.6388 2.8777C17.6317 2.86349 17.6246 2.84928 17.6175 2.83507C17.6069 2.81376 17.5962 2.78889 17.5856 2.76758C17.582 2.76047 17.582 2.75692 17.5785 2.74981C17.5749 2.74271 17.5749 2.73916 17.5714 2.73561C17.5288 2.63614 17.4862 2.53312 17.4329 2.44076C17.4258 2.4301 17.4152 2.41589 17.4081 2.40524L17.3868 2.37327C17.3726 2.35195 17.3584 2.32709 17.3442 2.30577C17.3406 2.29867 17.3335 2.29156 17.33 2.28091L17.3264 2.27735C17.2661 2.18499 17.2164 2.08908 17.1489 2.00382C17.1418 1.99317 17.1312 1.98251 17.1241 1.97185C17.117 1.9612 17.1063 1.95054 17.0992 1.93633C17.085 1.91502 17.0744 1.89725 17.0602 1.87594C17.0531 1.86528 17.0495 1.85818 17.0424 1.84752C16.9679 1.75516 16.8969 1.6628 16.8224 1.57399L16.7869 1.53847C16.7691 1.52071 16.7549 1.5065 16.7372 1.48873C16.7265 1.47808 16.7194 1.47097 16.7088 1.46032C16.7088 1.45676 16.7052 1.45676 16.7017 1.45321C16.62 1.37506 16.5419 1.29336 16.4638 1.2152L16.4603 1.21165C16.4496 1.201 16.4425 1.19389 16.4319 1.18323C16.4177 1.16902 16.3999 1.15126 16.3822 1.13705C16.3715 1.1264 16.3609 1.11929 16.3502 1.10863C16.3467 1.10508 16.3431 1.10153 16.3396 1.10153C16.2473 1.03404 16.1621 0.959436 16.0734 0.891942C16.0734 0.891942 16.0734 0.891942 16.0698 0.891942C16.0592 0.884837 16.0485 0.877733 16.0379 0.870628C16.0201 0.859971 16.0024 0.845762 15.9846 0.835105C15.9775 0.831552 15.9704 0.824447 15.9633 0.820895C15.9598 0.817343 15.9562 0.813791 15.9527 0.813791C15.8497 0.749848 15.7468 0.689459 15.6438 0.629069C15.6403 0.629069 15.6403 0.625517 15.6367 0.625517C15.6261 0.618412 15.6119 0.611307 15.6012 0.604203C15.5799 0.589993 15.5586 0.579336 15.5409 0.565127C15.5267 0.558022 15.516 0.550918 15.5018 0.543813C15.4947 0.54026 15.4841 0.533156 15.477 0.529603C15.3705 0.472766 15.2569 0.437243 15.1504 0.383958C15.1469 0.380405 15.1433 0.380405 15.1398 0.376853C15.1362 0.373301 15.1291 0.373301 15.1256 0.369748C15.1007 0.359091 15.0759 0.348434 15.051 0.34133C15.0368 0.334225 15.0191 0.330673 15.0049 0.323568C14.9942 0.320016 14.9836 0.312911 14.9729 0.309359C14.8522 0.270283 14.7351 0.227655 14.6109 0.192131C14.6073 0.192131 14.6038 0.188579 14.6002 0.188579C14.5967 0.188579 14.5896 0.185027 14.586 0.181474C14.5647 0.17437 14.5434 0.167265 14.5186 0.163713C14.4937 0.16016 14.4724 0.153056 14.4476 0.149503C14.4192 0.142399 14.3908 0.138846 14.3624 0.124637C14.2701 0.103323 14.1813 0.0749042 14.0855 0.0749042C14.0713 0.0749042 14.0571 0.0713519 14.0429 0.0677996C14.0322 0.0677996 14.0216 0.0642472 14.0109 0.0642472C13.979 0.0571426 13.9506 0.0535902 13.9222 0.0464856C13.908 0.0429332 13.8938 0.0429332 13.8796 0.0393809C13.8619 0.0358285 13.8441 0.0358285 13.8264 0.0358285C13.6773 0.0251715 13.5317 -0.00324718 13.3862 0.000305162C13.372 0.000305162 13.3578 0.000305162 13.3471 0.000305162C13.3436 0.000305162 13.34 0.000305162 13.3365 0.000305162C13.3152 0.000305162 13.2974 0.000305162 13.2761 0.000305162C13.2513 0.000305162 13.23 0.0038575 13.2051 0.0038575C13.1909 0.0038575 13.1803 0.0038575 13.1661 0.0038575C12.978 0.0322762 12.7898 0.0393809 12.6017 0.0749042C12.5946 0.0749042 12.5839 0.0784566 12.5768 0.0784566C12.5697 0.0784566 12.5626 0.0820089 12.5591 0.0820089C12.52 0.0891136 12.481 0.0997706 12.4384 0.110428C12.4206 0.11398 12.4029 0.117532 12.3816 0.121085C12.371 0.121085 12.3639 0.124637 12.3532 0.124637C12.0976 0.185027 11.8491 0.263178 11.6077 0.362644C11.5971 0.366196 11.5865 0.369748 11.5794 0.373301C11.5758 0.373301 11.5723 0.376853 11.5687 0.376853C11.5013 0.408824 11.4374 0.440795 11.3699 0.476318C11.338 0.49408 11.306 0.508289 11.2741 0.526051C11.2528 0.536708 11.2315 0.547365 11.2102 0.55447C10.77 0.781819 10.3866 1.08732 10.0388 1.43545C7.26993 4.20627 4.50111 6.9771 1.72874 9.74437C1.24952 10.2239 0.788049 10.7106 0.46147 11.3109C0.450821 11.3287 0.443721 11.3465 0.433072 11.3678C0.418873 11.3962 0.408224 11.4246 0.394025 11.453C0.362077 11.5241 0.333678 11.5951 0.301731 11.6662C0.298181 11.6768 0.291081 11.6875 0.287531 11.6982C0.283982 11.7053 0.280432 11.7124 0.276882 11.7195C0.212986 11.8793 0.15974 12.0392 0.110043 12.2026C0.0354977 12.4477 0.046147 12.6999 0 12.9486V13.9788C0.0354977 14.3517 0.0780949 14.7212 0.230735 15.0729C0.234285 15.0835 0.241384 15.0977 0.244934 15.1084C0.248484 15.1191 0.255583 15.1297 0.259133 15.1404C0.269783 15.1617 0.280432 15.183 0.291081 15.2043C0.294631 15.215 0.298181 15.2221 0.30528 15.2292C0.30528 15.2327 0.30883 15.2327 0.30883 15.2363C0.354977 15.3535 0.404674 15.4636 0.46147 15.5773C0.46502 15.5844 0.46857 15.588 0.472119 15.5951C0.475669 15.6057 0.482769 15.6128 0.486319 15.6199C0.496968 15.6412 0.511167 15.6626 0.525366 15.6839C0.528916 15.691 0.532466 15.6981 0.539565 15.7052C0.539565 15.7052 0.539565 15.7087 0.543115 15.7087C0.603461 15.8082 0.653158 15.9148 0.720603 16.0107C0.724153 16.0178 0.727703 16.0213 0.731253 16.0249C0.738352 16.0356 0.749002 16.0462 0.756101 16.0569C0.7703 16.0746 0.784499 16.0924 0.798698 16.1102C0.805798 16.1173 0.812898 16.1279 0.816447 16.135C0.876793 16.2345 0.951339 16.3233 1.03298 16.4121C1.03653 16.4157 1.03653 16.4192 1.04008 16.4228C1.04718 16.4334 1.05783 16.4441 1.06493 16.4547C1.07558 16.4725 1.08978 16.4867 1.10043 16.5045C1.10398 16.5116 1.11108 16.5151 1.11463 16.5222C1.11463 16.5222 1.11818 16.5258 1.11818 16.5293C1.19627 16.611 1.27792 16.6892 1.35601 16.7709C1.36311 16.778 1.37021 16.7851 1.37731 16.7922C1.38441 16.7993 1.39506 16.81 1.40216 16.8171C1.41636 16.8313 1.43411 16.849 1.45186 16.8633C1.45541 16.8668 1.46251 16.8739 1.46961 16.8775C1.47315 16.881 1.47315 16.881 1.4767 16.8846C1.57255 16.9521 1.65774 17.0302 1.75359 17.1013C1.75714 17.1048 1.76424 17.1084 1.77134 17.1119C1.77844 17.119 1.78908 17.1261 1.79618 17.1332C1.81748 17.1474 1.83878 17.1616 1.85653 17.1794C1.86718 17.1865 1.87783 17.1972 1.88848 17.2043C1.89203 17.2078 1.89558 17.2114 1.89913 17.2149C1.98432 17.286 2.08727 17.3322 2.17601 17.3961C2.17956 17.3997 2.18311 17.3997 2.18666 17.4032C2.19731 17.4103 2.20796 17.4139 2.21861 17.421C2.24346 17.4352 2.2683 17.4529 2.2896 17.4671C2.30025 17.4743 2.3109 17.4814 2.32155 17.4885C2.32865 17.492 2.3322 17.4956 2.3393 17.4991C2.44224 17.5524 2.54519 17.6057 2.65168 17.6519C2.65168 17.6519 2.65168 17.6519 2.65523 17.6519C2.66588 17.6554 2.67653 17.659 2.68718 17.6625C2.71202 17.6732 2.73332 17.6838 2.75462 17.6945C2.76527 17.6981 2.77592 17.7052 2.78657 17.7087C2.79722 17.7158 2.80787 17.7194 2.81852 17.7265C3.19834 17.9005 3.60302 17.9645 4.01124 18H5.00518C5.3708 17.9645 5.73998 17.9396 6.08431 17.7975C6.08431 17.7975 6.08786 17.7975 6.08786 17.794C6.10916 17.7869 6.1269 17.7762 6.1482 17.7691C6.1908 17.7513 6.2334 17.7336 6.27599 17.7158C6.30439 17.7052 6.32924 17.6909 6.35764 17.6803C6.37894 17.6732 6.40024 17.6625 6.42509 17.6519C6.97885 17.4174 7.44742 17.0586 7.86984 16.6395C10.6955 13.8189 13.514 10.9912 16.3396 8.17068C16.8366 7.67335 17.2803 7.14406 17.5714 6.49398C17.5785 6.47622 17.5856 6.45846 17.5927 6.44069C17.6033 6.41227 17.614 6.38741 17.6246 6.35899C17.6495 6.2986 17.6743 6.23821 17.6956 6.17782C17.7027 6.16361 17.7063 6.14585 17.7134 6.13164C17.7134 6.12809 17.7134 6.12809 17.7169 6.12454C17.795 5.90784 17.8447 5.68049 17.8944 5.45314C17.8944 5.44249 17.8979 5.43183 17.8979 5.42117C17.9015 5.40341 17.9015 5.38565 17.905 5.37144C17.9121 5.33236 17.9192 5.29329 17.9263 5.25421C17.9299 5.24356 17.9299 5.23645 17.9334 5.22579C17.9334 5.22224 17.9334 5.21869 17.9334 5.21514C17.9441 5.03752 17.9796 4.8599 17.9796 4.68229C17.9938 4.66097 17.9938 4.64321 17.9938 4.629ZM10.912 11.9006C10.8907 11.9184 10.8694 11.9433 10.8481 11.9646C9.55953 13.2541 8.27452 14.54 6.9895 15.8295C6.81556 16.0036 6.63452 16.1741 6.41444 16.2913C6.27599 16.405 6.11625 16.4867 5.94942 16.5471C5.70093 16.675 5.4418 16.7602 5.16492 16.7851C5.16492 16.7815 5.16492 16.778 5.16492 16.7709C5.11167 16.7958 5.05132 16.8029 4.98743 16.7958C4.97678 16.8029 4.96613 16.81 4.95193 16.8135C4.77799 16.8633 4.59695 16.8561 4.41946 16.8455C4.35912 16.849 4.29522 16.8561 4.23843 16.8206C4.07869 16.8242 3.92605 16.8064 3.77696 16.746C3.72726 16.746 3.67401 16.7531 3.63497 16.7105C3.49297 16.6963 3.36518 16.643 3.23739 16.5791C3.1735 16.5613 3.1096 16.5435 3.0599 16.4974C2.95696 16.4689 2.86821 16.4121 2.78302 16.3482C2.72622 16.3268 2.67298 16.2984 2.63393 16.2487C2.52744 16.1954 2.43514 16.1244 2.3535 16.0356C2.3038 16.0107 2.2683 15.9752 2.23636 15.9325C2.14051 15.865 2.06242 15.7798 1.99497 15.6839C1.94882 15.6555 1.91688 15.6199 1.89558 15.5702C1.80683 15.4743 1.72519 15.3713 1.67194 15.254C1.63289 15.2256 1.61515 15.1901 1.6045 15.1439C1.5264 15.0374 1.46606 14.9201 1.42701 14.7887C1.40571 14.7425 1.38441 14.6928 1.36311 14.6466C1.31342 14.5187 1.26017 14.3944 1.24952 14.2558C1.22822 14.2097 1.20337 14.167 1.21402 14.1137C1.17852 14.0036 1.16078 13.8899 1.16787 13.7727C1.12883 13.6768 1.13948 13.5773 1.14303 13.4743C1.12883 13.2683 1.15368 13.0694 1.19982 12.8704C1.20337 12.7994 1.19627 12.7248 1.24242 12.6608C1.29567 12.3411 1.41636 12.0427 1.58675 11.7692C1.70389 11.5205 1.87073 11.3038 2.06242 11.112C3.39003 9.77989 4.72119 8.45132 6.04881 7.11564C6.15885 7.00552 6.20145 7.06235 6.25825 7.15116C6.35054 7.22221 6.43218 7.30391 6.50318 7.39627C6.53868 7.4318 6.57772 7.47087 6.61322 7.50639C6.70552 7.57744 6.78716 7.65914 6.85816 7.75151C6.9043 7.77992 6.94335 7.81545 6.9682 7.86163C7.06049 7.93268 7.14214 8.01438 7.21313 8.10674C7.25928 8.13516 7.29833 8.17068 7.32318 8.21686C7.41547 8.28791 7.49712 8.36961 7.56811 8.46197C7.61426 8.49039 7.65331 8.52592 7.67815 8.5721C7.77045 8.64314 7.85209 8.72485 7.92309 8.81721C7.95859 8.85273 7.99763 8.89181 8.03313 8.92733C8.12542 8.99838 8.20707 9.08008 8.27806 9.17244C8.32421 9.20086 8.36326 9.23638 8.38811 9.28256C8.4804 9.35361 8.56205 9.43531 8.63304 9.52767C8.66854 9.5632 8.70759 9.60227 8.74308 9.6378C8.83538 9.70884 8.91702 9.79055 8.98802 9.88291C9.03417 9.91133 9.07321 9.94685 9.09806 9.99303C9.19036 10.0641 9.272 10.1458 9.343 10.2381C9.38914 10.2666 9.42819 10.3021 9.45304 10.3483C9.54533 10.4193 9.62698 10.501 9.69797 10.5934C9.73347 10.6289 9.77252 10.668 9.80802 10.7035C9.90031 10.7745 9.98195 10.8562 10.0529 10.9486L10.163 11.0587C10.2446 11.1404 10.3263 11.2221 10.4079 11.3038C10.4115 11.3145 10.4115 11.3287 10.4115 11.3394C10.4363 11.3571 10.4576 11.3784 10.4754 11.3998C10.4789 11.4033 10.4825 11.4069 10.486 11.4104C10.4967 11.4104 10.5073 11.414 10.5215 11.4175C10.6138 11.4886 10.6955 11.5703 10.7665 11.6626C10.8126 11.691 10.8516 11.7266 10.8765 11.7728C10.9439 11.8047 10.9865 11.8402 10.912 11.9006ZM15.619 3.1832C15.5728 3.29687 15.4593 3.41055 15.3457 3.46028C15.2498 3.50291 15.1327 3.41055 15.0297 3.36082C14.9765 3.36437 14.9303 3.35016 14.8877 3.32174C14.7564 3.29687 14.6286 3.27201 14.4973 3.24714C14.4263 3.23648 14.3553 3.22583 14.2843 3.21517C14.1068 3.21517 13.9293 3.21517 13.7518 3.21517C13.6808 3.22583 13.6098 3.23648 13.5388 3.24714C13.3116 3.28267 13.088 3.34661 12.8679 3.407C12.7614 3.44963 12.6549 3.49581 12.5449 3.53843C12.0479 3.79065 11.6539 4.1672 11.267 4.55795C10.4363 5.39986 9.59503 6.22755 8.76438 7.06946C8.65079 7.18313 8.5798 7.21155 8.49815 7.05525C8.452 7.03038 8.41651 6.99486 8.39166 6.94868C8.29936 6.87763 8.21417 6.79238 8.14317 6.70001C8.09703 6.67515 8.06153 6.63962 8.03668 6.59344C7.94439 6.5224 7.85919 6.43714 7.7882 6.34478C7.74205 6.31991 7.70655 6.28439 7.6817 6.23821C7.69235 6.17427 7.7456 6.13874 7.78465 6.09967C8.82118 5.06239 9.85416 4.02866 10.8907 2.98782C10.9439 2.93454 11.022 2.90257 11.0433 2.82441C11.2244 2.65745 11.4303 2.53312 11.6539 2.44076C11.8846 2.31288 12.126 2.22407 12.3887 2.18499C12.481 2.14236 12.5839 2.13526 12.6833 2.1246C12.7366 2.12105 12.7898 2.1175 12.8466 2.11395H13.2087C13.1945 2.10329 13.1661 2.09974 13.1271 2.10329C13.0419 2.10684 12.9602 2.09618 12.875 2.10684C13.0596 2.06777 13.2442 2.07132 13.4252 2.10684C13.4394 2.11039 13.4536 2.11395 13.4678 2.11395C13.5992 2.10329 13.7234 2.13526 13.8477 2.16013C13.9222 2.17789 14.0003 2.17789 14.0642 2.22052C14.1884 2.23117 14.302 2.28091 14.4121 2.33419C14.4653 2.34485 14.515 2.36261 14.5576 2.39813C14.6748 2.43366 14.7812 2.49049 14.8806 2.56509C14.9339 2.5793 14.9765 2.60772 15.0155 2.6468C15.122 2.70008 15.2179 2.77468 15.3031 2.85994C15.3528 2.88125 15.3883 2.91677 15.4202 2.96295C15.5125 3.02334 15.6509 3.1015 15.619 3.1832Z" fill="#246FB5"/>
</svg>
