<svg width="28" height="31" viewBox="0 0 28 31" fill="none" xmlns="http://www.w3.org/2000/svg">
<rect width="27.5502" height="30.0024" fill="#9A4949" fill-opacity="0"/>
<path d="M20.5799 16.5132C20.8644 16.5886 21.0351 16.8147 21.2058 17.0409C21.642 17.6439 21.8127 18.36 21.9075 19.0949C21.9265 19.2645 21.9834 19.453 21.9265 19.6037C21.8696 19.7545 21.642 19.7356 21.4903 19.811C20.561 20.2821 20.0868 21.2809 20.3144 22.2608C20.542 23.2407 21.4334 23.9568 22.4575 23.9756C23.5386 23.9945 24.4679 23.203 24.6765 22.0535C24.8472 21.0736 24.1834 20.0183 23.1782 19.6979C22.9886 19.6414 22.9696 19.5472 22.9507 19.3776C22.9127 18.6615 22.78 17.9642 22.5144 17.2858C22.5903 17.2481 22.6662 17.2858 22.742 17.3235C25.2266 18.6992 26.8007 20.7721 27.3697 23.5611C27.5973 24.6163 27.6162 25.6905 27.3887 26.7646C27.0852 28.2157 26.1748 29.1013 24.7714 29.5348C23.9179 29.7986 23.0265 29.8928 22.1351 29.9493C20.2575 30.0436 18.3799 29.987 16.5212 29.987C13.3729 29.987 10.2056 29.987 7.05728 29.987C6.50727 29.987 5.95726 29.9682 5.40725 29.9493C5.33139 29.9493 5.23656 29.9493 5.1607 29.9305C4.87621 29.8928 4.57275 29.9682 4.2693 29.8363C4.17447 29.7986 4.07964 29.874 4.00378 29.7986C3.64343 29.8174 3.28308 29.7421 2.96066 29.5725C2.90376 29.5536 2.84686 29.5725 2.80893 29.5159C2.75203 29.4782 2.6572 29.5159 2.60031 29.4405L2.58134 29.4217H2.56237C2.42961 29.4029 2.29685 29.3652 2.20202 29.2521C2.12616 29.2144 2.0503 29.1767 1.9934 29.139C1.70891 29.0448 1.48132 28.8752 1.31063 28.6491C1.25373 28.6302 1.2158 28.5737 1.17787 28.5172C1.13994 28.4795 1.12097 28.4606 1.08304 28.4229C1.00718 28.3664 0.931312 28.291 0.912347 28.1968C0.893381 28.1591 0.874415 28.1403 0.855449 28.1026C0.722688 27.9895 0.627859 27.8199 0.589927 27.6503C0.589927 27.6315 0.589927 27.6126 0.570961 27.6126C0.495098 27.5938 0.514064 27.5184 0.495098 27.4619C0.495098 27.443 0.495098 27.443 0.476132 27.4242C0.457166 27.4242 0.4382 27.4053 0.4382 27.3865C0.286474 26.9908 0.115781 26.595 0.153713 26.1428C0.153713 26.1051 0.153713 26.0862 0.153713 26.0485C0.00198609 25.9732 0.00198609 25.8036 0.00198609 25.6716C-0.0169797 24.541 0.0968153 23.448 0.476132 22.3739C0.608893 21.997 0.779586 21.6389 0.931312 21.2809C0.969244 21.2055 1.00718 21.1301 1.08304 21.0924C1.102 21.0924 1.102 21.0736 1.102 21.0736C1.2158 20.7344 1.38649 20.4517 1.63305 20.1879C1.70891 20.0937 1.76581 20.0183 1.84167 19.9241C1.8796 19.811 1.9365 19.7168 2.0503 19.6414C2.12616 19.566 2.14513 19.453 2.23996 19.4153C2.27789 19.3399 2.31582 19.2834 2.39168 19.2645C2.44858 19.1891 2.50548 19.1326 2.56237 19.0572C2.7141 18.8688 2.84686 18.6615 3.09342 18.5673C3.15032 18.5296 3.18825 18.473 3.24515 18.4353C3.5486 18.1715 3.81412 17.87 4.2124 17.7381C4.2693 17.7004 4.3262 17.6627 4.3831 17.625C4.53482 17.4554 4.72448 17.3801 4.9331 17.3235C4.97104 17.3047 5.00897 17.3047 5.02793 17.3424C5.0469 17.3801 5.0469 17.3989 5.00897 17.4177C4.9331 17.8323 4.81931 18.2469 4.76241 18.6615C4.76241 18.718 4.74345 18.7745 4.70551 18.8311C4.66758 18.963 4.66758 19.1138 4.70551 19.2457C4.74345 19.3587 4.74345 19.4718 4.64862 19.566C4.59172 19.6226 4.55379 19.6791 4.49689 19.7356C4.47792 19.811 4.40206 19.8487 4.34516 19.8864C4.30723 19.9241 4.25033 19.9618 4.25033 20.0183C4.2124 20.0748 4.23137 20.169 4.13654 20.1879C4.06068 20.1879 4.02274 20.2256 3.96585 20.2821C3.83309 20.3952 3.71929 20.5459 3.52963 20.6025H3.51067V20.6213C3.30204 20.8663 3.11238 21.1113 2.88479 21.3374C2.84686 21.3939 2.78996 21.4316 2.771 21.4882C2.7141 21.6954 2.60031 21.8651 2.46755 22.0158H2.44858V22.0347C2.37272 22.2985 2.25892 22.5435 2.27789 22.8261C2.27789 22.9015 2.25892 22.958 2.18306 22.9957C2.10719 23.1465 2.0503 23.3161 2.03133 23.4857C2.03133 23.7872 1.9365 24.0887 1.89857 24.3902C1.82271 25.0309 1.84167 25.6716 1.95547 26.3124C1.97443 26.4443 2.08823 26.5385 2.10719 26.6516C2.10719 26.7269 2.14513 26.7458 2.20202 26.7835C2.23996 26.8023 2.27789 26.8212 2.29685 26.8588C2.33478 26.8777 2.35375 26.8965 2.39168 26.9154C2.50548 26.9531 2.63824 26.9531 2.7141 27.0661C2.86583 27.0661 3.01755 27.1038 3.15032 27.1792C3.24515 27.2357 3.35894 27.2357 3.45377 27.2169C3.73826 27.2169 4.00378 27.2357 4.28827 27.198C4.30723 27.1792 4.34516 27.1604 4.36413 27.1415C4.42103 27.0473 4.51586 26.9719 4.55379 26.8588C4.70551 26.5196 4.55379 26.1804 4.19344 26.0862C3.98481 26.0108 3.75722 26.0485 3.5486 26.0297C3.4348 26.0297 3.33997 26.0485 3.22618 26.0108C3.15032 26.0108 3.09342 26.0108 3.01755 26.0108C2.96066 25.9732 2.96066 25.9355 2.96066 25.8789C2.96066 25.8412 2.96066 25.8224 2.96066 25.7847C2.80893 25.3513 2.80893 24.9179 2.96066 24.4656C2.96066 24.4279 2.96066 24.3902 2.97962 24.3525C2.96066 24.1641 2.99859 23.9756 3.09342 23.7872C3.09342 23.7495 3.11238 23.7307 3.11238 23.693C3.09342 23.6553 3.11238 23.6176 3.13135 23.5987C3.13135 23.5422 3.13135 23.4857 3.15032 23.4291C3.22618 23.3726 3.20721 23.2595 3.28308 23.203C3.39687 23.0899 3.51067 22.9392 3.64343 22.845C3.66239 22.8261 3.66239 22.8261 3.66239 22.8073C3.68136 22.7131 3.68136 22.6188 3.79515 22.5811C3.81412 22.5811 3.81412 22.5623 3.81412 22.5435C3.90895 22.2419 4.11757 21.997 4.36413 21.7897C4.40206 21.752 4.43999 21.7143 4.49689 21.6766C4.61069 21.507 4.76241 21.3939 4.97104 21.3751H4.99L5.00897 21.3562C5.14173 21.2809 5.27449 21.262 5.40725 21.3751C5.42622 21.4128 5.46415 21.3939 5.50208 21.4128C5.90036 21.507 6.09002 21.8274 6.31761 22.1289C6.37451 22.2043 6.43141 22.2796 6.45037 22.3927C6.43141 22.4492 6.4883 22.4869 6.50727 22.5058C6.71589 22.7319 6.86762 23.0146 7.05728 23.2595C7.11418 23.3349 7.13314 23.448 7.13314 23.5611C7.20901 23.6553 7.20901 23.7872 7.22797 23.9003C7.22797 23.9945 7.24694 24.0699 7.28487 24.1641C7.47453 24.5033 7.4366 24.8613 7.41763 25.2194C7.41763 25.3324 7.3797 25.4455 7.41763 25.5774C7.45556 25.6905 7.41763 25.7847 7.39866 25.8978C7.3797 26.0674 7.2659 26.1428 7.09521 26.1239C6.71589 26.0862 6.33658 26.0862 5.95726 26.1616C5.8814 26.1804 5.84347 26.237 5.8245 26.2935C5.80553 26.35 5.78657 26.4254 5.7676 26.482C5.65381 26.9154 5.90036 27.2546 6.35554 27.2734C6.6021 27.2734 6.86762 27.2734 7.11418 27.2923C7.13314 27.2923 7.17107 27.2923 7.19004 27.2734C7.4366 27.085 7.74005 27.0284 8.00557 26.8777C8.02454 26.8588 8.0435 26.84 8.06247 26.8212C8.19523 26.6516 8.25213 26.4254 8.38489 26.237C8.40385 26.1993 8.40385 26.1428 8.42282 26.1051C8.36592 25.992 8.38489 25.8601 8.40385 25.747C8.51765 25.0121 8.36592 24.296 8.23316 23.5987C8.19523 23.4103 8.1004 23.2407 8.1004 23.0334C8.0435 22.9957 8.06247 22.9392 8.0435 22.8827C8.00557 22.7884 8.02454 22.6942 8.0435 22.6188C8.0435 22.5811 8.0435 22.5623 8.0435 22.5246C7.94867 22.2419 7.77798 21.997 7.68315 21.6954C7.53142 21.5824 7.47453 21.4505 7.39866 21.2809C7.39866 21.262 7.39866 21.262 7.3797 21.2432C7.24694 21.1866 7.19004 21.0547 7.09521 20.9605C6.88659 20.7344 6.64003 20.5648 6.43141 20.3386C6.24175 20.2821 6.07106 20.2067 5.95726 20.0183C5.93829 19.9806 5.90036 19.9241 5.86243 19.9052C5.59691 19.7356 5.57794 19.4718 5.59691 19.1891C5.63484 18.7369 5.72967 18.3034 5.8814 17.87C5.8814 17.8512 5.91933 17.8323 5.91933 17.8135C5.91933 17.7946 5.91933 17.7758 5.93829 17.7758C5.95726 17.5685 6.05209 17.3801 6.20382 17.2293C6.27968 17.1162 6.35554 17.022 6.43141 16.9089C6.46934 16.8336 6.52624 16.777 6.6021 16.7393C6.62106 16.7205 6.64003 16.7017 6.659 16.6828C6.75383 16.5886 6.90555 16.5886 7.01935 16.5509C7.20901 16.4944 7.41763 16.4755 7.62625 16.419C7.74005 16.4001 7.87281 16.4001 7.98661 16.3625C8.13833 16.3625 8.29006 16.3248 8.36592 16.5132C8.51765 17.1162 8.91593 17.5685 9.29525 18.0396C9.56077 18.36 9.84526 18.6426 10.1297 18.9253C10.2435 19.0384 10.3573 19.1514 10.4711 19.2645C11.2677 19.9994 12.0832 20.7155 12.9557 21.3751C13.1832 21.5447 13.4108 21.7331 13.6384 21.9027C13.7522 21.997 13.8471 21.997 13.9798 21.9027C14.9281 21.1678 15.8574 20.414 16.7488 19.6037C17.3747 19.0384 17.9626 18.4542 18.4937 17.8323C18.8351 17.4177 19.1196 16.9843 19.2713 16.4755C19.4799 16.2871 19.7075 16.4001 19.9161 16.4755C19.9351 16.4755 19.973 16.4755 19.992 16.4944C20.1816 16.3813 20.3903 16.4001 20.5799 16.5132Z" fill="white"/>
<path d="M18.6834 1.84739C19.3282 2.43157 19.8972 3.07228 20.3334 3.8449C21.2059 5.37131 21.5093 7.01078 21.2628 8.76332C20.9214 11.1 20.011 13.1918 18.6075 15.0951C18.4937 15.2458 18.361 15.3966 18.2472 15.5662C18.2282 15.6227 18.1903 15.6416 18.1334 15.6604C17.9058 15.6981 17.6782 15.7546 17.4317 15.6793C17.1851 15.6039 16.9575 15.8489 16.9385 16.1692C16.9196 16.3765 16.9575 16.6026 16.9196 16.8099C16.9006 16.8665 16.8627 16.923 16.8058 16.9607C15.9334 17.6202 14.9661 18.016 13.8661 18.0537C12.9936 18.0725 12.1781 17.8464 11.4385 17.3941C11.2678 17.2999 11.0971 17.2245 10.9453 17.1114C10.8884 17.0549 10.7936 17.0172 10.7936 16.923C10.9833 16.6969 10.9833 16.678 10.7367 16.565C10.5471 16.4707 10.4712 16.2446 10.566 16.075C10.6609 15.9054 10.8315 15.8677 11.0591 15.9808C11.0781 15.9996 11.0971 16.0185 11.116 16.0373C11.2109 16.1881 11.1919 16.3765 11.1919 16.5461C11.1919 16.6215 11.1729 16.7157 11.2109 16.7911C11.3057 16.8665 11.3626 16.8288 11.3816 16.7157C11.4005 16.5273 11.4005 16.32 11.3816 16.1315C11.3436 15.8677 11.0971 15.6793 10.8315 15.6981C10.566 15.7169 10.3574 15.9054 10.3384 16.1692C10.3195 16.2823 10.3574 16.3765 10.3005 16.4707C10.0919 16.565 10.0539 16.3577 9.94015 16.3011C9.90222 16.2446 9.84532 16.2069 9.84532 16.1315C9.84532 16.0373 9.95912 15.9242 9.84532 15.83C9.73153 15.6981 9.5798 15.6981 9.42807 15.6793C9.39014 15.6604 9.35221 15.6416 9.31428 15.6227C9.21945 15.5285 9.16255 15.4343 9.10565 15.3212C9.08669 15.2835 9.06772 15.2647 9.04876 15.227C8.76427 14.9632 8.55564 14.6617 8.38495 14.3225C8.32805 14.3036 8.34702 14.2282 8.32805 14.1905C8.0815 13.9644 7.9677 13.6629 7.81598 13.3614C7.77804 13.286 7.74011 13.2106 7.72115 13.1353C7.64528 13.0033 7.58838 12.8714 7.51252 12.7395C7.41769 12.6453 7.3608 12.5134 7.34183 12.3626C7.247 12.3249 7.28493 12.2119 7.247 12.1365C7.07631 11.8915 7.00044 11.6088 6.92458 11.3262C6.92458 11.3073 6.92458 11.3073 6.92458 11.2885C6.71596 10.9304 6.62113 10.5347 6.56423 10.139C6.54526 10.0636 6.5263 9.96937 6.50733 9.89399C6.35561 9.63017 6.33664 9.32866 6.33664 9.02715C6.33664 9.0083 6.33664 8.97061 6.33664 8.95177C6.20388 8.65026 6.20388 8.3299 6.22284 8.00954C6.24181 7.63265 6.20388 7.25576 6.22284 6.89772C6.26078 6.53967 6.31767 6.16278 6.4125 5.80473C6.43147 5.72936 6.45044 5.65398 6.5263 5.61629C6.54526 5.54091 6.50733 5.44669 6.5832 5.39015C6.5832 5.12633 6.69699 4.91904 6.82975 4.71175C6.84872 4.71175 6.84872 4.69291 6.84872 4.67406C6.86768 4.61753 6.84872 4.561 6.92458 4.52331C6.92458 4.50446 6.92458 4.50446 6.94355 4.48562C7.01941 4.18411 7.1901 3.92028 7.34183 3.65646C7.53149 3.3361 7.75908 3.03459 8.00563 2.75192C8.04357 2.71423 8.0815 2.69539 8.11943 2.67654C8.27116 2.41272 8.49875 2.22428 8.7453 2.03583C8.76427 2.01699 8.78323 1.99814 8.8022 1.9793C8.93496 1.79085 9.10565 1.67778 9.31428 1.58356C9.35221 1.54587 9.39014 1.50818 9.44704 1.48934C9.54187 1.39512 9.6367 1.31974 9.76946 1.28205C9.78842 1.26321 9.82635 1.24436 9.84532 1.20667C10.016 1.05592 10.2057 0.961693 10.4333 0.886315C10.4712 0.867471 10.4902 0.848626 10.5281 0.829782C10.7177 0.69787 10.9264 0.603647 11.1729 0.565958C11.2109 0.547114 11.2678 0.528269 11.3057 0.509425C11.3626 0.415202 11.4574 0.434047 11.5333 0.434047C11.8367 0.264446 12.1402 0.189068 12.4816 0.207913C12.5195 0.207913 12.5385 0.207913 12.5764 0.189068C12.6523 0.151379 12.7281 0.170224 12.804 0.151379C12.8419 0.151379 12.8609 0.151379 12.8988 0.151379C13.2023 -0.0182215 13.5437 0.000622959 13.885 0.000622959C13.9799 0.000622959 14.0747 0.000622961 14.1316 0.0571565C14.2075 0.0571565 14.2833 0.0571565 14.3402 0.076001C14.454 0.132535 14.5678 0.076001 14.6626 0.11369C14.7006 0.11369 14.7195 0.11369 14.7575 0.11369C14.8333 0.151379 14.9092 0.11369 14.9851 0.151379C15.004 0.151379 15.042 0.151379 15.0609 0.170224C15.5351 0.189068 15.9713 0.283291 16.3885 0.528269C16.4075 0.547114 16.4644 0.547114 16.4834 0.565958C16.5023 0.584803 16.5023 0.584803 16.5213 0.584803C16.711 0.603647 16.9006 0.660181 17.0334 0.810937C17.0523 0.867471 17.0903 0.848626 17.1282 0.848626C17.3558 0.924004 17.5644 0.980538 17.7161 1.16898C17.7541 1.22552 17.811 1.22552 17.8489 1.24436C18.1524 1.37627 18.4179 1.54587 18.6265 1.8097C18.6644 1.84739 18.6644 1.84739 18.6834 1.84739Z" fill="white"/>
<path d="M20.3721 11.9679C20.3721 11.9679 18.8928 16.7167 14.6634 17.9416C12.6151 17.8851 9.99777 17.6966 8.34774 14.2669C6.69771 10.8372 12.672 9.80078 12.672 9.80078L20.3721 11.9679Z" fill="white"/>
<path d="M23.3862 21.7454C23.3862 22.3108 22.931 22.763 22.362 22.763C21.812 22.763 21.3379 22.3108 21.3379 21.7643C21.3379 21.1989 21.7741 20.7467 22.3431 20.7467C22.931 20.7278 23.3862 21.1801 23.3862 21.7454Z" fill="white"/>
</svg>
