<svg xmlns="http://www.w3.org/2000/svg" viewBox="0 0 16 17.86"><title>Doctor</title><g id="Layer_2" data-name="Layer 2"><g id="Hospital"><g id="Doctor"><path d="M8,8a4,4,0,1,1,4-4A4,4,0,0,1,8,8ZM8,1a3,3,0,1,0,3,3A3,3,0,0,0,8,1Z"/><path d="M16,17.5H15a7,7,0,0,0-14,0H0a8,8,0,0,1,16,0Z"/><rect x="3.88" y="11" width="1" height="4"/><path d="M4.38,17.5a1.75,1.75,0,1,1,1.75-1.75A1.75,1.75,0,0,1,4.38,17.5Zm0-2.5a.75.75,0,1,0,.75.75A.75.75,0,0,0,4.38,15Z"/><path d="M11,12.57V10.5L10,10v2.57A2,2,0,0,0,8.5,14.5V16a2,2,0,0,0,1.11,1.78l.45-.89A1,1,0,0,1,9.5,16V14.5a1,1,0,0,1,2,0V16a1,1,0,0,1-.64.93l.36.93A2,2,0,0,0,12.5,16V14.5A2,2,0,0,0,11,12.57Z"/></g></g></g></svg>