<svg xmlns="http://www.w3.org/2000/svg" viewBox="0 0 14.6 15.33"><defs><style>.cls-1{fill:#009e44;}</style></defs><title>Hospital2</title><g id="Layer_2" data-name="Layer 2"><g id="Hospital"><g id="Hospital-2" data-name="Hospital"><polygon class="cls-1" points="14.6 15.34 0 15.34 0 3 3.64 3 3.64 4 1 4 1 14.34 13.6 14.34 13.6 4 10.82 4 10.82 3 14.6 3 14.6 15.34"/><path class="cls-1" d="M7.3,5.8l-.36-.36L4.86,3.33a2,2,0,0,1-.69-1.72A1.87,1.87,0,0,1,5.76,0,2,2,0,0,1,7.3.47,2,2,0,0,1,8.84,0a1.87,1.87,0,0,1,1.59,1.59h0a2,2,0,0,1-.64,1.68L7.65,5.44ZM6,1H5.9a.87.87,0,0,0-.74.74c0,.17,0,.46.4.87L7.3,4.38l1.78-1.8a1,1,0,0,0,.36-.83h0A.87.87,0,0,0,8.7,1a.94.94,0,0,0-.95.48l-.45.9-.45-.9A.92.92,0,0,0,6,1Z"/><rect class="cls-1" x="2.84" y="7.28" width="3.29" height="1"/><rect class="cls-1" x="8.47" y="7.28" width="3.29" height="1"/><rect class="cls-1" x="2.84" y="10.06" width="3.29" height="1"/><rect class="cls-1" x="8.47" y="10.06" width="3.29" height="1"/></g></g></g></svg>