<svg xmlns="http://www.w3.org/2000/svg" viewBox="0 0 10.9 16"><defs><style>.cls-1{fill:#fff;}</style></defs><title>Lab2</title><g id="Layer_2" data-name="Layer 2"><g id="Hospital"><g id="Lab"><polygon class="cls-1" points="10.9 16 0.84 16 0.84 12.26 6.46 12.26 6.46 8.51 7.39 8.51 7.39 13.19 1.77 13.19 1.77 15.07 9.97 15.07 9.97 8.16 10.9 8.16 10.9 16"/><path class="cls-1" d="M4.18,10,.79,7.13,6.86,0l3.38,2.88L8.34,5.12l-.17,0A1.8,1.8,0,0,0,6.69,6.89v.17ZM2.1,7l2,1.67,1.7-2A2.73,2.73,0,0,1,7.84,4.27L8.93,3,7,1.31Z"/><path class="cls-1" d="M8.68,8.75a1.64,1.64,0,1,1,1.63-1.64A1.64,1.64,0,0,1,8.68,8.75Zm0-2.81A1.17,1.17,0,1,0,9.85,7.11,1.17,1.17,0,0,0,8.68,5.94Z"/><polygon class="cls-1" points="0 9.59 1.18 8.2 1.68 8.62 0.92 9.51 1.85 10.31 2.61 9.42 3.11 9.84 1.93 11.23 0 9.59"/></g></g></g></svg>