<svg xmlns="http://www.w3.org/2000/svg" viewBox="0 0 16 16"><defs><style>.cls-1{fill:#fff;}</style></defs><title>Notifications2</title><g id="Layer_2" data-name="Layer 2"><g id="Hospital"><g id="Notifications"><path class="cls-1" d="M9.37,16,0,6.63,1.54,5.09l1.34-.16A1.75,1.75,0,0,0,4.41,3.4l.16-1.34.12-.12A6.63,6.63,0,0,1,16,6.63a6.57,6.57,0,0,1-1.94,4.68l-.12.12-1.34.16a1.75,1.75,0,0,0-1.53,1.53l-.16,1.34Zm-8-9.37,8,8L10,14l.12-1a2.69,2.69,0,0,1,2.36-2.36l1-.12a5.66,5.66,0,0,0-.11-7.92A5.66,5.66,0,0,0,5.47,2.5l-.12,1A2.75,2.75,0,0,1,4.58,5.1,2.75,2.75,0,0,1,3,5.87L2,6Z"/><path class="cls-1" d="M4.27,14a2,2,0,0,1-1.38-3.34l.66.66A1,1,0,1,0,5,12.75l.66.67A2,2,0,0,1,4.27,14Z"/></g></g></g></svg>