<svg width="27" height="30" fill="none" xmlns="http://www.w3.org/2000/svg"><path d="M0 0h26.808v30H0z"/><path d="M0 0h26.808v30H0z"/><path d="M11.995.003C10.249.108 8.22 1.55 7.01 4.175c-.716 1.56-.686 3.196-.448 4.847.314 2.22 1.03 4.261 2.522 5.957 1.403 1.576 3.119 2.416 5.253 1.89 1.716-.42 2.88-1.605 3.805-3.045 1.178-1.861 1.641-3.947 1.805-6.093.314-4.427-3.059-7.848-7.953-7.728zm4.685 14.24c-2.089 2.312-5.103 2.252-7.117-.134-1.343-1.591-1.985-3.467-2.194-5.643.343.15.567.24.836.36.03-.96-.15-1.86-.015-2.76.045-.316.09-.646.194-.946.209-.555.507-.795 1.194-.525 1.7.69 3.461 1.02 5.312.63.432-.09.895-.195 1.253-.45.582-.435.866-.24 1.134.345.463 1.005 1.03 1.98.97 3.166.388-.09.433-.57.85-.63-.178 2.461-.745 4.727-2.417 6.588z" fill="#fff"/><path d="M26.708 26.339c-.254 1.59-1.164 2.596-2.656 3.106-.687.225-1.388.39-2.104.405-.03.045-.045.09-.015.135-.03-.045-.045-.075-.03-.105 0-.015 0-.015.015-.03 0-.015.015-.045.045-.06.313-.195.671-.18 1.014-.24 2.79-.495 3.82-2.19 3.701-4.847-.18-3.916-3.03-7.233-6.82-8.103-.581-.135-.94-.06-1.253.54-.79 1.456-2.119 2.431-3.327 3.497-.388.345-.821.645-1.224.99-.418.345-.806.345-1.209 0C11.13 20.17 9.22 18.88 8.1 16.825c-.209-.375-.522-.3-.85-.255-3.432.63-6.312 3.556-6.894 7.038-.15.87-.194 1.725-.045 2.61.254 1.606 1.15 2.597 2.656 3.107.642.225 1.328.225 1.955.48.015.015.03.045.045.06 0 .015.015.015.015.03 0 .03 0 .075-.03.105.03-.045.015-.09-.015-.135-.507-.075-1.045-.105-1.537-.24-2.507-.63-3.64-2.43-3.357-5.222.402-4.007 3.059-7.068 6.923-7.998.612-.15 1.045-.21 1.418.57.656 1.336 1.88 2.236 2.984 3.211.537.48 1.12.916 1.671 1.38.24.196.433.286.717.046 1.522-1.246 3.074-2.461 4.312-4.007.105-.135.209-.285.298-.42.627-.975.627-.975 1.791-.69 4.342 1.035 7.237 5.417 6.55 9.844z" fill="#fff"/><path d="M20.172 16.48c-1.164-.286-1.164-.286-1.79.69-.09.15-.195.285-.299.42-1.253 1.545-2.79 2.76-4.312 4.006-.284.225-.478.15-.717-.045-.552-.465-1.119-.9-1.67-1.38-1.105-.976-2.329-1.876-2.985-3.212-.388-.78-.806-.72-1.418-.57-3.88.946-6.536 4.007-6.938 8.013-.284 2.791.85 4.592 3.327 5.223.508.135 1.03.165 1.537.24.015.015.03.015.045.03.224.105.492-.06.716.105h15.37c.268-.18.581 0 .865-.105.015 0 .03-.015.045-.03.731-.015 1.417-.18 2.104-.406 1.492-.51 2.402-1.53 2.656-3.106.686-4.442-2.209-8.823-6.536-9.874zm.299 8.958c.074.45-.09.585-.567.6-.538.015-.582-.255-.523-.63.09-.585-.12-.826-.716-.72-.448.075-.656-.046-.656-.586.014-.495.178-.615.596-.54.597.105.88-.09.761-.735-.074-.405 0-.63.523-.63.477.015.626.165.552.6-.105.63.134.87.76.765.418-.075.702.03.568.54.12.48-.09.66-.552.585-.567-.105-.85.106-.746.75z" fill="#fff"/><path d="M11.995.003C10.249.108 8.22 1.55 7.01 4.175c-.716 1.56-.686 3.196-.448 4.847.314 2.22 1.03 4.261 2.522 5.957 1.403 1.576 3.119 2.416 5.253 1.89 1.716-.42 2.88-1.605 3.805-3.045 1.178-1.861 1.641-3.947 1.805-6.093.314-4.427-3.059-7.848-7.953-7.728zm4.685 14.24c-2.089 2.312-5.103 2.252-7.117-.134-1.343-1.591-1.985-3.467-2.194-5.643.343.15.567.24.836.36.03-.96-.15-1.86-.015-2.76.045-.316.09-.646.194-.946.209-.555.507-.795 1.194-.525 1.7.69 3.461 1.02 5.312.63.432-.09.895-.195 1.253-.45.582-.435.866-.24 1.134.345.463 1.005 1.03 1.98.97 3.166.388-.09.433-.57.85-.63-.178 2.461-.745 4.727-2.417 6.588z" fill="#fff"/></svg>