<svg width="22" height="24" fill="none" xmlns="http://www.w3.org/2000/svg"><path d="M0 0h22v23.996H0z"/><path d="M16.434 13.201c.227.06.363.242.5.422.348.483.484 1.056.56 1.644.015.136.06.286.015.407-.045.12-.227.106-.348.166-.742.377-1.12 1.176-.94 1.96a1.795 1.795 0 0 0 1.712 1.372c.864.015 1.606-.618 1.772-1.538.137-.784-.393-1.628-1.196-1.885-.152-.045-.167-.12-.182-.256a5.328 5.328 0 0 0-.348-1.674c.06-.03.12 0 .181.03 1.985 1.101 3.241 2.76 3.696 4.991.182.845.197 1.704.015 2.564-.242 1.16-.97 1.87-2.09 2.216-.681.211-1.393.287-2.105.332-1.5.075-2.999.03-4.483.03H5.636c-.44 0-.879-.015-1.318-.03-.06 0-.136 0-.197-.015-.227-.03-.47.03-.712-.076-.075-.03-.151.03-.212-.03a1.604 1.604 0 0 1-.833-.18c-.045-.016-.09 0-.12-.046-.046-.03-.122 0-.168-.06l-.015-.015h-.015c-.106-.015-.212-.045-.288-.136-.06-.03-.12-.06-.166-.09a1.109 1.109 0 0 1-.545-.392C1 22.897.97 22.852.94 22.806l-.076-.075c-.06-.046-.121-.106-.136-.181-.016-.03-.03-.046-.046-.076a.68.68 0 0 1-.212-.361c0-.016 0-.03-.015-.03-.06-.016-.045-.076-.06-.121 0-.015 0-.015-.016-.03-.015 0-.03-.016-.03-.03-.121-.317-.258-.634-.227-.996v-.075c-.121-.06-.121-.196-.121-.302-.016-.904.075-1.779.378-2.639.106-.301.243-.588.364-.874.03-.06.06-.12.12-.15.016 0 .016-.016.016-.016.09-.271.227-.497.424-.709.06-.075.106-.135.167-.21a.407.407 0 0 1 .166-.227c.06-.06.076-.15.152-.18.03-.061.06-.106.12-.121.046-.06.092-.106.137-.166.121-.151.227-.317.424-.392.046-.03.076-.076.121-.106.243-.21.455-.452.773-.558l.136-.09c.121-.136.273-.196.44-.241.03-.015.06-.015.075.015s.015.045-.015.06c-.06.332-.152.663-.197.995 0 .045-.015.09-.045.136a.617.617 0 0 0 0 .332c.03.09.03.18-.046.256-.045.045-.076.09-.121.136-.015.06-.076.09-.121.12-.03.03-.076.06-.076.106-.03.045-.015.12-.09.136-.061 0-.092.03-.137.075-.106.09-.197.211-.348.256h-.016v.015c-.166.196-.318.392-.5.573-.03.046-.075.076-.09.12a1.067 1.067 0 0 1-.243.423h-.015v.015c-.06.211-.151.407-.136.633 0 .06-.015.106-.076.136a1.16 1.16 0 0 0-.12.392c0 .241-.077.483-.107.724a5.241 5.241 0 0 0 .046 1.538c.015.105.106.18.12.271 0 .06.031.076.076.106.03.015.061.03.076.06.03.015.046.03.076.045.09.03.197.03.257.121.121 0 .243.03.349.09a.344.344 0 0 0 .242.03c.227 0 .44.016.666-.014.016-.016.046-.03.061-.046.045-.075.121-.135.151-.226.122-.271 0-.543-.287-.618-.167-.06-.349-.03-.515-.045-.091 0-.167.015-.258-.015H2.41c-.046-.03-.046-.06-.046-.106v-.075a1.578 1.578 0 0 1 0-1.056c0-.03 0-.06.015-.09a.813.813 0 0 1 .091-.453c0-.03.015-.045.015-.075-.015-.03 0-.06.016-.075 0-.046 0-.09.015-.136.06-.045.045-.136.106-.181.09-.09.181-.211.287-.287.016-.015.016-.015.016-.03.015-.075.015-.15.106-.18.015 0 .015-.016.015-.03.075-.242.242-.438.439-.604.03-.03.06-.06.106-.09a.499.499 0 0 1 .379-.242h.015L4 17.076c.106-.06.212-.075.318.015.015.03.045.015.076.03.318.076.47.332.65.574.046.06.092.12.107.21-.015.046.03.076.045.091.167.181.288.407.44.603.045.06.06.151.06.241.06.076.06.181.076.272a.53.53 0 0 0 .045.211c.152.271.121.558.106.844 0 .09-.03.181 0 .287.03.09 0 .166-.015.256-.015.136-.106.196-.242.181a3.067 3.067 0 0 0-.909.03c-.06.015-.09.06-.106.106-.015.045-.03.105-.045.15-.091.347.106.619.47.634.196 0 .408 0 .605.015.015 0 .045 0 .06-.015.197-.15.44-.196.652-.317l.045-.045c.106-.136.152-.317.258-.467.015-.03.015-.076.03-.106-.045-.09-.03-.196-.015-.286.09-.588-.03-1.162-.136-1.72-.03-.15-.106-.286-.106-.452-.046-.03-.03-.075-.046-.12a.335.335 0 0 1 0-.211v-.076c-.076-.226-.212-.422-.288-.663-.12-.09-.166-.196-.227-.332 0-.015 0-.015-.015-.03-.106-.045-.151-.15-.227-.226-.167-.181-.364-.317-.53-.498-.152-.045-.288-.105-.379-.256-.015-.03-.045-.076-.076-.09-.212-.136-.227-.348-.212-.574a4.24 4.24 0 0 1 .228-1.055c0-.015.03-.03.03-.045 0-.016 0-.03.015-.03a.705.705 0 0 1 .212-.438c.06-.09.121-.166.182-.256a.296.296 0 0 1 .136-.136l.045-.045c.076-.075.197-.075.288-.106.152-.045.318-.06.485-.105.09-.015.197-.015.288-.045.12 0 .242-.03.303.12.12.483.439.845.742 1.222.212.256.439.482.666.708l.273.272a26.546 26.546 0 0 0 1.984 1.688c.181.136.363.287.545.423.09.075.166.075.273 0a36.504 36.504 0 0 0 2.21-1.84c.5-.452.97-.92 1.394-1.417.273-.332.5-.679.621-1.086.167-.15.348-.06.515 0 .015 0 .045 0 .06.015.152-.09.318-.075.47.015z" fill="#17CDC6"/><path d="M14.92 1.478c.515.468.97.98 1.318 1.598.697 1.222.939 2.534.742 3.936-.273 1.87-1 3.543-2.12 5.066-.091.12-.197.241-.288.377-.015.045-.045.06-.09.075-.183.03-.364.076-.561.016-.197-.06-.379.135-.394.392-.015.165.015.346-.015.512a.235.235 0 0 1-.091.12c-.697.529-1.47.845-2.348.875a3.51 3.51 0 0 1-1.938-.527c-.136-.076-.273-.136-.394-.226-.045-.046-.121-.076-.121-.151.151-.181.151-.196-.045-.287-.152-.075-.212-.256-.137-.392.076-.136.212-.166.394-.075l.045.045c.076.12.061.271.061.407 0 .06-.015.136.015.196.076.06.121.03.137-.06.015-.15.015-.317 0-.467a.414.414 0 0 0-.44-.347.409.409 0 0 0-.393.377c-.016.09.015.165-.03.24-.167.076-.198-.09-.289-.135-.03-.045-.075-.075-.075-.135 0-.076.09-.166 0-.242-.091-.105-.212-.105-.333-.12l-.091-.046a.862.862 0 0 1-.167-.24c-.015-.031-.03-.046-.045-.076a2.483 2.483 0 0 1-.53-.724c-.046-.015-.03-.075-.046-.106-.197-.18-.288-.422-.409-.663a.9.9 0 0 1-.075-.181c-.061-.105-.106-.211-.167-.317a.508.508 0 0 1-.136-.301c-.076-.03-.046-.12-.076-.181-.136-.196-.197-.422-.258-.648v-.03c-.166-.287-.242-.604-.287-.92-.015-.06-.03-.136-.046-.196-.12-.212-.136-.453-.136-.694v-.06c-.106-.242-.106-.498-.09-.754.014-.302-.016-.603 0-.89.03-.286.075-.588.15-.874.016-.06.03-.121.091-.151.016-.06-.015-.136.046-.181 0-.211.09-.377.197-.543.015 0 .015-.015.015-.03.015-.045 0-.09.06-.12 0-.016 0-.016.016-.03.06-.242.196-.453.318-.664.151-.257.333-.498.53-.724.03-.03.06-.045.09-.06.122-.211.303-.362.5-.513l.046-.045a.94.94 0 0 1 .409-.317c.03-.03.06-.06.106-.075a.585.585 0 0 1 .257-.166c.015-.015.046-.03.06-.06a1.29 1.29 0 0 1 .47-.257c.03-.015.046-.03.076-.045.151-.106.318-.181.515-.211.03-.015.076-.03.106-.045.045-.076.121-.06.182-.06a1.34 1.34 0 0 1 .757-.182c.03 0 .045 0 .076-.015.06-.03.12-.015.181-.03h.076c.242-.136.515-.12.788-.12.075 0 .151 0 .197.045.06 0 .12 0 .166.015.091.045.182 0 .258.03h.075c.06.03.121 0 .182.03.015 0 .045 0 .06.015.38.015.728.09 1.06.287.016.015.061.015.077.03.015.015.015.015.03.015.151.015.303.06.409.18.015.046.045.031.075.031.182.06.349.106.47.256.03.046.076.046.106.06.242.106.454.242.62.453.031.03.031.03.046.03z" fill="#17CDC6"/></svg>