<svg width="18" height="18" fill="none" xmlns="http://www.w3.org/2000/svg"><path d="M0 0h18v18H0z"/><path d="M17.994 4.629c0-.018 0-.036.003-.053a.284.284 0 0 0 0-.078c-.003-.015-.003-.029-.003-.043 0-.028-.004-.057-.007-.085 0-.007-.004-.011-.004-.018v-.007c-.025-.11-.014-.224-.028-.334a.587.587 0 0 0-.01-.04.1.1 0 0 1-.008-.038l-.01-.071c0-.004 0-.007-.004-.011 0-.007 0-.01-.004-.018-.018-.12-.053-.238-.081-.355l-.022-.064c-.003-.018-.01-.035-.014-.053a.783.783 0 0 0-.032-.11c-.039-.114-.074-.228-.117-.341-.003-.011-.01-.022-.014-.032l-.021-.043-.032-.067-.008-.018c-.003-.007-.003-.01-.007-.014-.042-.1-.085-.203-.138-.295l-.025-.036-.021-.032-.043-.067c-.003-.007-.01-.014-.014-.025l-.004-.004c-.06-.092-.11-.188-.177-.273-.007-.01-.018-.021-.025-.032-.007-.01-.018-.021-.025-.036l-.039-.06c-.007-.01-.01-.018-.018-.028-.074-.093-.145-.185-.22-.274l-.035-.036a21.181 21.181 0 0 1-.078-.078c0-.003-.004-.003-.007-.007-.082-.078-.16-.16-.238-.238l-.004-.003a.644.644 0 0 0-.078-.075l-.032-.028c-.003-.004-.007-.007-.01-.007-.093-.068-.178-.143-.267-.21h-.003L16.038.87c-.018-.011-.036-.025-.053-.036-.008-.003-.015-.01-.022-.014a14.16 14.16 0 0 0-.32-.192c-.003 0-.003-.003-.006-.003-.01-.008-.025-.015-.036-.022-.021-.014-.042-.025-.06-.039L15.5.544 15.478.53c-.107-.057-.22-.093-.327-.146-.003-.004-.007-.004-.01-.007-.004-.004-.01-.004-.014-.007-.025-.01-.05-.022-.075-.029-.014-.007-.032-.01-.046-.017-.01-.004-.021-.011-.032-.015-.12-.039-.238-.081-.362-.117-.004 0-.007-.003-.01-.003a.027.027 0 0 1-.015-.008.346.346 0 0 0-.067-.017L14.448.15c-.029-.008-.057-.011-.086-.025-.092-.022-.18-.05-.277-.05-.014 0-.028-.004-.042-.007-.01 0-.021-.004-.032-.004-.032-.007-.06-.01-.089-.018-.014-.003-.028-.003-.042-.007-.018-.003-.036-.003-.054-.003-.149-.01-.294-.04-.44-.036h-.109c-.026 0-.047.004-.072.004h-.039c-.188.028-.376.035-.564.07-.007 0-.018.004-.025.004-.007 0-.014.004-.018.004-.039.007-.078.018-.12.028-.018.004-.036.008-.057.011-.011 0-.018.004-.029.004a4.82 4.82 0 0 0-.745.238l-.029.01c-.003 0-.007.004-.01.004a5.26 5.26 0 0 0-.2.1c-.031.017-.063.031-.095.05a.51.51 0 0 1-.064.027c-.44.228-.823.533-1.171.881-2.77 2.771-5.538 5.542-8.31 8.31-.48.479-.941.966-1.268 1.566-.01.018-.017.036-.028.057-.014.028-.025.057-.039.085-.032.071-.06.142-.092.213l-.014.032-.011.021c-.064.16-.117.32-.167.484-.075.245-.064.497-.11.746v1.03c.035.373.078.742.23 1.094l.015.035c.003.011.01.022.014.032a1902.082 1902.082 0 0 1 .046.09c0 .003.004.003.004.006.046.117.096.228.152.341.004.007.008.011.011.018.004.01.01.018.014.025a.619.619 0 0 0 .057.089c.06.1.11.206.178.302.003.007.007.01.01.014.007.01.018.021.025.032l.043.053a1.768 1.768 0 0 0 .234.302l.007.01c.007.011.018.022.025.033.01.018.025.032.035.05.004.007.011.01.015.017 0 0 .003.004.003.007.078.082.16.16.238.242l.021.021.025.025a.655.655 0 0 0 .05.046c.003.004.01.01.018.015l.007.007c.096.067.18.145.277.216.003.004.01.007.017.01.007.008.018.015.025.022a.397.397 0 0 1 .06.046l.032.025.011.01c.085.072.188.118.277.182l.01.007c.011.007.022.01.033.018a5.933 5.933 0 0 0 .103.067c.007.004.01.008.017.011.103.053.206.107.313.153h.003l.032.01c.025.011.046.022.068.033.01.003.02.01.032.014.01.007.02.01.032.018.38.174.784.238 1.192.273h.994c.366-.035.735-.06 1.08-.203 0 0 .003 0 .003-.003.021-.007.039-.018.06-.025l.128-.053c.028-.01.053-.025.082-.036.02-.007.042-.017.067-.028.554-.235 1.022-.593 1.445-1.012 2.825-2.821 5.644-5.649 8.47-8.47.497-.497.94-1.026 1.231-1.676l.022-.053c.01-.029.021-.054.032-.082.024-.06.05-.12.07-.181.008-.014.011-.032.018-.046 0-.004 0-.004.004-.007.078-.217.128-.445.177-.672 0-.01.004-.021.004-.032.003-.018.003-.035.007-.05l.021-.117c.004-.01.004-.018.007-.028v-.01c.011-.178.047-.356.047-.534a.086.086 0 0 0 .014-.053zm-7.082 7.272c-.021.017-.043.042-.064.064L6.99 15.829c-.173.175-.354.345-.575.462a1.566 1.566 0 0 1-.465.256 2.118 2.118 0 0 1-.784.238v-.014a.33.33 0 0 1-.178.025.11.11 0 0 1-.035.018c-.174.05-.355.042-.533.032-.06.003-.124.01-.18-.025a1.135 1.135 0 0 1-.462-.075c-.05 0-.103.007-.142-.035a1.141 1.141 0 0 1-.398-.132c-.063-.018-.127-.035-.177-.082a.84.84 0 0 1-.277-.149.327.327 0 0 1-.15-.1.963.963 0 0 1-.28-.212.328.328 0 0 1-.117-.104 1.004 1.004 0 0 1-.241-.248.238.238 0 0 1-.1-.114 1.217 1.217 0 0 1-.223-.316.172.172 0 0 1-.067-.11 1.15 1.15 0 0 1-.178-.355l-.064-.142c-.05-.128-.103-.253-.113-.391-.022-.046-.047-.089-.036-.142a.923.923 0 0 1-.046-.341c-.04-.096-.029-.196-.025-.299a2.03 2.03 0 0 1 .057-.604c.003-.07-.004-.145.042-.21a2.44 2.44 0 0 1 .345-.89c.117-.25.284-.466.475-.658C3.39 9.78 4.722 8.452 6.05 7.116c.11-.11.152-.054.21.035.092.071.173.153.244.245l.11.11c.093.071.174.153.245.246a.298.298 0 0 1 .11.11c.092.07.174.152.245.245a.298.298 0 0 1 .11.11c.092.07.174.153.245.245a.298.298 0 0 1 .11.11c.092.071.174.153.245.245l.11.11c.092.071.174.153.245.245a.298.298 0 0 1 .11.11c.092.072.174.153.245.246l.11.11c.092.07.174.153.245.245a.298.298 0 0 1 .11.11c.092.071.174.153.245.245a.298.298 0 0 1 .11.11c.092.071.174.153.245.245l.11.11c.092.072.174.153.245.246l.11.11.245.245c.004.01.004.025.004.035a.345.345 0 0 1 .063.06l.011.011c.01 0 .021.004.035.008.093.07.174.152.245.245a.298.298 0 0 1 .11.11c.068.032.11.067.036.128zm4.707-8.718a.561.561 0 0 1-.273.277c-.096.043-.213-.05-.316-.1a.221.221 0 0 1-.142-.038l-.39-.075-.214-.032h-.532l-.213.032c-.227.036-.451.1-.671.16-.107.043-.213.089-.323.131-.497.253-.891.63-1.278 1.02-.83.842-1.672 1.67-2.503 2.511-.113.114-.184.143-.266-.014a.257.257 0 0 1-.106-.106 1.373 1.373 0 0 1-.249-.249.257.257 0 0 1-.106-.107 1.372 1.372 0 0 1-.249-.248.257.257 0 0 1-.106-.107c.01-.064.064-.1.103-.138 1.036-1.038 2.07-2.071 3.106-3.112.053-.053.131-.085.152-.164a2.05 2.05 0 0 1 .61-.383c.232-.128.473-.217.736-.256.092-.043.195-.05.294-.06l.164-.011h.362c-.014-.01-.043-.014-.082-.01-.085.003-.167-.008-.252.003.185-.04.37-.036.55 0 .014.003.029.007.043.007.131-.01.255.021.38.046.074.018.152.018.216.06.124.011.238.06.348.114a.32.32 0 0 1 .146.064c.117.036.223.092.323.167a.294.294 0 0 1 .134.082c.107.053.203.128.288.213a.27.27 0 0 1 .117.103c.092.06.23.139.199.22z" fill="#246FB5"/></svg>