<svg width="30" height="30" fill="none" xmlns="http://www.w3.org/2000/svg"><path d="M0 0h30v30H0z"/><path d="M29.99 7.715c0-.03 0-.06.006-.089a.481.481 0 0 0 0-.13c-.006-.024-.006-.047-.006-.071 0-.047-.006-.095-.012-.142 0-.012-.006-.018-.006-.03v-.012c-.042-.183-.024-.373-.047-.556-.006-.024-.012-.048-.018-.065-.006-.024-.012-.042-.012-.065l-.018-.119c0-.006 0-.012-.006-.018 0-.011 0-.017-.006-.03-.03-.2-.088-.396-.136-.591l-.035-.107c-.006-.03-.018-.059-.024-.089a1.61 1.61 0 0 0-.041-.142.108.108 0 0 1-.012-.041c-.065-.19-.124-.38-.195-.569-.006-.017-.018-.035-.024-.053l-.035-.07c-.018-.036-.036-.078-.054-.113-.006-.012-.006-.018-.012-.03s-.006-.018-.011-.024c-.071-.165-.142-.337-.231-.491-.012-.018-.03-.042-.041-.06l-.036-.053c-.024-.035-.047-.077-.071-.112-.006-.012-.018-.024-.024-.041l-.006-.006c-.1-.154-.183-.314-.295-.456-.012-.018-.03-.036-.042-.054-.012-.017-.03-.035-.041-.059-.024-.035-.042-.065-.065-.1l-.03-.048c-.124-.154-.242-.308-.367-.456l-.059-.059-.083-.083-.047-.047c0-.006-.006-.006-.012-.012-.136-.13-.266-.266-.396-.397l-.006-.006-.047-.047a1.256 1.256 0 0 0-.083-.077c-.018-.018-.036-.03-.054-.047-.006-.006-.011-.012-.017-.012-.154-.113-.296-.237-.444-.35h-.006l-.053-.035c-.03-.018-.06-.041-.089-.06-.012-.005-.024-.017-.035-.023a27.972 27.972 0 0 0-.533-.32c-.006 0-.006-.005-.012-.005-.017-.012-.041-.024-.059-.036-.035-.024-.07-.041-.1-.065l-.066-.036-.041-.023c-.178-.095-.367-.154-.544-.243-.006-.006-.012-.006-.018-.012-.006-.006-.018-.006-.024-.012a1.06 1.06 0 0 0-.124-.047c-.024-.012-.053-.018-.077-.03-.018-.006-.035-.017-.053-.023-.201-.066-.396-.137-.604-.196-.005 0-.011-.006-.017-.006a.045.045 0 0 1-.024-.012c-.035-.011-.071-.023-.112-.03-.042-.005-.077-.017-.119-.023-.047-.012-.094-.018-.142-.041-.154-.036-.301-.083-.461-.083a.298.298 0 0 1-.071-.012c-.018 0-.036-.006-.053-.006-.054-.012-.101-.018-.148-.03-.024-.005-.048-.005-.071-.011-.03-.006-.06-.006-.09-.006-.248-.018-.49-.065-.733-.06h-.183c-.041 0-.077.006-.118.006h-.066c-.313.048-.627.06-.94.119-.012 0-.03.006-.042.006-.011 0-.023.006-.03.006-.064.012-.13.03-.2.047a2.84 2.84 0 0 1-.095.018c-.018 0-.03.006-.047.006a8.2 8.2 0 0 0-1.29.414c-.006 0-.012.006-.018.006a8.64 8.64 0 0 0-.331.166c-.053.03-.107.053-.16.083a.838.838 0 0 1-.106.047c-.734.379-1.373.888-1.953 1.468-4.615 4.618-9.23 9.237-13.85 13.849-.798.799-1.568 1.61-2.112 2.61-.018.03-.03.06-.047.095-.024.048-.042.095-.065.142-.054.119-.1.237-.154.356-.006.017-.018.035-.024.053l-.018.035a9.974 9.974 0 0 0-.278.806c-.124.408-.106.828-.183 1.243v1.717c.06.622.13 1.237.385 1.824.005.017.017.04.023.059.006.017.018.035.024.053l.053.106c.006.018.012.03.024.042 0 .006.006.006.006.012.077.195.16.379.254.568.006.012.012.018.018.03.006.017.018.03.024.041.017.036.04.071.065.107.006.012.011.023.023.035 0 0 0 .006.006.006.1.166.184.344.296.503.006.012.012.018.018.024.012.018.03.036.041.054l.071.088a.18.18 0 0 1 .03.042c.1.166.225.314.36.462.007.005.007.011.012.017.012.018.03.036.042.054.018.03.041.053.06.082.005.012.017.018.023.03 0 0 .006.006.006.012.13.136.266.266.396.402l.036.036c.011.012.03.03.04.042.025.023.054.053.084.076.006.006.018.018.03.024l.011.012c.16.112.302.243.462.361a.112.112 0 0 0 .03.018c.011.012.029.024.04.035.036.024.072.048.101.077.018.012.036.03.053.042l.018.018c.142.118.314.195.462.302.006.005.012.005.017.011.018.012.036.018.054.03.041.024.083.053.118.077l.053.035c.012.006.018.012.03.018.171.089.343.178.52.255h.006l.054.017c.041.018.077.036.112.054.018.006.036.018.053.024.018.011.036.017.054.03.633.29 1.307.396 1.987.455h1.657c.61-.06 1.225-.1 1.798-.337 0 0 .006 0 .006-.006.036-.012.065-.03.101-.042l.213-.089c.047-.017.089-.041.136-.059.036-.012.071-.03.113-.047.922-.391 1.703-.989 2.407-1.688 4.71-4.7 9.407-9.413 14.117-14.114.828-.83 1.567-1.711 2.053-2.795l.035-.088c.018-.048.036-.09.053-.137.042-.1.083-.201.119-.302.012-.023.017-.053.03-.077 0-.005 0-.005.005-.011.13-.362.213-.74.296-1.12 0-.017.006-.035.006-.053.006-.03.006-.059.012-.083l.035-.195c.006-.018.006-.03.012-.047v-.018c.018-.296.077-.592.077-.888.024-.036.024-.065.024-.089zm-11.803 12.12c-.036.029-.071.07-.107.106a6614.3 6614.3 0 0 0-6.43 6.442c-.29.29-.593.574-.96.77a2.61 2.61 0 0 1-.774.425 3.53 3.53 0 0 1-1.308.397v-.024a.548.548 0 0 1-.296.042.183.183 0 0 1-.059.03c-.29.082-.591.07-.887.053-.1.006-.207.018-.302-.042a1.893 1.893 0 0 1-.77-.124c-.082 0-.17.012-.236-.06-.236-.023-.45-.112-.662-.218-.107-.03-.213-.06-.296-.136a1.397 1.397 0 0 1-.462-.25.543.543 0 0 1-.248-.165 1.605 1.605 0 0 1-.467-.355.546.546 0 0 1-.196-.172 1.674 1.674 0 0 1-.402-.414.397.397 0 0 1-.166-.19 2.03 2.03 0 0 1-.372-.527.287.287 0 0 1-.113-.183 1.916 1.916 0 0 1-.296-.592c-.035-.077-.07-.16-.106-.237-.083-.213-.172-.42-.19-.651-.035-.077-.076-.148-.059-.237a1.538 1.538 0 0 1-.077-.569c-.065-.16-.047-.325-.041-.497A3.384 3.384 0 0 1 2 21.451c.006-.119-.006-.243.07-.35a4.07 4.07 0 0 1 .575-1.486c.195-.414.473-.775.792-1.095 2.213-2.22 4.432-4.434 6.644-6.66.184-.184.255-.09.35.059.153.118.29.254.408.408l.183.184c.154.118.29.254.408.408a.495.495 0 0 1 .184.184c.153.118.29.254.408.408a.496.496 0 0 1 .183.184c.154.118.29.254.409.408a.497.497 0 0 1 .183.184c.154.118.29.254.408.408l.184.184c.153.118.29.255.408.408a.497.497 0 0 1 .183.184c.154.118.29.255.408.409l.184.183c.154.118.29.255.408.409a.496.496 0 0 1 .183.183c.154.118.29.255.409.409a.495.495 0 0 1 .183.183c.154.119.29.255.408.409l.184.183c.153.119.29.255.408.409l.183.183.409.409a.2.2 0 0 1 .005.059.58.58 0 0 1 .107.1l.018.018c.017 0 .035.006.059.012.154.119.29.255.408.409a.496.496 0 0 1 .184.183c.112.053.183.113.059.213zm7.845-14.53a.935.935 0 0 1-.456.462c-.16.071-.355-.083-.527-.166a.368.368 0 0 1-.236-.065l-.65-.124-.356-.053h-.887l-.355.053c-.379.06-.752.166-1.119.266-.177.071-.354.148-.538.22-.828.42-1.485 1.047-2.13 1.699-1.384 1.403-2.786 2.782-4.17 4.185-.19.19-.308.237-.444-.023a.427.427 0 0 1-.178-.178 2.288 2.288 0 0 1-.414-.414.428.428 0 0 1-.177-.178 2.286 2.286 0 0 1-.415-.414.428.428 0 0 1-.177-.178c.018-.107.106-.166.171-.23 1.728-1.73 3.45-3.453 5.177-5.187.089-.09.22-.142.255-.273a3.391 3.391 0 0 1 1.017-.64 3.592 3.592 0 0 1 1.225-.425c.154-.071.325-.083.49-.101l.273-.018h.604c-.024-.018-.072-.023-.137-.018-.142.006-.278-.011-.42.006.308-.065.616-.059.917 0 .024.006.048.012.071.012.22-.018.426.036.633.077.125.03.255.03.361.1.207.019.397.102.58.19a.527.527 0 0 1 .243.107c.195.06.372.154.538.278.089.024.16.071.225.136.177.09.337.213.48.356a.454.454 0 0 1 .194.171c.154.1.385.231.332.367z" fill="#fff"/></svg>