<svg width="28" height="31" fill="none" xmlns="http://www.w3.org/2000/svg"><path d="M0 0h27.55v30.002H0z"/><path d="M20.58 16.513c.284.076.455.302.626.528.436.603.607 1.319.701 2.054.02.17.076.358.02.509-.057.15-.285.132-.437.207-.929.471-1.403 1.47-1.176 2.45.228.98 1.12 1.696 2.143 1.715 1.082.018 2.01-.773 2.22-1.922.17-.98-.494-2.036-1.499-2.356-.19-.057-.208-.15-.227-.32a6.646 6.646 0 0 0-.437-2.092c.076-.038.152 0 .228.037 2.485 1.376 4.059 3.45 4.628 6.238a7.6 7.6 0 0 1 .019 3.204c-.304 1.45-1.214 2.336-2.618 2.77-.853.264-1.745.358-2.636.414-1.878.095-3.755.038-5.614.038H7.057c-.55 0-1.1-.019-1.65-.038-.076 0-.17 0-.246-.019-.285-.037-.588.038-.892-.094-.095-.037-.19.038-.265-.037-.36.018-.72-.057-1.043-.226-.057-.02-.114 0-.152-.057-.057-.038-.152 0-.209-.075l-.019-.02h-.019c-.132-.018-.265-.056-.36-.169a2.073 2.073 0 0 1-.209-.113 1.389 1.389 0 0 1-.682-.49c-.057-.019-.095-.075-.133-.132l-.095-.094c-.076-.057-.152-.132-.17-.226-.02-.038-.039-.057-.058-.094a.851.851 0 0 1-.265-.453c0-.018 0-.037-.019-.037-.076-.02-.057-.095-.076-.151 0-.019 0-.019-.019-.038-.019 0-.038-.019-.038-.037-.152-.396-.322-.792-.284-1.244v-.095c-.152-.075-.152-.244-.152-.376-.019-1.131.095-2.224.474-3.298.133-.377.304-.735.455-1.093.038-.075.076-.15.152-.189.019 0 .019-.018.019-.018.114-.34.284-.622.531-.886.076-.094.133-.17.209-.264a.508.508 0 0 1 .208-.283c.076-.075.095-.188.19-.226.038-.075.076-.132.152-.15.057-.076.113-.132.17-.208.152-.188.285-.395.531-.49.057-.037.095-.094.152-.132.304-.263.57-.565.967-.697l.171-.113c.152-.17.341-.245.55-.302.038-.018.076-.018.095.02.019.037.019.056-.019.075-.076.414-.19.829-.247 1.244a.303.303 0 0 1-.056.17.77.77 0 0 0 0 .414c.037.113.037.226-.057.32-.057.057-.095.113-.152.17-.02.075-.095.113-.152.15-.038.038-.095.076-.095.132-.038.057-.019.151-.113.17-.076 0-.114.038-.171.094-.133.113-.247.264-.436.32h-.02v.02c-.208.244-.398.49-.625.715-.038.057-.095.095-.114.151-.057.207-.17.377-.303.528h-.02v.019c-.075.264-.19.509-.17.791 0 .075-.02.132-.095.17-.076.15-.133.32-.152.49 0 .301-.095.603-.132.904a6.538 6.538 0 0 0 .056 1.922c.02.132.133.226.152.34 0 .075.038.094.095.131.038.02.076.038.095.076.038.019.057.037.095.056.113.038.246.038.322.151.152 0 .304.038.436.113a.43.43 0 0 0 .304.038c.284 0 .55.019.834-.019.02-.019.057-.038.076-.056.057-.095.152-.17.19-.283.152-.34 0-.679-.36-.773-.21-.075-.437-.037-.645-.056-.114 0-.209.018-.323-.02h-.208c-.057-.037-.057-.075-.057-.131v-.094a1.968 1.968 0 0 1 0-1.32c0-.037 0-.075.019-.113a1.014 1.014 0 0 1 .113-.565c0-.037.02-.056.02-.094-.02-.038 0-.075.018-.094 0-.057 0-.113.02-.17.075-.056.056-.17.132-.226.114-.113.228-.264.36-.358.02-.019.02-.019.02-.038.018-.094.018-.188.132-.226.02 0 .02-.019.02-.037.094-.302.303-.547.55-.754a.823.823 0 0 1 .132-.113c.114-.17.265-.283.474-.302h.019l.019-.019c.133-.075.265-.094.398.02.02.037.057.018.095.037.398.094.588.414.816.716.057.075.113.15.132.264-.019.056.038.094.057.113.209.226.36.509.55.753a.511.511 0 0 1 .076.302c.076.094.076.226.095.34a.66.66 0 0 0 .057.263c.19.34.152.697.133 1.055 0 .113-.038.226 0 .358.038.113 0 .208-.02.32-.018.17-.132.246-.303.227a3.844 3.844 0 0 0-1.138.038c-.076.018-.114.075-.133.132-.018.056-.037.131-.056.188-.114.433.132.773.588.791.246 0 .512 0 .758.02.02 0 .057 0 .076-.02.247-.188.55-.245.816-.395l.056-.057c.133-.17.19-.396.323-.584.019-.038.019-.094.038-.132-.057-.113-.038-.245-.02-.358.115-.735-.037-1.451-.17-2.148-.038-.189-.133-.358-.133-.566-.056-.037-.038-.094-.056-.15a.418.418 0 0 1 0-.264v-.094c-.095-.283-.266-.528-.36-.83-.153-.113-.21-.244-.285-.414 0-.019 0-.019-.02-.038-.132-.056-.189-.188-.284-.282-.208-.227-.455-.396-.664-.622-.19-.057-.36-.132-.474-.32-.019-.038-.057-.095-.095-.114-.265-.17-.284-.433-.265-.716a5.29 5.29 0 0 1 .284-1.319c0-.019.038-.038.038-.056 0-.02 0-.038.02-.038a.88.88 0 0 1 .265-.547c.076-.113.152-.207.227-.32a.371.371 0 0 1 .171-.17c.02-.018.038-.037.057-.056.095-.094.247-.094.36-.132.19-.057.399-.075.607-.132.114-.019.247-.019.36-.056.152 0 .304-.038.38.15.152.603.55 1.055.93 1.527.265.32.55.603.834.885l.341.34a33.275 33.275 0 0 0 2.485 2.11c.227.17.455.358.682.528.114.094.21.094.342 0a45.775 45.775 0 0 0 2.769-2.3 19.233 19.233 0 0 0 1.745-1.77c.341-.415.626-.849.777-1.357.209-.189.436-.076.645 0 .02 0 .057 0 .076.018.19-.113.398-.094.588.02z" fill="#fff"/><path d="M18.683 1.847c.645.585 1.214 1.225 1.65 1.998.873 1.526 1.176 3.166.93 4.918-.342 2.337-1.252 4.429-2.655 6.332-.114.15-.247.302-.36.471-.02.057-.058.076-.115.094-.227.038-.455.095-.701.02-.247-.076-.474.169-.493.49-.02.206.018.433-.02.64a.293.293 0 0 1-.113.15c-.873.66-1.84 1.056-2.94 1.094a4.401 4.401 0 0 1-2.428-.66c-.17-.094-.34-.17-.493-.283-.057-.056-.151-.094-.151-.188.19-.226.19-.245-.057-.358-.19-.094-.266-.32-.171-.49.095-.17.265-.207.493-.094l.057.056c.095.151.076.34.076.51 0 .075-.02.169.019.244.095.075.152.038.17-.075a3.017 3.017 0 0 0 0-.585.519.519 0 0 0-.55-.433.511.511 0 0 0-.493.471c-.018.113.02.207-.037.302-.21.094-.247-.113-.36-.17-.039-.056-.096-.094-.096-.17 0-.094.114-.207 0-.301-.113-.132-.265-.132-.417-.15l-.114-.057a1.076 1.076 0 0 1-.208-.302c-.02-.037-.038-.056-.057-.094a3.103 3.103 0 0 1-.664-.905c-.057-.018-.038-.094-.057-.131-.246-.227-.36-.528-.512-.83a1.15 1.15 0 0 1-.095-.226c-.076-.132-.133-.264-.208-.396a.634.634 0 0 1-.171-.376c-.095-.038-.057-.151-.095-.226-.17-.245-.247-.528-.322-.81v-.038c-.209-.359-.304-.754-.36-1.15-.02-.075-.039-.17-.058-.245-.151-.264-.17-.565-.17-.867v-.075c-.133-.302-.133-.622-.114-.942.019-.377-.02-.754 0-1.112.038-.358.095-.735.19-1.093.018-.076.037-.151.113-.189.02-.075-.019-.17.057-.226 0-.264.114-.471.247-.678.019 0 .019-.02.019-.038.019-.056 0-.113.076-.15 0-.02 0-.02.019-.038.075-.302.246-.566.398-.83.19-.32.417-.621.664-.904a.37.37 0 0 1 .113-.075c.152-.264.38-.453.626-.641l.057-.057c.133-.188.304-.301.512-.395a.34.34 0 0 1 .133-.095.732.732 0 0 1 .322-.207c.02-.019.057-.038.076-.075.171-.151.36-.245.588-.32.038-.02.057-.038.095-.057a1.51 1.51 0 0 1 .645-.264c.038-.019.095-.038.133-.057.057-.094.151-.075.227-.075.304-.17.607-.245.949-.226.038 0 .057 0 .094-.019.076-.038.152-.019.228-.038h.095c.303-.17.645-.15.986-.15.095 0 .19 0 .247.056.075 0 .151 0 .208.019.114.057.228 0 .323.038h.095c.075.037.151 0 .227.037.019 0 .057 0 .076.02.474.018.91.112 1.328.357.018.02.075.02.094.038.02.019.02.019.038.019.19.019.38.075.512.226.02.056.057.038.095.038.228.075.436.132.588.32.038.057.095.057.133.075.303.132.569.302.777.566.038.037.038.037.057.037z" fill="#fff"/><path d="M20.372 11.968s-1.48 4.749-5.709 5.974c-2.048-.057-4.665-.245-6.315-3.675-1.65-3.43 4.324-4.466 4.324-4.466l7.7 2.167zm3.014 9.777c0 .566-.455 1.018-1.024 1.018-.55 0-1.024-.452-1.024-.999a1 1 0 0 1 1.005-1.017.994.994 0 0 1 1.043.998z" fill="#fff"/></svg>