<svg width="18" height="29" fill="none" xmlns="http://www.w3.org/2000/svg"><path d="M0 0h18v28.379H0z"/><path d="M0 0h18v28.379H0z"/><path d="M18 25.887c-.047.006-.061-.035-.061-.064-.023-.414-.273-.727-.47-1.06l-2.238-3.758c-1.016-1.706-2.032-3.408-3.047-5.114-.244-.411-.497-.816-.735-1.233a.564.564 0 0 1-.08-.287V8.29c0-.197.022-.22.228-.223.166-.003.328.006.49-.029.578-.127.988-.672.93-1.242a1.182 1.182 0 0 0-1.15-1.08c-.217-.006-.435 0-.653 0H5.366c-.592 0-1.062.379-1.178.94a1.174 1.174 0 0 0 1.126 1.41c.102.004.203-.002.305.004.087.006.13.049.136.136.003.058.003.116.003.174 0 1.925-.003 3.85.003 5.777 0 .231-.044.437-.154.648-.31.594-.615 1.193-.923 1.79-.563 1.1-1.132 2.198-1.695 3.295-.348.678-.696 1.358-1.047 2.033C1.355 23.049.78 24.182.194 25.308c-.06.119-.08.246-.107.373-.014.064.006.151-.087.177.009-.006.023-.009.023-.012.009-.356.186-.648.343-.952 1.77-3.429 3.535-6.857 5.3-10.283a.53.53 0 0 0 .057-.246c.003-2.036.006-4.071.015-6.11 0-.119-.023-.16-.148-.148-.36.027-.7-.026-.999-.257a1.213 1.213 0 1 1 .726-2.172c2.185-.003 4.37-.003 6.559 0 .61 0 1.135.498 1.187 1.106a1.223 1.223 0 0 1-.975 1.297c-.195.038-.386.024-.578.024-.084 0-.116.014-.116.11.009 2.073.012 4.15.015 6.225 0 .076.032.128.066.186 2.107 3.541 4.217 7.08 6.327 10.618.105.177.137.365.166.562.006.026-.018.067.032.081z" fill="#E74512"/><path d="M18 25.89c-.05-.015-.026-.055-.03-.084-.028-.194-.06-.382-.165-.562-2.112-3.538-4.22-7.077-6.327-10.618-.034-.058-.066-.11-.066-.186-.003-2.076-.006-4.15-.015-6.225 0-.096.03-.11.116-.11.192 0 .386.014.578-.024a1.225 1.225 0 0 0 .975-1.297c-.052-.61-.578-1.106-1.187-1.106-2.185-.003-4.37-.003-6.56 0a1.22 1.22 0 0 0-1.128.822c-.166.49.003 1.037.403 1.35.296.231.639.284.999.257.124-.008.148.03.148.148-.009 2.036-.012 4.071-.015 6.11 0 .09-.017.168-.058.246L.372 24.894c-.157.304-.334.596-.343.953 0 .005-.014.008-.023.011v.058a.496.496 0 0 1 0 .26v.03c.032.107.011.22.038.324.238.935.78 1.584 1.732 1.85H16.23c.082-.032.169-.032.25-.063.549-.226.952-.608 1.242-1.121.174-.307.253-.64.279-.988v-.028a.495.495 0 0 1 0-.261v-.029zm-.993.788c-.171.39-.47.663-.865.828a.884.884 0 0 1-.336.066c-2.27-.002-4.536-.002-6.806-.002v-.02c-2.226 0-4.45-.007-6.675.005-.47.003-.819-.2-1.1-.536a1.562 1.562 0 0 1-.348-1.337.828.828 0 0 1 .078-.215l5.534-10.824a.55.55 0 0 0 .061-.264c.003-2.31.006-4.621.015-6.935 0-.115-.02-.153-.145-.15-.343.008-.688.003-1.03.003-.262 0-.45-.171-.453-.403-.003-.234.186-.408.447-.408h6.414c.26 0 .45.17.45.405 0 .235-.19.406-.45.406-.354 0-.706.005-1.06-.003-.098-.003-.116.029-.116.121.009 2.331.018 4.663.024 6.994a.38.38 0 0 0 .063.202c2.075 3.565 4.148 7.132 6.231 10.688.276.466.27.915.067 1.379zM10.395 0c.23.072.453.148.633.319.389.367.508.923.287 1.401-.215.47-.731.767-1.233.71a1.24 1.24 0 0 1-1.074-.968c-.137-.64.29-1.291.931-1.43.027-.006.059.003.076-.03.128-.002.255-.002.38-.002z" fill="#E74512"/><path d="M.006 25.918a.261.261 0 0 1 0 .26v-.26zM18 26.179a.26.26 0 0 1 0-.261v.26zM7.764 3.654c0 .457-.357.81-.816.807a.812.812 0 0 1-.806-.807c0-.446.374-.817.82-.814a.812.812 0 0 1 .802.814zm3.25.802a.802.802 0 0 1-.795.817.813.813 0 0 1-.83-.802.823.823 0 0 1 .815-.823c.444 0 .807.362.81.808zm-2.04 22.348c-2.18 0-4.362-.009-6.542.009-.482.002-.946-.597-.679-1.118 1.315-2.572 2.615-5.155 3.935-7.723.235-.458.674-.698 1.17-.794.633-.124 1.146.154 1.61.545.218.182.413.394.65.553.813.539 1.693.463 2.404-.209.038-.037.081-.069.113-.113.067-.095.099-.052.142.024l2.342 4.091c.694 1.21 1.388 2.418 2.078 3.629.27.472-.101 1.112-.65 1.112-2.194-.006-4.382-.006-6.573-.006z" fill="#E74512"/></svg>