<svg width="30" height="48" fill="none" xmlns="http://www.w3.org/2000/svg"><path d="M0 0h30v47.297H0z"/><path d="M0 0h30v47.297H0z"/><path d="M30 43.147c-.078.01-.102-.058-.102-.106-.038-.69-.454-1.212-.783-1.767-1.243-2.09-2.487-4.174-3.73-6.264-1.693-2.843-3.386-5.68-5.079-8.523-.406-.686-.827-1.361-1.224-2.056a.94.94 0 0 1-.135-.478V13.818c0-.328.039-.367.382-.372.276-.005.547.01.818-.048.962-.212 1.644-1.12 1.548-2.07-.102-1.014-.905-1.772-1.916-1.8-.363-.01-.726 0-1.088 0H8.944c-.987 0-1.77.631-1.964 1.568a1.957 1.957 0 0 0 1.877 2.35c.17.005.338-.005.508.005.145.01.217.082.227.227.005.096.005.193.005.29 0 3.209-.005 6.418.005 9.628 0 .386-.073.729-.257 1.08-.517.99-1.025 1.99-1.538 2.984-.938 1.833-1.886 3.663-2.825 5.492-.58 1.13-1.16 2.263-1.746 3.388-.977 1.877-1.935 3.764-2.912 5.642-.101.197-.135.41-.179.622-.024.106.01.251-.145.295.015-.01.039-.015.039-.02.014-.593.31-1.08.57-1.587 2.951-5.715 5.892-11.43 8.833-17.138a.882.882 0 0 0 .097-.41c.005-3.394.01-6.786.024-10.184 0-.198-.039-.265-.247-.246-.6.043-1.165-.044-1.664-.43a2.044 2.044 0 0 1-.672-2.249c.27-.8 1.04-1.37 1.882-1.37 3.642-.005 7.284-.005 10.932 0 1.015 0 1.89.83 1.978 1.843a2.038 2.038 0 0 1-1.625 2.162c-.324.063-.644.039-.963.039-.14 0-.193.024-.193.183.014 3.456.019 6.916.024 10.377 0 .125.053.212.111.309 3.512 5.902 7.028 11.8 10.545 17.697.174.295.227.608.276.937.01.043-.03.11.053.135z" fill="#fff"/><path d="M30 43.148c-.082-.024-.044-.092-.048-.14-.049-.324-.102-.637-.276-.937-3.521-5.897-7.033-11.795-10.545-17.697-.058-.097-.111-.184-.111-.31-.005-3.46-.01-6.915-.024-10.376 0-.159.048-.183.193-.183.32 0 .643.024.963-.039a2.042 2.042 0 0 0 1.625-2.162c-.087-1.018-.963-1.843-1.979-1.843-3.642-.005-7.284-.005-10.931 0-.837 0-1.611.574-1.882 1.37a2.044 2.044 0 0 0 .672 2.25c.494.385 1.064.472 1.664.429.208-.015.247.048.247.246-.015 3.393-.02 6.786-.024 10.183 0 .15-.03.28-.097.41C6.501 30.065 3.56 35.78.619 41.489c-.261.506-.556.994-.57 1.587 0 .01-.025.015-.04.02v.096a.827.827 0 0 1 0 .435v.048c.054.178.02.367.064.54.396 1.56 1.3 2.64 2.887 3.084h24.09c.135-.053.28-.053.415-.106.915-.376 1.587-1.013 2.07-1.868.29-.511.421-1.066.465-1.645v-.049a.827.827 0 0 1 0-.434v-.048zm-1.654 1.313c-.286.651-.784 1.105-1.442 1.38a1.472 1.472 0 0 1-.56.11c-3.784-.004-7.561-.004-11.344-.004v-.034c-3.71 0-7.415-.01-11.125.01-.784.005-1.364-.333-1.834-.893-.541-.642-.73-1.4-.58-2.23a1.38 1.38 0 0 1 .13-.357c3.077-6.013 6.149-12.027 9.225-18.04a.916.916 0 0 0 .101-.44c.005-3.85.01-7.702.025-11.558 0-.193-.034-.256-.242-.251-.57.014-1.147.005-1.717.005-.436 0-.75-.285-.755-.671-.005-.391.31-.68.745-.68h10.69c.435 0 .75.284.75.675 0 .39-.315.675-.75.675-.59 0-1.175.01-1.765-.004-.165-.005-.194.048-.194.202.014 3.885.029 7.77.039 11.656 0 .13.043.231.106.338 3.459 5.94 6.912 11.887 10.385 17.813.46.777.45 1.525.112 2.298zM17.326 0c.382.12.755.246 1.055.53.648.614.846 1.54.479 2.337-.358.782-1.22 1.279-2.056 1.182a2.067 2.067 0 0 1-1.79-1.612c-.227-1.066.484-2.152 1.553-2.384.043-.01.096.005.126-.048.212-.005.425-.005.633-.005z" fill="#fff"/><path d="M.01 43.195a.435.435 0 0 1 0 .435v-.435zM30 43.63a.435.435 0 0 1 0-.435v.435zM12.94 6.087a1.33 1.33 0 0 1-1.36 1.346 1.354 1.354 0 0 1-1.345-1.346 1.37 1.37 0 0 1 1.37-1.356 1.354 1.354 0 0 1 1.334 1.356zm5.416 1.342a1.338 1.338 0 0 1-1.325 1.36 1.354 1.354 0 0 1-1.383-1.336 1.371 1.371 0 0 1 1.359-1.371c.74 0 1.345.603 1.35 1.347zM14.957 44.67c-3.633 0-7.27-.014-10.903.015-.803.005-1.577-.994-1.132-1.863 2.191-4.286 4.359-8.59 6.56-12.871.391-.763 1.122-1.163 1.949-1.323 1.054-.207 1.91.256 2.684.908.363.304.687.656 1.084.921 1.354.898 2.82.773 4.005-.347.063-.063.136-.116.189-.188.111-.16.164-.087.237.038l3.903 6.82c1.156 2.017 2.312 4.03 3.464 6.047.45.787-.17 1.853-1.084 1.853-3.657-.01-7.304-.01-10.956-.01z" fill="#fff"/></svg>