<svg width="208" height="236" fill="none" xmlns="http://www.w3.org/2000/svg"><path d="M0 0h208v236H0z"/><path fill-rule="evenodd" clip-rule="evenodd" d="M0 18C0 8.059 8.059 0 18 0h121.737c3.536 0 6.994 1.041 9.942 2.994l50.263 33.3A18 18 0 0 1 208 51.3V218c0 9.941-8.059 18-18 18H18c-9.941 0-18-8.059-18-18V18zm20 2v196h168V52.374L139.135 20H20z" fill="#323232"/><path fill-rule="evenodd" clip-rule="evenodd" d="M123.798 63.667V24.918h20v34.749h37.792v20h-41.792c-8.837 0-16-7.163-16-16z" fill="#323232"/></svg>