<svg width="30" height="30" fill="none" xmlns="http://www.w3.org/2000/svg"><path d="M0 0h30v30H0z"/><path d="M29.982 26.63c-.054-6.47.018-12.94-.036-19.392-.18-1.093-.933-1.792-1.83-2.169-2.566-1.075-5.167-2.007-7.751-3.047-1.166-.484-2.386-.86-3.553-1.362-.664-.305-1.381-.878-2.207-.573-4.27 1.63-8.522 3.297-12.775 4.982C.825 5.481.126 6.252 0 7.4c.018 6.685 0 13.389.018 20.074.233 1.344 1.184 2.294 2.512 2.51h3.39c7.123 0 14.264-.019 21.388.017 1.435-.161 2.44-1.147 2.691-2.67v-.018c0-.216 0-.449-.018-.681zm-8.2-8.513c0 .448-.448.394-.771.394-1.077.018-2.153 0-3.212.018-.287 0-.592-.071-.861.09 0-.018-.036-.036-.09-.054-.036 0-.072-.018-.108-.018-.017 1.613-.035 3.226-.035 4.84a2.594 2.594 0 0 1-.234.16 8.18 8.18 0 0 1-2.96 0c-.072-.053-.144-.107-.233-.16-.018-1.614-.036-3.227-.036-4.84-.036 0-.072.018-.108.018 0 .036-.018.072-.018.108-.861-.287-1.758-.072-2.62-.126-.448-.018-.897-.036-1.345 0-.7.054-1.077-.161-.97-.95.108-.86-.143-1.756.144-2.599.7-.268 1.418-.09 2.136-.107.86-.036 1.704 0 2.565-.018.36-.197.18-.52.198-.789.018-1.129 0-2.24.018-3.37 0-.232-.09-.5.09-.716a8.805 8.805 0 0 1 3.355 0c.287 1.326.035 2.67.125 3.997.018.305-.18.663.198.878 1.291.018 2.601 0 3.893.018.27 0 .556-.108.79.09.287 1.021.071 2.079.09 3.136z" fill="#fff"/></svg>