<svg width="13" height="19" fill="none" xmlns="http://www.w3.org/2000/svg"><path d="M4.57 17.897c.064-.08.165-.129.251-.185 1.37-.947 2.895-1.556 4.444-2.094.86-.297 1.737-.554 2.574-.915.18-.08.36-.168.188-.441-1.11-1.741-1.76-3.667-2.128-5.697-.266-1.46-.368-2.937-.11-4.414.259-1.46.861-2.728 2.035-3.659-.133-.12-.266-.16-.4-.208-.844-.314-1.712-.297-2.58-.225C7.215.188 6.097 1.207 5.87 2.835c-.352 2.536.258 4.863 1.557 7.022.328.545.172 1.276-.4 1.572-.25.137-.524.241-.79.337-1.126.41-2.26.763-3.356 1.268-1.15.538-2.058 1.292-2.472 2.568-.259.794-.352 1.605-.407 2.44-.016.256.07.312.305.312a71.563 71.563 0 0 1 2.934 0c.508 0 .986 0 1.33-.457z" fill="#fff"/></svg>