<svg height="512" width="512" xmlns="http://www.w3.org/2000/svg"><path d="M507.592 232.111s-9.296-3.496-36.19-5.977c-32.884-3.04-42.804-15.365-53.742-30.709h-.22c-1.362-3.647-2.821-7.248-4.427-10.776l.127-.127c-3.122-18.58-4.812-34.316 16.292-59.719 17.25-20.766 21.365-29.818 21.365-29.818-4.048-10.273-13.781-20.004-13.781-20.004s-9.736-9.734-20.004-13.776c0 0-9.052 4.104-29.818 21.361-25.403 21.102-41.14 19.407-59.719 16.292l-.128.126c-3.524-1.605-7.12-3.058-10.775-4.427v-.214c-15.345-10.934-27.669-20.865-30.71-53.749-2.485-26.881-5.976-36.189-5.976-36.189C269.757 0 255.997 0 255.997 0s-13.766 0-23.887 4.405c0 0-3.498 9.309-5.979 36.189-3.041 32.884-15.372 42.815-30.709 53.749v.214c-3.647 1.369-7.25 2.821-10.776 4.421l-.122-.12c-18.579 3.127-34.316 4.815-59.719-16.285C104.041 65.322 94.977 61.21 94.977 61.21c-10.273 4.053-19.992 13.771-19.992 13.771S65.25 84.724 61.208 94.99c0 0 4.099 9.053 21.362 29.813 21.1 25.402 19.389 41.139 16.284 59.719l.128.127c-1.607 3.528-3.059 7.129-4.429 10.776h-.213c-10.927 15.35-20.859 27.669-53.741 30.709-26.883 2.486-36.202 5.989-36.202 5.989C.003 242.254.003 256 .003 256s0 13.771 4.405 23.887c0 0 9.297 3.503 36.185 5.978 32.883 3.041 42.803 15.38 53.747 30.71h.214c1.37 3.655 2.821 7.251 4.429 10.776l-.128.127c3.128 18.582 4.815 34.316-16.284 59.719-17.252 20.765-21.368 29.829-21.368 29.829 4.059 10.268 13.775 19.993 13.775 19.993s9.742 9.736 20.01 13.771c0 0 9.047-4.094 29.813-21.357 25.402-21.1 41.145-19.389 59.718-16.288l.128-.128c3.526 1.605 7.129 3.052 10.776 4.427v.22c15.349 10.928 27.668 20.859 30.709 53.743 2.485 26.881 5.983 36.2 5.983 36.2C242.25 512 255.997 512 255.997 512s13.771 0 23.889-4.405c0 0 3.504-9.298 5.976-36.189 3.041-32.884 15.379-42.805 30.71-53.743v-.22c3.655-1.375 7.251-2.821 10.775-4.427l.128.128c18.579-3.122 34.315-4.812 59.719 16.288 20.767 17.253 29.832 21.369 29.832 21.369 10.267-4.06 19.99-13.782 19.99-13.782s9.733-9.736 13.781-20.004c0 0-4.104-9.054-21.365-29.818-21.104-25.402-19.403-41.137-16.292-59.719l-.127-.127c1.605-3.525 3.064-7.121 4.427-10.776h.22c10.928-15.341 20.858-27.669 53.742-30.71 26.881-2.485 36.201-5.978 36.201-5.978 4.395-10.127 4.395-23.887 4.395-23.887s-.001-13.771-4.406-23.889zM255.997 375.727c-66.125 0-119.728-53.602-119.728-119.727s53.603-119.727 119.728-119.727c66.124 0 119.727 53.602 119.727 119.727s-53.603 119.727-119.727 119.727z" fill="#fff"/></svg>