<svg width="21" height="24" fill="none" xmlns="http://www.w3.org/2000/svg"><path d="M0 0h21v23H0z"/><path d="M0 0h21v23H0z"/><path d="M9.396.002C8.03.082 6.44 1.187 5.492 3.201c-.56 1.196-.537 2.45-.35 3.716.245 1.702.806 3.267 1.975 4.567 1.099 1.208 2.443 1.852 4.115 1.45 1.344-.323 2.256-1.231 2.98-2.336.924-1.427 1.286-3.026 1.415-4.67.245-3.395-2.397-6.018-6.23-5.926zm3.67 10.918c-1.636 1.772-3.997 1.726-5.575-.103C6.44 9.597 5.937 8.159 5.773 6.49c.269.115.444.184.654.276.024-.736-.116-1.427-.011-2.117.035-.241.07-.495.152-.725.163-.425.397-.61.935-.402 1.332.529 2.712.782 4.161.483.339-.07.701-.15.982-.345.456-.334.678-.184.888.264.363.771.807 1.519.76 2.428.304-.07.339-.437.666-.483-.14 1.886-.584 3.624-1.893 5.05z" fill="#24B574"/><path d="M20.921 20.195c-.199 1.22-.912 1.99-2.08 2.381-.538.173-1.088.3-1.649.31-.023.035-.035.07-.011.104-.024-.034-.035-.057-.024-.08 0-.012 0-.012.012-.023 0-.012.012-.035.035-.046.246-.15.526-.138.795-.184 2.186-.38 2.992-1.68 2.899-3.716-.14-3.003-2.373-5.546-5.342-6.213-.456-.103-.736-.046-.982.414-.62 1.116-1.66 1.864-2.606 2.68-.304.265-.643.496-.959.76-.327.265-.631.265-.947 0-1.344-1.116-2.84-2.105-3.717-3.681-.163-.288-.409-.23-.666-.196-2.688.483-4.944 2.727-5.4 5.396-.117.667-.152 1.323-.035 2.002.198 1.23.9 1.99 2.08 2.381.503.173 1.04.173 1.532.368.011.012.023.035.035.046 0 .012.011.012.011.023 0 .023 0 .058-.023.08.023-.034.012-.068-.012-.103-.397-.057-.818-.08-1.204-.184C.7 22.231-.189 20.85.033 18.711c.316-3.072 2.397-5.42 5.424-6.132.48-.115.818-.161 1.11.437.515 1.024 1.473 1.714 2.338 2.462.42.368.877.702 1.31 1.058.186.15.338.219.56.035 1.193-.955 2.408-1.887 3.378-3.072.082-.104.164-.219.234-.322.491-.748.491-.748 1.403-.53 3.401.794 5.669 4.154 5.131 7.548z" fill="#24B574"/><path d="M15.802 12.636c-.912-.219-.912-.219-1.403.53-.07.114-.152.218-.234.321-.982 1.185-2.186 2.117-3.378 3.072-.222.173-.374.115-.561-.035-.433-.356-.877-.69-1.31-1.058-.864-.748-1.823-1.438-2.337-2.462-.304-.598-.631-.552-1.11-.437-3.04.725-5.12 3.072-5.436 6.143-.222 2.14.667 3.52 2.607 4.004.397.104.806.127 1.204.184.012.012.023.012.035.023.175.08.386-.046.561.08h12.04c.21-.138.455 0 .677-.08.012 0 .024-.011.035-.023.573-.011 1.11-.138 1.649-.31 1.168-.392 1.881-1.174 2.08-2.382.538-3.405-1.73-6.765-5.12-7.57zm.233 6.868c.059.345-.07.449-.444.46-.42.012-.456-.195-.409-.483.07-.449-.094-.633-.561-.552-.35.058-.514-.035-.514-.449.011-.38.14-.471.467-.414.468.08.69-.069.596-.564-.058-.31 0-.483.41-.483.373.012.49.127.432.46-.082.483.105.668.596.587.327-.057.55.023.444.414.094.368-.07.506-.432.449-.445-.08-.667.08-.585.575z" fill="#24B574"/><path d="M9.396.002C8.03.082 6.44 1.187 5.492 3.201c-.56 1.196-.537 2.45-.35 3.716.245 1.702.806 3.267 1.975 4.567 1.099 1.208 2.443 1.852 4.115 1.45 1.344-.323 2.256-1.231 2.98-2.336.924-1.427 1.286-3.026 1.415-4.67.245-3.395-2.397-6.018-6.23-5.926zm3.67 10.918c-1.636 1.772-3.997 1.726-5.575-.103C6.44 9.597 5.937 8.159 5.773 6.49c.269.115.444.184.654.276.024-.736-.116-1.427-.011-2.117.035-.241.07-.495.152-.725.163-.425.397-.61.935-.402 1.332.529 2.712.782 4.161.483.339-.07.701-.15.982-.345.456-.334.678-.184.888.264.363.771.807 1.519.76 2.428.304-.07.339-.437.666-.483-.14 1.886-.584 3.624-1.893 5.05z" fill="#24B574"/></svg>