<svg width="209" height="209" fill="none" xmlns="http://www.w3.org/2000/svg"><path d="M0 0h209v209H0z"/><path d="M9 141h50.338v50H9z"/><path d="M9 141h50.338v50H9z"/><rect width="50.314" height="50" rx="8" transform="matrix(1 0 .00048 -1 9 191)" fill="#fff"/><path d="M79 104h50.338v50H79z"/><path d="M79 104h50.338v50H79z"/><rect width="50.314" height="50" rx="25" transform="matrix(1 0 .00048 -1 79 154)" fill="#fff"/><path d="M149 141h50.338v50H149z"/><path d="M149 141h50.338v50H149z"/><rect width="50.314" height="50" rx="8" transform="matrix(1 0 .00048 -1 149 191)" fill="#fff"/><path d="M75 18h57.113v101.182H75z"/><path d="M75 18h57.113v57.081H75z"/><rect width="57.086" height="57.081" rx="8" transform="matrix(1 0 .00048 -1 75 75.08)" fill="#fff"/><path d="M103.894 50.806v68.376" stroke="#fff" stroke-width="8"/><path d="M42 150l61.5-23.5 67 23.5" stroke="#fff" stroke-width="5"/></svg>