<svg width="22" height="22" fill="none" xmlns="http://www.w3.org/2000/svg"><path d="M21.987 19.529c-.04-4.745.013-9.49-.026-14.221-.132-.802-.685-1.315-1.343-1.59-1.881-.79-3.79-1.473-5.684-2.235-.855-.355-1.75-.63-2.605-.999-.487-.223-1.013-.644-1.619-.42a812.087 812.087 0 0 0-9.368 3.653C.605 4.02.092 4.585 0 5.427c.013 4.902 0 9.817.013 14.72.171.986.869 1.682 1.842 1.84h2.487c5.224 0 10.46-.013 15.684.013 1.053-.118 1.79-.841 1.974-1.958v-.014c0-.157 0-.328-.013-.499zm-6.013-6.243c0 .329-.33.289-.566.289-.79.013-1.58 0-2.355.013-.21 0-.435-.052-.632.066 0-.013-.026-.026-.066-.04-.026 0-.052-.013-.079-.013-.013 1.183-.026 2.366-.026 3.55a1.92 1.92 0 0 1-.171.117 6.023 6.023 0 0 1-2.171 0 1.752 1.752 0 0 0-.171-.118 319.043 319.043 0 0 1-.026-3.549c-.027 0-.053.013-.08.013 0 .027-.013.053-.013.08-.631-.211-1.289-.053-1.92-.093-.33-.013-.659-.026-.987 0-.514.04-.79-.118-.711-.696.079-.631-.105-1.288.105-1.906.513-.197 1.04-.066 1.566-.079.632-.026 1.25 0 1.882-.013.263-.145.131-.381.144-.578.014-.828 0-1.643.014-2.471 0-.171-.066-.368.065-.526a6.456 6.456 0 0 1 2.46 0c.211.972.027 1.958.093 2.93.013.224-.132.487.145.645.947.013 1.908 0 2.855.013.197 0 .408-.079.579.066.21.749.053 1.524.066 2.3z" fill="#DAEA19"/></svg>