<svg width="22" height="22" fill="none" xmlns="http://www.w3.org/2000/svg"><path d="M14.275 19.986c-.023-1.16.436-2.202 1.25-3.05l2.47-2.569c2.11-2.247 2.891-4.833 2-7.84-.121-.388-.06-.528.3-.75 1.07-.676 1.593-1.656 1.366-2.937-.199-1.156-.92-1.923-2.047-2.216-1.254-.315-2.33.084-3.015 1.156-.342.536-.608.428-1.04.286-2.257-.712-4.381-.43-6.346.919-1.305.895-2.276 2.162-3.362 3.293-1.099 1.168-2.33 1.961-3.966 2.094-.893.08-1.317.984-.86 1.769 1.371 2.43 2.979 4.692 4.892 6.481a26.567 26.567 0 0 0 6.812 4.818c.267.134.498.356.782.035.344-.435.766-.77.764-1.49zM18.367 3.85c-.374-.408-1.16-.695-.444-1.44.469-.489 1.464-.496 1.928 0 .501.506.482 1.426-.038 1.915-.458.425-.61.378-1.446-.475z" fill="#fff"/></svg>