<svg xmlns="http://www.w3.org/2000/svg" viewBox="0 0 16 16"><defs><style>.cls-1{fill:#fff;}</style></defs><title>Settings2</title><g id="Layer_2" data-name="Layer 2"><g id="Hospital"><path id="Settings" class="cls-1" d="M9.67,16H6.33V14.1a6.44,6.44,0,0,1-1.46-.61L3.52,14.83,1.17,12.48l1.34-1.35A6.44,6.44,0,0,1,1.9,9.67H0V6.33H1.9a6.44,6.44,0,0,1,.61-1.46L1.17,3.52,3.52,1.17,4.87,2.51A6.44,6.44,0,0,1,6.33,1.9V0H9.67V1.9a6.44,6.44,0,0,1,1.46.61l1.35-1.34,2.35,2.35L13.49,4.87a6.44,6.44,0,0,1,.61,1.46H16V9.67H14.1a6.44,6.44,0,0,1-.61,1.46l1.34,1.35-2.35,2.35-1.35-1.34a6.44,6.44,0,0,1-1.46.61Zm-2.61-.73H8.94V13.52l.28-.06A5.41,5.41,0,0,0,11,12.72l.25-.15,1.24,1.24,1.33-1.33-1.24-1.24.15-.25a5.41,5.41,0,0,0,.74-1.77l.06-.28h1.75V7.06H13.52l-.06-.28A5.41,5.41,0,0,0,12.72,5l-.15-.25,1.24-1.24L12.48,2.19,11.24,3.43,11,3.28a5.41,5.41,0,0,0-1.77-.74l-.28-.06V.73H7.06V2.48l-.28.06A5.41,5.41,0,0,0,5,3.28l-.25.15L3.52,2.19,2.19,3.52,3.43,4.76,3.28,5a5.41,5.41,0,0,0-.74,1.77l-.06.28H.73V8.94H2.48l.06.28A5.41,5.41,0,0,0,3.28,11l.15.25L2.19,12.48l1.33,1.33,1.24-1.24.25.15a5.41,5.41,0,0,0,1.77.74l.28.06Zm.94-4A3.27,3.27,0,1,1,11.27,8,3.27,3.27,0,0,1,8,11.27ZM8,5.45A2.55,2.55,0,1,0,10.54,8,2.55,2.55,0,0,0,8,5.45Z"/></g></g></svg>