<svg xmlns="http://www.w3.org/2000/svg" viewBox="0 0 19.28 19.28"><title>Pharmacy</title><g id="Layer_2" data-name="Layer 2"><g id="Hospital"><g id="Pharmacy"><path d="M5.27,19.28A4.56,4.56,0,0,1,2,17.93l-.67-.67a4.6,4.6,0,0,1,0-6.51l9.41-9.41a4.61,4.61,0,0,1,6.5,0l.67.68a4.59,4.59,0,0,1,0,6.5L8.52,17.93A4.54,4.54,0,0,1,5.27,19.28ZM14,1a3.6,3.6,0,0,0-2.55,1L2.05,11.46a3.61,3.61,0,0,0,0,5.09l.68.67a3.59,3.59,0,0,0,5.09,0l9.41-9.41a3.6,3.6,0,0,0,0-5.08l-.68-.68A3.58,3.58,0,0,0,14,1Z"/><rect x="9.03" y="5.25" width="1" height="8.09" transform="translate(-3.78 9.46) rotate(-45)"/><path d="M3.16,15.84a2.52,2.52,0,0,1-.8-1.79c0-1.49,1.39-2.87,2.73-4.2l.3-.3.71.71-.3.3C4.65,11.69,3.36,13,3.36,14.05a1.47,1.47,0,0,0,.51,1.08Z"/></g></g></g></svg>