<svg xmlns="http://www.w3.org/2000/svg" viewBox="0 0 16.22 16"><title>Share</title><g id="Layer_2" data-name="Layer 2"><g id="Hospital"><path id="Share" d="M14.48,10.11h0a3.13,3.13,0,0,0-3.92,1L6,9.26a3.1,3.1,0,0,0-.1-2.48l4.67-1.92A3.13,3.13,0,0,0,12.11,6a2.94,2.94,0,0,0,1,.17,3.11,3.11,0,0,0,1.36-.31,3.07,3.07,0,0,0,1.57-1.78,3.1,3.1,0,0,0-.14-2.37,3.1,3.1,0,0,0-5.72.35,3,3,0,0,0,0,1.91L5.34,6a3.19,3.19,0,0,0-.88-.65h0a3.1,3.1,0,1,0,1,4.76L10.15,12a3,3,0,0,0,0,1.91,3.13,3.13,0,0,0,1.57,1.78,3.12,3.12,0,0,0,2.37.14,3.09,3.09,0,0,0,1.92-3.94A3.07,3.07,0,0,0,14.48,10.11ZM11.09,2.4a2.13,2.13,0,0,1,1.09-1.23A2.23,2.23,0,0,1,13.12,1a2.16,2.16,0,0,1,1.93,1.21,2.15,2.15,0,0,1-1,2.87h0a2.15,2.15,0,0,1-3-2.63ZM2.16,10.05A2.14,2.14,0,0,1,3.1,6,2.22,2.22,0,0,1,4,6.19a2.15,2.15,0,0,1-1.88,3.86Zm12.89,3.79a2.15,2.15,0,0,1-2.87,1,2.15,2.15,0,0,1,.24-4,2.11,2.11,0,0,1,1.64.1h0a2.15,2.15,0,0,1,1,2.87Z"/></g></g></svg>