<svg xmlns="http://www.w3.org/2000/svg" viewBox="0 0 16 16"><defs><style>.cls-1{fill:#009e44;}</style></defs><title>Dashboard2</title><g id="Layer_2" data-name="Layer 2"><g id="Hospital"><g id="Dashboard"><path class="cls-1" d="M8,16a8,8,0,1,1,8-8A8,8,0,0,1,8,16ZM8,.84A7.16,7.16,0,1,0,15.16,8,7.17,7.17,0,0,0,8,.84Z"/><path class="cls-1" d="M8,10.81A2.81,2.81,0,1,1,10.81,8,2.81,2.81,0,0,1,8,10.81ZM8,6a2,2,0,1,0,2,2A2,2,0,0,0,8,6Z"/><rect class="cls-1" x="9.29" y="4.6" width="3.37" height="0.84" transform="translate(-0.34 9.23) rotate(-45)"/></g></g></g></svg>