<svg width="41" height="20" viewBox="0 0 41 20" fill="none" xmlns="http://www.w3.org/2000/svg">
<rect width="40.5051" height="20" fill="black" fill-opacity="0"/>
<path d="M13.5019 0V6.6879H8.72129C7.62306 6.6879 6.78323 7.51592 6.78323 8.59873V11.4013C6.78323 12.4841 7.62306 13.3121 8.72129 13.3121H13.5019V20H4.39295C2.00267 20 0 18.0892 0 15.6688V4.33121C0 1.91083 1.93807 0 4.39295 0H13.5019Z" fill="#24B574"/>
<path d="M40.5048 0V20H33.7216V13.3121H27.003V20H20.2197V13.3121H25.0003C26.0985 13.3121 26.9384 12.4841 26.9384 11.4013V8.59873C26.9384 7.51592 26.0985 6.6879 25.0003 6.6879H20.2197V0H27.003V6.6879H33.7216L33.7862 0H40.5048Z" fill="#24B574"/>
</svg>
