<svg xmlns="http://www.w3.org/2000/svg" viewBox="0 0 14.41 16"><defs><style>.cls-1{fill:#fff;}</style></defs><title>Client2</title><g id="Layer_2" data-name="Layer 2"><g id="Hospital"><g id="Client"><path class="cls-1" d="M7.2,7.23a3.62,3.62,0,1,1,3.62-3.61A3.61,3.61,0,0,1,7.2,7.23ZM7.2,1A2.67,2.67,0,1,0,9.87,3.62,2.67,2.67,0,0,0,7.2,1Z"/><path class="cls-1" d="M14.41,15.72h-1a6.25,6.25,0,1,0-12.5,0H0a7.21,7.21,0,0,1,14.41,0Z"/><path class="cls-1" d="M7.2,16l-.34-.34S5.2,14,5,13.78a1.85,1.85,0,0,1-.62-1.55,1.7,1.7,0,0,1,1.45-1.45,1.76,1.76,0,0,1,1.37.39,1.78,1.78,0,0,1,1.38-.39A1.68,1.68,0,0,1,10,12.23a1.72,1.72,0,0,1-.58,1.51l-1.9,1.92ZM6.07,11.72H6a.75.75,0,0,0-.63.63c0,.15,0,.4.35.75.14.14,1,1,1.52,1.55l1.57-1.58a.86.86,0,0,0,.31-.72h0a.76.76,0,0,0-.63-.63.82.82,0,0,0-.82.41L7.2,13l-.42-.86A.81.81,0,0,0,6.07,11.72Z"/></g></g></g></svg>