<svg xmlns="http://www.w3.org/2000/svg" viewBox="0 0 20.11 16"><defs><style>.cls-1{fill:#fff;}</style></defs><title>Users2</title><g id="Layer_2" data-name="Layer 2"><g id="Hospital"><g id="Users"><path class="cls-1" d="M10.06,7.31a3.66,3.66,0,1,1,3.65-3.65A3.66,3.66,0,0,1,10.06,7.31Zm0-6.4A2.75,2.75,0,1,0,12.8,3.66,2.75,2.75,0,0,0,10.06.91Z"/><path class="cls-1" d="M17.37,9.14A2.74,2.74,0,1,1,20.11,6.4,2.74,2.74,0,0,1,17.37,9.14Zm0-4.8A2.06,2.06,0,1,0,19.43,6.4,2.07,2.07,0,0,0,17.37,4.34Z"/><path class="cls-1" d="M2.74,9.14A2.74,2.74,0,1,1,5.49,6.4,2.74,2.74,0,0,1,2.74,9.14Zm0-4.8A2.06,2.06,0,1,0,4.8,6.4,2.06,2.06,0,0,0,2.74,4.34Z"/><path class="cls-1" d="M17.37,16h-.91a6.4,6.4,0,0,0-12.8,0H2.74a7.32,7.32,0,0,1,14.63,0Z"/></g></g></g></svg>